<svg width="54" height="52" viewBox="0 0 54 52" fill="none" xmlns="http://www.w3.org/2000/svg">
    <path d="M27 -0.00880432C20.6679 -0.00854175 14.5426 2.24483 9.71991 6.34812C4.89725 10.4514 1.692 16.1369 0.677688 22.3871C-0.336627 28.6374 0.90618 35.0447 4.18373 40.4625C7.46128 45.8803 12.5597 49.9552 18.5667 51.9578C19.9001 52.1912 20.4001 51.3912 20.4001 50.6912C20.4001 50.0579 20.3667 47.9578 20.3667 45.7245C13.6667 46.9578 11.9333 44.0913 11.4 42.5913C10.8082 41.1324 9.87007 39.8396 8.66667 38.8245C7.73333 38.3245 6.4 37.0912 8.63331 37.0579C9.48607 37.1504 10.304 37.4472 11.0177 37.923C11.7314 38.3988 12.3199 39.0396 12.7333 39.7912C13.0981 40.4464 13.5885 41.0232 14.1765 41.4885C14.7645 41.9538 15.4386 42.2986 16.1601 42.5029C16.8816 42.7073 17.6363 42.7673 18.381 42.6795C19.1257 42.5917 19.8458 42.3578 20.4999 41.9912C20.6154 40.6355 21.2196 39.368 22.2 38.4246C16.2667 37.7579 10.0667 35.4578 10.0667 25.2579C10.0292 22.6077 11.0072 20.0435 12.8 18.0913C11.9848 15.7879 12.0801 13.26 13.0667 11.0246C13.0667 11.0246 15.2999 10.3246 20.4 13.7579C24.7634 12.5579 29.3699 12.5579 33.7333 13.7579C38.8333 10.2913 41.0667 11.0246 41.0667 11.0246C42.0533 13.26 42.1487 15.7879 41.3333 18.0913C43.1316 20.0401 44.1104 22.6066 44.0667 25.2579C44.0667 35.4912 37.8333 37.7579 31.9 38.4246C32.5364 39.0696 33.0265 39.8441 33.3371 40.6953C33.6477 41.5465 33.7715 42.4546 33.7 43.3579C33.7 46.9247 33.6666 49.7912 33.6666 50.6913C33.6666 51.3913 34.1666 52.2246 35.5 51.9579C41.4964 49.9389 46.5802 45.8546 49.8438 40.434C53.1074 35.0134 54.3384 28.6094 53.317 22.3652C52.2957 16.1209 49.0885 10.4429 44.2679 6.34456C39.4474 2.24626 33.3272 -0.00551124 27 -0.00880432Z" fill="white"/>
</svg>
