<svg width="89" height="47" viewBox="0 0 89 47" fill="none" xmlns="http://www.w3.org/2000/svg">
    <path d="M20.096 32.32H29.056C29.5253 32.32 29.76 32.6187 29.76 33.216V44.48C29.76 45.6747 29.1627 46.272 27.968 46.272H12.48V40.192H18.432C19.1147 40.192 19.456 40.128 19.456 40C19.4987 39.8293 19.52 39.6373 19.52 39.424V33.024C19.52 32.6827 19.5627 32.4907 19.648 32.448C19.7333 32.3627 19.8827 32.32 20.096 32.32ZM10.24 46.272H3.52C2.06933 46.272 1.10933 46.0373 0.640001 45.568C0.213335 45.0987 1.43051e-06 44.1173 1.43051e-06 42.624V3.648C1.43051e-06 2.15467 0.213335 1.17333 0.640001 0.704002C1.10933 0.234667 2.06933 0 3.52 0H10.24V46.272ZM45.926 0V38.336C45.926 39.0187 46.0113 39.5093 46.182 39.808C46.3953 40.064 46.886 40.192 47.654 40.192H54.566V46.272H45.158C42.0433 46.272 39.6753 45.7387 38.054 44.672C36.4753 43.6053 35.686 41.7493 35.686 39.104V3.648C35.686 2.15467 35.8993 1.17333 36.326 0.704002C36.7953 0.234667 37.7553 0 39.206 0H45.926ZM56.486 14.272H63.142C64.422 14.272 65.3393 14.6347 65.894 15.36C66.4487 16.0427 66.726 17.1733 66.726 18.752V38.336C66.726 39.0187 66.8113 39.5093 66.982 39.808C67.1953 40.064 67.686 40.192 68.454 40.192H75.366V46.272H58.79C58.1073 46.272 57.5527 46.0373 57.126 45.568C56.6993 45.0987 56.486 44.48 56.486 43.712V14.272ZM77.926 0H84.646C86.0967 0 87.0567 0.234667 87.526 0.704002C87.9953 1.17333 88.23 2.15467 88.23 3.648V43.712C88.23 44.48 87.9953 45.0987 87.526 45.568C87.0993 46.0373 86.5447 46.272 85.862 46.272H77.926V0Z" fill="white"/>
</svg>
