<svg width="400" height="400" viewBox="0 0 400 400" fill="none" xmlns="http://www.w3.org/2000/svg">
    <path d="M200.707 9.29289C200.317 8.90237 199.683 8.90237 199.293 9.29289L192.929 15.6569C192.538 16.0474 192.538 16.6805 192.929 17.0711C193.319 17.4616 193.953 17.4616 194.343 17.0711L200 11.4142L205.657 17.0711C206.047 17.4616 206.681 17.4616 207.071 17.0711C207.462 16.6805 207.462 16.0474 207.071 15.6569L200.707 9.29289ZM199 10V390H201V10H199Z" fill="black"/>
    <path d="M390.707 200.707C391.098 200.317 391.098 199.683 390.707 199.293L384.343 192.929C383.953 192.538 383.319 192.538 382.929 192.929C382.538 193.319 382.538 193.953 382.929 194.343L388.586 200L382.929 205.657C382.538 206.047 382.538 206.681 382.929 207.071C383.319 207.462 383.953 207.462 384.343 207.071L390.707 200.707ZM390 199H10V201H390V199Z" fill="black"/>
    <path d="M196 360H204" stroke="black" stroke-width="2"/>
    <path d="M196 120H204" stroke="black" stroke-width="2"/>
    <path d="M196 280H204" stroke="black" stroke-width="2"/>
    <path d="M196 40H204" stroke="black" stroke-width="2"/>
    <path d="M40 196V204" stroke="black" stroke-width="2"/>
    <path d="M280 196V204" stroke="black" stroke-width="2"/>
    <path d="M120 196V204" stroke="black" stroke-width="2"/>
    <path d="M360 196V204" stroke="black" stroke-width="2"/>
    <path d="M216.336 16.384L216.864 18.4H217.104L217.56 16.384L219.696 9.4H223.128L218.952 20.8C218.6 21.744 218.264 22.592 217.944 23.344C217.64 24.096 217.304 24.736 216.936 25.264C216.568 25.792 216.152 26.192 215.688 26.464C215.24 26.752 214.704 26.896 214.08 26.896C213.664 26.896 213.264 26.856 212.88 26.776C212.512 26.712 212.192 26.608 211.92 26.464L212.616 23.872C212.856 23.952 213.104 23.992 213.36 23.992C213.584 23.992 213.8 23.968 214.008 23.92C214.216 23.872 214.408 23.776 214.584 23.632C214.76 23.504 214.92 23.312 215.064 23.056C215.224 22.816 215.36 22.488 215.472 22.072L209.712 9.4H213.768L216.336 16.384Z" fill="black"/>
    <path d="M211.484 43.74C211.717 43.824 211.965 43.8893 212.226 43.936C212.497 43.9827 212.837 44.006 213.248 44.006C213.948 44.006 214.522 43.838 214.97 43.502C215.418 43.1567 215.642 42.6527 215.642 41.99C215.642 41.346 215.413 40.8653 214.956 40.548C214.508 40.2213 213.883 40.058 213.08 40.058L211.806 40.114V35.2H216.664V36.432H213.038V38.966L213.696 38.938C214.2 38.938 214.653 39.008 215.054 39.148C215.455 39.288 215.796 39.484 216.076 39.736C216.365 39.988 216.585 40.3007 216.734 40.674C216.893 41.038 216.972 41.4533 216.972 41.92C216.972 42.452 216.874 42.9233 216.678 43.334C216.482 43.7353 216.211 44.076 215.866 44.356C215.53 44.6267 215.133 44.832 214.676 44.972C214.219 45.112 213.729 45.182 213.206 45.182C212.758 45.182 212.366 45.154 212.03 45.098C211.703 45.042 211.4 44.9627 211.12 44.86L211.484 43.74Z" fill="black"/>
    <path d="M357.328 188.74C357.561 188.824 357.808 188.889 358.07 188.936C358.34 188.983 358.681 189.006 359.092 189.006C359.792 189.006 360.366 188.838 360.814 188.502C361.262 188.157 361.486 187.653 361.486 186.99C361.486 186.346 361.257 185.865 360.8 185.548C360.352 185.221 359.726 185.058 358.924 185.058L357.65 185.114V180.2H362.508V181.432H358.882V183.966L359.54 183.938C360.044 183.938 360.496 184.008 360.898 184.148C361.299 184.288 361.64 184.484 361.92 184.736C362.209 184.988 362.428 185.301 362.578 185.674C362.736 186.038 362.816 186.453 362.816 186.92C362.816 187.452 362.718 187.923 362.522 188.334C362.326 188.735 362.055 189.076 361.71 189.356C361.374 189.627 360.977 189.832 360.52 189.972C360.062 190.112 359.572 190.182 359.05 190.182C358.602 190.182 358.21 190.154 357.874 190.098C357.547 190.042 357.244 189.963 356.964 189.86L357.328 188.74Z" fill="black"/>
    <path d="M276.961 182.496C276.961 182.972 276.863 183.462 276.667 183.966C276.471 184.461 276.215 184.955 275.897 185.45C275.589 185.945 275.239 186.435 274.847 186.92C274.465 187.405 274.077 187.872 273.685 188.32L272.929 188.922V188.978L273.937 188.824H277.199V190H271.025V189.496C271.249 189.281 271.515 189.02 271.823 188.712C272.141 188.395 272.467 188.049 272.803 187.676C273.149 187.293 273.485 186.892 273.811 186.472C274.147 186.052 274.446 185.627 274.707 185.198C274.969 184.759 275.179 184.33 275.337 183.91C275.505 183.49 275.589 183.093 275.589 182.72C275.589 182.281 275.454 181.917 275.183 181.628C274.913 181.339 274.497 181.194 273.937 181.194C273.545 181.194 273.167 181.269 272.803 181.418C272.439 181.567 272.127 181.749 271.865 181.964L271.291 181.026C271.674 180.718 272.108 180.475 272.593 180.298C273.079 180.111 273.615 180.018 274.203 180.018C275.071 180.018 275.748 180.247 276.233 180.704C276.719 181.152 276.961 181.749 276.961 182.496ZM279.254 189.342C279.254 189.099 279.342 188.903 279.52 188.754C279.697 188.595 279.912 188.516 280.164 188.516C280.49 188.516 280.756 188.628 280.962 188.852C281.167 189.067 281.27 189.37 281.27 189.762C281.27 190.126 281.214 190.439 281.102 190.7C280.999 190.971 280.864 191.199 280.696 191.386C280.528 191.582 280.341 191.736 280.136 191.848C279.94 191.96 279.744 192.044 279.548 192.1L279.156 191.456C279.51 191.335 279.776 191.139 279.954 190.868C280.14 190.607 280.229 190.341 280.22 190.07C279.968 190.145 279.744 190.117 279.548 189.986C279.352 189.855 279.254 189.641 279.254 189.342ZM283.056 188.74C283.29 188.824 283.537 188.889 283.798 188.936C284.069 188.983 284.41 189.006 284.82 189.006C285.52 189.006 286.094 188.838 286.542 188.502C286.99 188.157 287.214 187.653 287.214 186.99C287.214 186.346 286.986 185.865 286.528 185.548C286.08 185.221 285.455 185.058 284.652 185.058L283.378 185.114V180.2H288.236V181.432H284.61V183.966L285.268 183.938C285.772 183.938 286.225 184.008 286.626 184.148C287.028 184.288 287.368 184.484 287.648 184.736C287.938 184.988 288.157 185.301 288.306 185.674C288.465 186.038 288.544 186.453 288.544 186.92C288.544 187.452 288.446 187.923 288.25 188.334C288.054 188.735 287.784 189.076 287.438 189.356C287.102 189.627 286.706 189.832 286.248 189.972C285.791 190.112 285.301 190.182 284.778 190.182C284.33 190.182 283.938 190.154 283.602 190.098C283.276 190.042 282.972 189.963 282.692 189.86L283.056 188.74Z" fill="black"/>
    <path d="M108.756 185.352H112.48V186.556H108.756V185.352ZM120.216 182.496C120.216 182.972 120.118 183.462 119.922 183.966C119.726 184.461 119.469 184.955 119.152 185.45C118.844 185.945 118.494 186.435 118.102 186.92C117.719 187.405 117.332 187.872 116.94 188.32L116.184 188.922V188.978L117.192 188.824H120.454V190H114.28V189.496C114.504 189.281 114.77 189.02 115.078 188.712C115.395 188.395 115.722 188.049 116.058 187.676C116.403 187.293 116.739 186.892 117.066 186.472C117.402 186.052 117.701 185.627 117.962 185.198C118.223 184.759 118.433 184.33 118.592 183.91C118.76 183.49 118.844 183.093 118.844 182.72C118.844 182.281 118.709 181.917 118.438 181.628C118.167 181.339 117.752 181.194 117.192 181.194C116.8 181.194 116.422 181.269 116.058 181.418C115.694 181.567 115.381 181.749 115.12 181.964L114.546 181.026C114.929 180.718 115.363 180.475 115.848 180.298C116.333 180.111 116.87 180.018 117.458 180.018C118.326 180.018 119.003 180.247 119.488 180.704C119.973 181.152 120.216 181.749 120.216 182.496ZM122.509 189.342C122.509 189.099 122.597 188.903 122.775 188.754C122.952 188.595 123.167 188.516 123.419 188.516C123.745 188.516 124.011 188.628 124.217 188.852C124.422 189.067 124.525 189.37 124.525 189.762C124.525 190.126 124.469 190.439 124.357 190.7C124.254 190.971 124.119 191.199 123.951 191.386C123.783 191.582 123.596 191.736 123.391 191.848C123.195 191.96 122.999 192.044 122.803 192.1L122.411 191.456C122.765 191.335 123.031 191.139 123.209 190.868C123.395 190.607 123.484 190.341 123.475 190.07C123.223 190.145 122.999 190.117 122.803 189.986C122.607 189.855 122.509 189.641 122.509 189.342ZM126.311 188.74C126.544 188.824 126.792 188.889 127.053 188.936C127.324 188.983 127.664 189.006 128.075 189.006C128.775 189.006 129.349 188.838 129.797 188.502C130.245 188.157 130.469 187.653 130.469 186.99C130.469 186.346 130.24 185.865 129.783 185.548C129.335 185.221 128.71 185.058 127.907 185.058L126.633 185.114V180.2H131.491V181.432H127.865V183.966L128.523 183.938C129.027 183.938 129.48 184.008 129.881 184.148C130.282 184.288 130.623 184.484 130.903 184.736C131.192 184.988 131.412 185.301 131.561 185.674C131.72 186.038 131.799 186.453 131.799 186.92C131.799 187.452 131.701 187.923 131.505 188.334C131.309 188.735 131.038 189.076 130.693 189.356C130.357 189.627 129.96 189.832 129.503 189.972C129.046 190.112 128.556 190.182 128.033 190.182C127.585 190.182 127.193 190.154 126.857 190.098C126.53 190.042 126.227 189.963 125.947 189.86L126.311 188.74Z" fill="black"/>
    <path d="M34.4849 185.352H38.2089V186.556H34.4849V185.352ZM40.5826 188.74C40.816 188.824 41.0633 188.889 41.3246 188.936C41.5953 188.983 41.936 189.006 42.3466 189.006C43.0466 189.006 43.6206 188.838 44.0686 188.502C44.5166 188.157 44.7406 187.653 44.7406 186.99C44.7406 186.346 44.512 185.865 44.0546 185.548C43.6066 185.221 42.9813 185.058 42.1786 185.058L40.9046 185.114V180.2H45.7626V181.432H42.1366V183.966L42.7946 183.938C43.2986 183.938 43.7513 184.008 44.1526 184.148C44.554 184.288 44.8946 184.484 45.1746 184.736C45.464 184.988 45.6833 185.301 45.8326 185.674C45.9913 186.038 46.0706 186.453 46.0706 186.92C46.0706 187.452 45.9726 187.923 45.7766 188.334C45.5806 188.735 45.31 189.076 44.9646 189.356C44.6286 189.627 44.232 189.832 43.7746 189.972C43.3173 190.112 42.8273 190.182 42.3046 190.182C41.8566 190.182 41.4646 190.154 41.1286 190.098C40.802 190.042 40.4986 189.963 40.2186 189.86L40.5826 188.74Z" fill="black"/>
    <path d="M216.846 117.496C216.846 117.972 216.748 118.462 216.552 118.966C216.356 119.461 216.099 119.955 215.782 120.45C215.474 120.945 215.124 121.435 214.732 121.92C214.349 122.405 213.962 122.872 213.57 123.32L212.814 123.922V123.978L213.822 123.824H217.084V125H210.91V124.496C211.134 124.281 211.4 124.02 211.708 123.712C212.025 123.395 212.352 123.049 212.688 122.676C213.033 122.293 213.369 121.892 213.696 121.472C214.032 121.052 214.331 120.627 214.592 120.198C214.853 119.759 215.063 119.33 215.222 118.91C215.39 118.49 215.474 118.093 215.474 117.72C215.474 117.281 215.339 116.917 215.068 116.628C214.797 116.339 214.382 116.194 213.822 116.194C213.43 116.194 213.052 116.269 212.688 116.418C212.324 116.567 212.011 116.749 211.75 116.964L211.176 116.026C211.559 115.718 211.993 115.475 212.478 115.298C212.963 115.111 213.5 115.018 214.088 115.018C214.956 115.018 215.633 115.247 216.118 115.704C216.603 116.152 216.846 116.749 216.846 117.496ZM219.139 124.342C219.139 124.099 219.227 123.903 219.405 123.754C219.582 123.595 219.797 123.516 220.049 123.516C220.375 123.516 220.641 123.628 220.847 123.852C221.052 124.067 221.155 124.37 221.155 124.762C221.155 125.126 221.099 125.439 220.987 125.7C220.884 125.971 220.749 126.199 220.581 126.386C220.413 126.582 220.226 126.736 220.021 126.848C219.825 126.96 219.629 127.044 219.433 127.1L219.041 126.456C219.395 126.335 219.661 126.139 219.839 125.868C220.025 125.607 220.114 125.341 220.105 125.07C219.853 125.145 219.629 125.117 219.433 124.986C219.237 124.855 219.139 124.641 219.139 124.342ZM222.941 123.74C223.174 123.824 223.422 123.889 223.683 123.936C223.954 123.983 224.294 124.006 224.705 124.006C225.405 124.006 225.979 123.838 226.427 123.502C226.875 123.157 227.099 122.653 227.099 121.99C227.099 121.346 226.87 120.865 226.413 120.548C225.965 120.221 225.34 120.058 224.537 120.058L223.263 120.114V115.2H228.121V116.432H224.495V118.966L225.153 118.938C225.657 118.938 226.11 119.008 226.511 119.148C226.912 119.288 227.253 119.484 227.533 119.736C227.822 119.988 228.042 120.301 228.191 120.674C228.35 121.038 228.429 121.453 228.429 121.92C228.429 122.452 228.331 122.923 228.135 123.334C227.939 123.735 227.668 124.076 227.323 124.356C226.987 124.627 226.59 124.832 226.133 124.972C225.676 125.112 225.186 125.182 224.663 125.182C224.215 125.182 223.823 125.154 223.487 125.098C223.16 125.042 222.857 124.963 222.577 124.86L222.941 123.74Z" fill="black"/>
    <path d="M210.896 278.352H214.62V279.556H210.896V278.352ZM222.356 275.496C222.356 275.972 222.258 276.462 222.062 276.966C221.866 277.461 221.609 277.955 221.292 278.45C220.984 278.945 220.634 279.435 220.242 279.92C219.859 280.405 219.472 280.872 219.08 281.32L218.324 281.922V281.978L219.332 281.824H222.594V283H216.42V282.496C216.644 282.281 216.91 282.02 217.218 281.712C217.535 281.395 217.862 281.049 218.198 280.676C218.543 280.293 218.879 279.892 219.206 279.472C219.542 279.052 219.84 278.627 220.102 278.198C220.363 277.759 220.573 277.33 220.732 276.91C220.9 276.49 220.984 276.093 220.984 275.72C220.984 275.281 220.848 274.917 220.578 274.628C220.307 274.339 219.892 274.194 219.332 274.194C218.94 274.194 218.562 274.269 218.198 274.418C217.834 274.567 217.521 274.749 217.26 274.964L216.686 274.026C217.068 273.718 217.502 273.475 217.988 273.298C218.473 273.111 219.01 273.018 219.598 273.018C220.466 273.018 221.142 273.247 221.628 273.704C222.113 274.152 222.356 274.749 222.356 275.496ZM224.648 282.342C224.648 282.099 224.737 281.903 224.914 281.754C225.092 281.595 225.306 281.516 225.558 281.516C225.885 281.516 226.151 281.628 226.356 281.852C226.562 282.067 226.664 282.37 226.664 282.762C226.664 283.126 226.608 283.439 226.496 283.7C226.394 283.971 226.258 284.199 226.09 284.386C225.922 284.582 225.736 284.736 225.53 284.848C225.334 284.96 225.138 285.044 224.942 285.1L224.55 284.456C224.905 284.335 225.171 284.139 225.348 283.868C225.535 283.607 225.624 283.341 225.614 283.07C225.362 283.145 225.138 283.117 224.942 282.986C224.746 282.855 224.648 282.641 224.648 282.342ZM228.451 281.74C228.684 281.824 228.931 281.889 229.193 281.936C229.463 281.983 229.804 282.006 230.215 282.006C230.915 282.006 231.489 281.838 231.937 281.502C232.385 281.157 232.609 280.653 232.609 279.99C232.609 279.346 232.38 278.865 231.923 278.548C231.475 278.221 230.849 278.058 230.047 278.058L228.773 278.114V273.2H233.631V274.432H230.005V276.966L230.663 276.938C231.167 276.938 231.619 277.008 232.021 277.148C232.422 277.288 232.763 277.484 233.043 277.736C233.332 277.988 233.551 278.301 233.701 278.674C233.859 279.038 233.939 279.453 233.939 279.92C233.939 280.452 233.841 280.923 233.645 281.334C233.449 281.735 233.178 282.076 232.833 282.356C232.497 282.627 232.1 282.832 231.643 282.972C231.185 283.112 230.695 283.182 230.173 283.182C229.725 283.182 229.333 283.154 228.997 283.098C228.67 283.042 228.367 282.963 228.087 282.86L228.451 281.74Z" fill="black"/>
    <path d="M210.896 358.352H214.62V359.556H210.896V358.352ZM216.994 361.74C217.227 361.824 217.474 361.889 217.736 361.936C218.006 361.983 218.347 362.006 218.758 362.006C219.458 362.006 220.032 361.838 220.48 361.502C220.928 361.157 221.152 360.653 221.152 359.99C221.152 359.346 220.923 358.865 220.466 358.548C220.018 358.221 219.392 358.058 218.59 358.058L217.316 358.114V353.2H222.174V354.432H218.548V356.966L219.206 356.938C219.71 356.938 220.162 357.008 220.564 357.148C220.965 357.288 221.306 357.484 221.586 357.736C221.875 357.988 222.094 358.301 222.244 358.674C222.402 359.038 222.482 359.453 222.482 359.92C222.482 360.452 222.384 360.923 222.188 361.334C221.992 361.735 221.721 362.076 221.376 362.356C221.04 362.627 220.643 362.832 220.186 362.972C219.728 363.112 219.238 363.182 218.716 363.182C218.268 363.182 217.876 363.154 217.54 363.098C217.213 363.042 216.91 362.963 216.63 362.86L216.994 361.74Z" fill="black"/>
    <path d="M380.608 219.544L376.48 213.4H380.56L382.264 215.848L382.24 215.824L383.224 218.056L384.184 215.824L384.16 215.848L385.984 213.4H389.68L385.528 219.448L389.944 226H385.96L383.92 223.168L383.944 223.192L382.936 220.984L381.88 223.192L381.904 223.168L379.84 226H376.144L380.608 219.544Z" fill="black"/>
</svg>
