<svg width="256" height="256" viewBox="0 0 256 256" fill="none" xmlns="http://www.w3.org/2000/svg">
<rect width="256" height="256" fill="white"/>
<mask id="path-1-inside-1_141_110" fill="white">
<path fill-rule="evenodd" clip-rule="evenodd" d="M75.0006 129C75.0002 128.916 75 128.832 75 128.748C75 99.6159 98.7289 76 128 76V129H75.0006Z"/>
</mask>
<path fill-rule="evenodd" clip-rule="evenodd" d="M75.0006 129C75.0002 128.916 75 128.832 75 128.748C75 99.6159 98.7289 76 128 76V129H75.0006Z" fill="#5792FF"/>
<path d="M75.0006 129L74.0006 129.005L74.0053 130H75.0006V129ZM128 76H129V75H128V76ZM128 129V130H129V129H128ZM76.0006 128.995C76.0002 128.913 76 128.83 76 128.748H74C74 128.833 74.0002 128.919 74.0006 129.005L76.0006 128.995ZM76 128.748C76 100.173 99.2767 77 128 77V75C98.1811 75 74 99.0591 74 128.748H76ZM127 76V129H129V76H127ZM128 128H75.0006V130H128V128Z" fill="#0055F3" mask="url(#path-1-inside-1_141_110)"/>
<rect x="128.5" y="232.5" width="104" height="52" transform="rotate(-90 128.5 232.5)" fill="#5792FF" stroke="#0055F3"/>
<path d="M180.5 128.5L128 24L128 128.5L180.5 128.5Z" fill="#5792FF" stroke="#0055F3"/>
<path d="M129.053 3.60179C128.662 3.21127 128.029 3.21127 127.638 3.60179L121.274 9.96575C120.884 10.3563 120.884 10.9894 121.274 11.38C121.665 11.7705 122.298 11.7705 122.689 11.38L128.346 5.72311L134.002 11.38C134.393 11.7705 135.026 11.7705 135.417 11.38C135.807 10.9894 135.807 10.3563 135.417 9.96575L129.053 3.60179ZM127.346 4.3089V253H129.346V4.3089H127.346Z" fill="black"/>
<path d="M253.398 129.362C253.789 128.971 253.789 128.338 253.398 127.947L247.034 121.583C246.644 121.193 246.011 121.193 245.62 121.583C245.23 121.974 245.23 122.607 245.62 122.998L251.277 128.654L245.62 134.311C245.23 134.702 245.23 135.335 245.62 135.726C246.011 136.116 246.644 136.116 247.034 135.726L253.398 129.362ZM252.691 127.654H4.00002V129.654H252.691V127.654Z" fill="black"/>
<path d="M125.728 233.366H130.963" stroke="black" stroke-width="2"/>
<path d="M125.728 76.2984H130.963" stroke="black" stroke-width="2"/>
<path d="M125.728 181.01H130.963" stroke="black" stroke-width="2"/>
<path d="M125.728 23.9424H130.963" stroke="black" stroke-width="2"/>
<path d="M23.6335 126.037V131.272" stroke="black" stroke-width="2"/>
<path d="M180.702 126.037V131.272" stroke="black" stroke-width="2"/>
<path d="M75.9895 126.037V131.272" stroke="black" stroke-width="2"/>
<path d="M233.058 126.037V131.272" stroke="black" stroke-width="2"/>
<path d="M141.226 9.384L141.754 11.4H141.994L142.45 9.384L144.586 2.4H148.018L143.842 13.8C143.49 14.744 143.154 15.592 142.834 16.344C142.53 17.096 142.194 17.736 141.826 18.264C141.458 18.792 141.042 19.192 140.578 19.464C140.13 19.752 139.594 19.896 138.97 19.896C138.554 19.896 138.154 19.856 137.77 19.776C137.402 19.712 137.082 19.608 136.81 19.464L137.506 16.872C137.746 16.952 137.994 16.992 138.25 16.992C138.474 16.992 138.69 16.968 138.898 16.92C139.106 16.872 139.298 16.776 139.474 16.632C139.65 16.504 139.81 16.312 139.954 16.056C140.114 15.816 140.25 15.488 140.362 15.072L134.602 2.4H138.658L141.226 9.384Z" fill="black"/>
<path d="M135.869 20.0472C136.023 20.0178 136.192 19.9922 136.375 19.9702C136.566 19.9482 136.756 19.9298 136.947 19.9152C137.138 19.9005 137.328 19.8895 137.519 19.8822C137.71 19.8748 137.889 19.8712 138.058 19.8712C138.425 19.8712 138.777 19.9078 139.114 19.9812C139.459 20.0545 139.759 20.1755 140.016 20.3442C140.28 20.5128 140.489 20.7328 140.643 21.0042C140.804 21.2755 140.885 21.6092 140.885 22.0052C140.885 22.3132 140.837 22.5918 140.742 22.8412C140.647 23.0905 140.515 23.3105 140.346 23.5012C140.177 23.6918 139.976 23.8532 139.741 23.9852C139.514 24.1098 139.264 24.2052 138.993 24.2712L139.565 24.6562L141.633 27.6702H140.368L138.08 24.4252L136.969 24.2712V27.6702H135.869V20.0472ZM138.091 20.8172C137.988 20.8172 137.882 20.8172 137.772 20.8172C137.669 20.8172 137.567 20.8208 137.464 20.8282C137.361 20.8355 137.266 20.8428 137.178 20.8502C137.09 20.8575 137.02 20.8685 136.969 20.8832V23.5452H137.871C138.135 23.5452 138.377 23.5195 138.597 23.4682C138.824 23.4095 139.019 23.3252 139.18 23.2152C139.349 23.0978 139.481 22.9475 139.576 22.7642C139.671 22.5808 139.719 22.3572 139.719 22.0932C139.719 21.6972 139.58 21.3855 139.301 21.1582C139.022 20.9308 138.619 20.8172 138.091 20.8172Z" fill="black"/>
<path d="M230.443 114.942C230.597 114.913 230.766 114.887 230.949 114.865C231.14 114.843 231.331 114.825 231.521 114.81C231.712 114.796 231.903 114.785 232.093 114.777C232.284 114.77 232.464 114.766 232.632 114.766C232.999 114.766 233.351 114.803 233.688 114.876C234.033 114.95 234.334 115.071 234.59 115.239C234.854 115.408 235.063 115.628 235.217 115.899C235.379 116.171 235.459 116.504 235.459 116.9C235.459 117.208 235.412 117.487 235.316 117.736C235.221 117.986 235.089 118.206 234.92 118.396C234.752 118.587 234.55 118.748 234.315 118.88C234.088 119.005 233.839 119.1 233.567 119.166L234.139 119.551L236.207 122.565H234.942L232.654 119.32L231.543 119.166V122.565H230.443V114.942ZM232.665 115.712C232.563 115.712 232.456 115.712 232.346 115.712C232.244 115.712 232.141 115.716 232.038 115.723C231.936 115.731 231.84 115.738 231.752 115.745C231.664 115.753 231.595 115.764 231.543 115.778V118.44H232.445C232.709 118.44 232.951 118.415 233.171 118.363C233.399 118.305 233.593 118.22 233.754 118.11C233.923 117.993 234.055 117.843 234.15 117.659C234.246 117.476 234.293 117.252 234.293 116.988C234.293 116.592 234.154 116.281 233.875 116.053C233.597 115.826 233.193 115.712 232.665 115.712Z" fill="black"/>
<path d="M172.939 115.377C173.093 115.348 173.262 115.322 173.445 115.3C173.636 115.278 173.827 115.26 174.017 115.245C174.208 115.23 174.399 115.219 174.589 115.212C174.78 115.205 174.96 115.201 175.128 115.201C175.495 115.201 175.847 115.238 176.184 115.311C176.529 115.384 176.83 115.505 177.086 115.674C177.35 115.843 177.559 116.063 177.713 116.334C177.875 116.605 177.955 116.939 177.955 117.335C177.955 117.643 177.908 117.922 177.812 118.171C177.717 118.42 177.585 118.64 177.416 118.831C177.248 119.022 177.046 119.183 176.811 119.315C176.584 119.44 176.335 119.535 176.063 119.601L176.635 119.986L178.703 123H177.438L175.15 119.755L174.039 119.601V123H172.939V115.377ZM175.161 116.147C175.059 116.147 174.952 116.147 174.842 116.147C174.74 116.147 174.637 116.151 174.534 116.158C174.432 116.165 174.336 116.173 174.248 116.18C174.16 116.187 174.091 116.198 174.039 116.213V118.875H174.941C175.205 118.875 175.447 118.849 175.667 118.798C175.895 118.739 176.089 118.655 176.25 118.545C176.419 118.428 176.551 118.277 176.646 118.094C176.742 117.911 176.789 117.687 176.789 117.423C176.789 117.027 176.65 116.715 176.371 116.488C176.093 116.261 175.689 116.147 175.161 116.147ZM183.107 115.168L183.921 115.542L179.532 124.54L178.729 124.144L183.107 115.168ZM188.887 117.104C188.887 117.478 188.81 117.863 188.656 118.259C188.502 118.648 188.301 119.036 188.051 119.425C187.809 119.814 187.534 120.199 187.226 120.58C186.926 120.961 186.621 121.328 186.313 121.68L185.719 122.153V122.197L186.511 122.076H189.074V123H184.223V122.604C184.399 122.435 184.608 122.23 184.85 121.988C185.1 121.739 185.356 121.467 185.62 121.174C185.892 120.873 186.156 120.558 186.412 120.228C186.676 119.898 186.911 119.564 187.116 119.227C187.322 118.882 187.487 118.545 187.611 118.215C187.743 117.885 187.809 117.573 187.809 117.28C187.809 116.935 187.703 116.649 187.49 116.422C187.278 116.195 186.951 116.081 186.511 116.081C186.203 116.081 185.906 116.14 185.62 116.257C185.334 116.374 185.089 116.517 184.883 116.686L184.432 115.949C184.733 115.707 185.074 115.516 185.455 115.377C185.837 115.23 186.258 115.157 186.72 115.157C187.402 115.157 187.934 115.337 188.315 115.696C188.697 116.048 188.887 116.517 188.887 117.104Z" fill="black"/>
<path d="M65.4999 119.348H68.4259V120.294H65.4999V119.348ZM70.104 115.377C70.258 115.348 70.4267 115.322 70.61 115.3C70.8007 115.278 70.9913 115.26 71.182 115.245C71.3727 115.23 71.5633 115.219 71.754 115.212C71.9447 115.205 72.1243 115.201 72.293 115.201C72.6597 115.201 73.0117 115.238 73.349 115.311C73.6937 115.384 73.9943 115.505 74.251 115.674C74.515 115.843 74.724 116.063 74.878 116.334C75.0393 116.605 75.12 116.939 75.12 117.335C75.12 117.643 75.0723 117.922 74.977 118.171C74.8817 118.42 74.7497 118.64 74.581 118.831C74.4123 119.022 74.2107 119.183 73.976 119.315C73.7487 119.44 73.4993 119.535 73.228 119.601L73.8 119.986L75.868 123H74.603L72.315 119.755L71.204 119.601V123H70.104V115.377ZM72.326 116.147C72.2233 116.147 72.117 116.147 72.007 116.147C71.9043 116.147 71.8017 116.151 71.699 116.158C71.5963 116.165 71.501 116.173 71.413 116.18C71.325 116.187 71.2553 116.198 71.204 116.213V118.875H72.106C72.37 118.875 72.612 118.849 72.832 118.798C73.0593 118.739 73.2537 118.655 73.415 118.545C73.5837 118.428 73.7157 118.277 73.811 118.094C73.9063 117.911 73.954 117.687 73.954 117.423C73.954 117.027 73.8147 116.715 73.536 116.488C73.2573 116.261 72.854 116.147 72.326 116.147ZM80.2715 115.168L81.0855 115.542L76.6965 124.54L75.8935 124.144L80.2715 115.168ZM86.0519 117.104C86.0519 117.478 85.9749 117.863 85.8209 118.259C85.6669 118.648 85.4652 119.036 85.2159 119.425C84.9739 119.814 84.6989 120.199 84.3909 120.58C84.0902 120.961 83.7859 121.328 83.4779 121.68L82.8839 122.153V122.197L83.6759 122.076H86.2389V123H81.3879V122.604C81.5639 122.435 81.7729 122.23 82.0149 121.988C82.2642 121.739 82.5209 121.467 82.7849 121.174C83.0562 120.873 83.3202 120.558 83.5769 120.228C83.8409 119.898 84.0755 119.564 84.2809 119.227C84.4862 118.882 84.6512 118.545 84.7759 118.215C84.9079 117.885 84.9739 117.573 84.9739 117.28C84.9739 116.935 84.8675 116.649 84.6549 116.422C84.4422 116.195 84.1159 116.081 83.6759 116.081C83.3679 116.081 83.0709 116.14 82.7849 116.257C82.4989 116.374 82.2532 116.517 82.0479 116.686L81.5969 115.949C81.8975 115.707 82.2385 115.516 82.6199 115.377C83.0012 115.23 83.4229 115.157 83.8849 115.157C84.5669 115.157 85.0985 115.337 85.4799 115.696C85.8612 116.048 86.0519 116.517 86.0519 117.104Z" fill="black"/>
<path d="M18.9069 118.913H21.8329V119.859H18.9069V118.913ZM23.511 114.942C23.665 114.913 23.8337 114.887 24.017 114.865C24.2077 114.843 24.3983 114.825 24.589 114.81C24.7797 114.796 24.9703 114.785 25.161 114.777C25.3517 114.77 25.5313 114.766 25.7 114.766C26.0667 114.766 26.4187 114.803 26.756 114.876C27.1007 114.95 27.4013 115.071 27.658 115.239C27.922 115.408 28.131 115.628 28.285 115.899C28.4463 116.171 28.527 116.504 28.527 116.9C28.527 117.208 28.4793 117.487 28.384 117.736C28.2887 117.986 28.1567 118.206 27.988 118.396C27.8193 118.587 27.6177 118.748 27.383 118.88C27.1557 119.005 26.9063 119.1 26.635 119.166L27.207 119.551L29.275 122.565H28.01L25.722 119.32L24.611 119.166V122.565H23.511V114.942ZM25.733 115.712C25.6303 115.712 25.524 115.712 25.414 115.712C25.3113 115.712 25.2087 115.716 25.106 115.723C25.0033 115.731 24.908 115.738 24.82 115.745C24.732 115.753 24.6623 115.764 24.611 115.778V118.44H25.513C25.777 118.44 26.019 118.415 26.239 118.363C26.4663 118.305 26.6607 118.22 26.822 118.11C26.9907 117.993 27.1227 117.843 27.218 117.659C27.3133 117.476 27.361 117.252 27.361 116.988C27.361 116.592 27.2217 116.281 26.943 116.053C26.6643 115.826 26.261 115.712 25.733 115.712Z" fill="black"/>
<path d="M135.869 72.4032C136.023 72.3739 136.192 72.3482 136.375 72.3262C136.566 72.3042 136.756 72.2859 136.947 72.2712C137.138 72.2565 137.328 72.2455 137.519 72.2382C137.71 72.2309 137.889 72.2272 138.058 72.2272C138.425 72.2272 138.777 72.2639 139.114 72.3372C139.459 72.4105 139.759 72.5315 140.016 72.7002C140.28 72.8689 140.489 73.0889 140.643 73.3602C140.804 73.6315 140.885 73.9652 140.885 74.3612C140.885 74.6692 140.837 74.9479 140.742 75.1972C140.647 75.4465 140.515 75.6665 140.346 75.8572C140.177 76.0479 139.976 76.2092 139.741 76.3412C139.514 76.4659 139.264 76.5612 138.993 76.6272L139.565 77.0122L141.633 80.0262H140.368L138.08 76.7812L136.969 76.6272V80.0262H135.869V72.4032ZM138.091 73.1732C137.988 73.1732 137.882 73.1732 137.772 73.1732C137.669 73.1732 137.567 73.1769 137.464 73.1842C137.361 73.1915 137.266 73.1989 137.178 73.2062C137.09 73.2135 137.02 73.2245 136.969 73.2392V75.9012H137.871C138.135 75.9012 138.377 75.8755 138.597 75.8242C138.824 75.7655 139.019 75.6812 139.18 75.5712C139.349 75.4539 139.481 75.3035 139.576 75.1202C139.671 74.9369 139.719 74.7132 139.719 74.4492C139.719 74.0532 139.58 73.7415 139.301 73.5142C139.022 73.2869 138.619 73.1732 138.091 73.1732ZM146.037 72.1942L146.851 72.5682L142.462 81.5662L141.659 81.1702L146.037 72.1942ZM151.817 74.1302C151.817 74.5042 151.74 74.8892 151.586 75.2852C151.432 75.6739 151.23 76.0625 150.981 76.4512C150.739 76.8399 150.464 77.2249 150.156 77.6062C149.855 77.9875 149.551 78.3542 149.243 78.7062L148.649 79.1792V79.2232L149.441 79.1022H152.004V80.0262H147.153V79.6302C147.329 79.4615 147.538 79.2562 147.78 79.0142C148.029 78.7649 148.286 78.4935 148.55 78.2002C148.821 77.8995 149.085 77.5842 149.342 77.2542C149.606 76.9242 149.841 76.5905 150.046 76.2532C150.251 75.9085 150.416 75.5712 150.541 75.2412C150.673 74.9112 150.739 74.5995 150.739 74.3062C150.739 73.9615 150.633 73.6755 150.42 73.4482C150.207 73.2209 149.881 73.1072 149.441 73.1072C149.133 73.1072 148.836 73.1659 148.55 73.2832C148.264 73.4005 148.018 73.5435 147.813 73.7122L147.362 72.9752C147.663 72.7332 148.004 72.5425 148.385 72.4032C148.766 72.2565 149.188 72.1832 149.65 72.1832C150.332 72.1832 150.864 72.3629 151.245 72.7222C151.626 73.0742 151.817 73.5435 151.817 74.1302Z" fill="black"/>
<path d="M135.594 179.777H138.52V180.723H135.594V179.777ZM140.198 175.806C140.352 175.777 140.521 175.751 140.704 175.729C140.895 175.707 141.086 175.689 141.276 175.674C141.467 175.66 141.658 175.649 141.848 175.641C142.039 175.634 142.219 175.63 142.387 175.63C142.754 175.63 143.106 175.667 143.443 175.74C143.788 175.814 144.089 175.935 144.345 176.103C144.609 176.272 144.818 176.492 144.972 176.763C145.134 177.035 145.214 177.368 145.214 177.764C145.214 178.072 145.167 178.351 145.071 178.6C144.976 178.85 144.844 179.07 144.675 179.26C144.507 179.451 144.305 179.612 144.07 179.744C143.843 179.869 143.594 179.964 143.322 180.03L143.894 180.415L145.962 183.429H144.697L142.409 180.184L141.298 180.03V183.429H140.198V175.806ZM142.42 176.576C142.318 176.576 142.211 176.576 142.101 176.576C141.999 176.576 141.896 176.58 141.793 176.587C141.691 176.595 141.595 176.602 141.507 176.609C141.419 176.617 141.35 176.628 141.298 176.642V179.304H142.2C142.464 179.304 142.706 179.279 142.926 179.227C143.154 179.169 143.348 179.084 143.509 178.974C143.678 178.857 143.81 178.707 143.905 178.523C144.001 178.34 144.048 178.116 144.048 177.852C144.048 177.456 143.909 177.145 143.63 176.917C143.352 176.69 142.948 176.576 142.42 176.576ZM150.366 175.597L151.18 175.971L146.791 184.969L145.988 184.573L150.366 175.597ZM156.146 177.533C156.146 177.907 156.069 178.292 155.915 178.688C155.761 179.077 155.559 179.466 155.31 179.854C155.068 180.243 154.793 180.628 154.485 181.009C154.184 181.391 153.88 181.757 153.572 182.109L152.978 182.582V182.626L153.77 182.505H156.333V183.429H151.482V183.033C151.658 182.865 151.867 182.659 152.109 182.417C152.358 182.168 152.615 181.897 152.879 181.603C153.15 181.303 153.414 180.987 153.671 180.657C153.935 180.327 154.17 179.994 154.375 179.656C154.58 179.312 154.745 178.974 154.87 178.644C155.002 178.314 155.068 178.003 155.068 177.709C155.068 177.365 154.962 177.079 154.749 176.851C154.536 176.624 154.21 176.51 153.77 176.51C153.462 176.51 153.165 176.569 152.879 176.686C152.593 176.804 152.347 176.947 152.142 177.115L151.691 176.378C151.992 176.136 152.333 175.946 152.714 175.806C153.095 175.66 153.517 175.586 153.979 175.586C154.661 175.586 155.193 175.766 155.574 176.125C155.955 176.477 156.146 176.947 156.146 177.533Z" fill="black"/>
<path d="M135.594 232.133H138.52V233.079H135.594V232.133ZM140.198 228.162C140.352 228.133 140.521 228.107 140.704 228.085C140.895 228.063 141.086 228.045 141.276 228.03C141.467 228.016 141.658 228.005 141.848 227.997C142.039 227.99 142.219 227.986 142.387 227.986C142.754 227.986 143.106 228.023 143.443 228.096C143.788 228.17 144.089 228.291 144.345 228.459C144.609 228.628 144.818 228.848 144.972 229.119C145.134 229.391 145.214 229.724 145.214 230.12C145.214 230.428 145.167 230.707 145.071 230.956C144.976 231.206 144.844 231.426 144.675 231.616C144.507 231.807 144.305 231.968 144.07 232.1C143.843 232.225 143.594 232.32 143.322 232.386L143.894 232.771L145.962 235.785H144.697L142.409 232.54L141.298 232.386V235.785H140.198V228.162ZM142.42 228.932C142.318 228.932 142.211 228.932 142.101 228.932C141.999 228.932 141.896 228.936 141.793 228.943C141.691 228.951 141.595 228.958 141.507 228.965C141.419 228.973 141.35 228.984 141.298 228.998V231.66H142.2C142.464 231.66 142.706 231.635 142.926 231.583C143.154 231.525 143.348 231.44 143.509 231.33C143.678 231.213 143.81 231.063 143.905 230.879C144.001 230.696 144.048 230.472 144.048 230.208C144.048 229.812 143.909 229.501 143.63 229.273C143.352 229.046 142.948 228.932 142.42 228.932Z" fill="black"/>
<path d="M228.608 142.544L224.48 136.4H228.56L230.264 138.848L230.24 138.824L231.224 141.056L232.184 138.824L232.16 138.848L233.984 136.4H237.68L233.528 142.448L237.944 149H233.96L231.92 146.168L231.944 146.192L230.936 143.984L229.88 146.192L229.904 146.168L227.84 149H224.144L228.608 142.544Z" fill="black"/>
</svg>
