<svg width="200" height="200" viewBox="0 0 200 200" fill="none" xmlns="http://www.w3.org/2000/svg">
    <g clip-path="url(#clip0_40_122)">
        <circle cx="100" cy="100" r="97.5" stroke="black" stroke-width="5"/>
        <path d="M94.5622 19.596H96.3622V14.976L96.5662 14.148L95.9422 14.868L94.7662 15.636L94.0942 14.652L97.0342 12.456H97.9822V19.596H99.7462V21H94.5622V19.596ZM106.548 14.676C106.548 15.076 106.468 15.48 106.308 15.888C106.148 16.296 105.944 16.696 105.696 17.088C105.456 17.472 105.184 17.848 104.88 18.216C104.584 18.584 104.292 18.924 104.004 19.236L103.32 19.728V19.788L104.244 19.596H106.728V21H101.244V20.16C101.452 19.952 101.684 19.72 101.94 19.464C102.204 19.2 102.468 18.92 102.732 18.624C102.996 18.328 103.252 18.024 103.5 17.712C103.756 17.392 103.98 17.076 104.172 16.764C104.364 16.452 104.52 16.148 104.64 15.852C104.76 15.548 104.82 15.268 104.82 15.012C104.82 14.708 104.728 14.452 104.544 14.244C104.36 14.028 104.044 13.92 103.596 13.92C103.316 13.92 103.032 13.98 102.744 14.1C102.456 14.212 102.208 14.36 102 14.544L101.304 13.344C101.648 13.088 102.032 12.872 102.456 12.696C102.88 12.52 103.388 12.432 103.98 12.432C104.348 12.432 104.688 12.48 105 12.576C105.32 12.672 105.592 12.812 105.816 12.996C106.048 13.18 106.228 13.416 106.356 13.704C106.484 13.984 106.548 14.308 106.548 14.676Z" fill="black"/>
        <path d="M103.567 185.396C103.567 185.772 103.495 186.128 103.351 186.464C103.207 186.792 103.003 187.084 102.739 187.34C102.483 187.596 102.171 187.8 101.803 187.952C101.443 188.096 101.039 188.168 100.591 188.168C100.143 188.168 99.7311 188.1 99.3551 187.964C98.9791 187.828 98.6511 187.628 98.3711 187.364C98.0911 187.092 97.8711 186.76 97.7111 186.368C97.5591 185.968 97.4831 185.504 97.4831 184.976C97.4831 184.2 97.6071 183.492 97.8551 182.852C98.1031 182.204 98.4351 181.644 98.8511 181.172C99.2751 180.692 99.7671 180.304 100.327 180.008C100.887 179.712 101.483 179.52 102.115 179.432L102.463 180.74C102.031 180.804 101.631 180.928 101.263 181.112C100.903 181.288 100.579 181.504 100.291 181.76C100.011 182.008 99.7751 182.288 99.5831 182.6C99.3911 182.904 99.2551 183.216 99.1751 183.536C99.3591 183.336 99.5831 183.164 99.8471 183.02C100.111 182.868 100.455 182.792 100.879 182.792C101.279 182.792 101.643 182.852 101.971 182.972C102.307 183.092 102.591 183.264 102.823 183.488C103.063 183.712 103.247 183.984 103.375 184.304C103.503 184.624 103.567 184.988 103.567 185.396ZM101.935 185.468C101.935 184.62 101.459 184.196 100.507 184.196C100.155 184.196 99.8591 184.268 99.6191 184.412C99.3791 184.548 99.2111 184.712 99.1151 184.904C99.0991 184.992 99.0911 185.06 99.0911 185.108C99.0911 185.148 99.0911 185.196 99.0911 185.252C99.0911 185.436 99.1191 185.62 99.1751 185.804C99.2391 185.98 99.3311 186.14 99.4511 186.284C99.5711 186.428 99.7231 186.544 99.9071 186.632C100.091 186.72 100.307 186.764 100.555 186.764C100.755 186.764 100.939 186.732 101.107 186.668C101.275 186.596 101.419 186.5 101.539 186.38C101.667 186.26 101.763 186.124 101.827 185.972C101.899 185.812 101.935 185.644 101.935 185.468Z" fill="black"/>
        <path d="M13.3631 99.24C13.3631 98.832 13.4311 98.46 13.5671 98.124C13.7031 97.78 13.8991 97.484 14.1551 97.236C14.4111 96.98 14.7231 96.784 15.0911 96.648C15.4591 96.504 15.8791 96.432 16.3511 96.432C17.3431 96.432 18.1191 96.708 18.6791 97.26C19.2391 97.804 19.5191 98.588 19.5191 99.612C19.5191 100.54 19.3911 101.344 19.1351 102.024C18.8791 102.704 18.5351 103.272 18.1031 103.728C17.6711 104.176 17.1711 104.52 16.6031 104.76C16.0431 104.992 15.4511 105.128 14.8271 105.168L14.4671 103.884C14.9471 103.828 15.3711 103.724 15.7391 103.572C16.1151 103.42 16.4351 103.228 16.6991 102.996C16.9711 102.764 17.1911 102.504 17.3591 102.216C17.5351 101.92 17.6591 101.608 17.7311 101.28C17.5231 101.488 17.2951 101.632 17.0471 101.712C16.8071 101.792 16.4871 101.832 16.0871 101.832C15.7511 101.832 15.4191 101.78 15.0911 101.676C14.7711 101.572 14.4831 101.412 14.2271 101.196C13.9711 100.98 13.7631 100.712 13.6031 100.392C13.4431 100.064 13.3631 99.68 13.3631 99.24ZM14.9951 99.156C14.9951 99.596 15.1351 99.928 15.4151 100.152C15.7031 100.376 16.0551 100.488 16.4711 100.488C16.8311 100.488 17.1231 100.436 17.3471 100.332C17.5711 100.22 17.7471 100.092 17.8751 99.948C17.8831 99.86 17.8911 99.78 17.8991 99.708C17.9071 99.636 17.9111 99.568 17.9111 99.504C17.9111 99.296 17.8791 99.088 17.8151 98.88C17.7591 98.672 17.6671 98.488 17.5391 98.328C17.4111 98.16 17.2471 98.028 17.0471 97.932C16.8471 97.828 16.6111 97.776 16.3391 97.776C15.9151 97.776 15.5831 97.9 15.3431 98.148C15.1111 98.388 14.9951 98.724 14.9951 99.156Z" fill="black"/>
        <path d="M183.967 103.764C184.239 103.764 184.475 103.732 184.675 103.668C184.883 103.596 185.055 103.5 185.191 103.38C185.327 103.26 185.431 103.124 185.503 102.972C185.575 102.812 185.611 102.648 185.611 102.48C185.611 102.048 185.463 101.728 185.167 101.52C184.879 101.312 184.411 101.208 183.763 101.208H182.815V100.32L184.363 98.424L185.119 97.872L184.087 98.004H181.915V96.6H186.907V97.5L185.107 99.708L184.519 100.032V100.092L185.071 100.02C185.367 100.044 185.647 100.112 185.911 100.224C186.183 100.336 186.419 100.488 186.619 100.68C186.827 100.872 186.991 101.112 187.111 101.4C187.231 101.68 187.291 102.008 187.291 102.384C187.291 102.856 187.203 103.268 187.027 103.62C186.859 103.964 186.627 104.252 186.331 104.484C186.035 104.716 185.687 104.888 185.287 105C184.887 105.112 184.455 105.168 183.991 105.168C183.799 105.168 183.603 105.16 183.403 105.144C183.203 105.128 183.007 105.1 182.815 105.06C182.623 105.028 182.439 104.992 182.263 104.952C182.095 104.904 181.947 104.848 181.819 104.784L182.275 103.392C182.499 103.496 182.751 103.584 183.031 103.656C183.311 103.728 183.623 103.764 183.967 103.764Z" fill="black"/>
        <path d="M139.107 32.596H140.907V27.976L141.111 27.148L140.487 27.868L139.311 28.636L138.639 27.652L141.579 25.456H142.527V32.596H144.291V34H139.107V32.596Z" fill="black"/>
        <path d="M53.5622 32.596H55.3622V27.976L55.5662 27.148L54.9422 27.868L53.7662 28.636L53.0942 27.652L56.0342 25.456H56.9822V32.596H58.7462V34H53.5622V32.596ZM60.652 32.596H62.452V27.976L62.656 27.148L62.032 27.868L60.856 28.636L60.184 27.652L63.124 25.456H64.072V32.596H65.836V34H60.652V32.596Z" fill="black"/>
        <path d="M140.679 174.68C141.255 174.68 141.695 174.568 141.999 174.344C142.311 174.112 142.467 173.78 142.467 173.348C142.467 172.884 142.287 172.544 141.927 172.328C141.567 172.112 141.055 172.004 140.391 172.004L139.347 172.052V167.6H143.835V169.16H140.811V170.648L141.351 170.6C141.775 170.616 142.159 170.692 142.503 170.828C142.847 170.956 143.139 171.136 143.379 171.368C143.627 171.6 143.815 171.88 143.943 172.208C144.079 172.536 144.147 172.9 144.147 173.3C144.147 173.772 144.059 174.188 143.883 174.548C143.707 174.908 143.463 175.208 143.151 175.448C142.847 175.688 142.483 175.868 142.059 175.988C141.643 176.108 141.191 176.168 140.703 176.168C140.311 176.168 139.935 176.136 139.575 176.072C139.223 176.008 138.927 175.924 138.687 175.82L139.143 174.428C139.343 174.5 139.559 174.56 139.791 174.608C140.031 174.656 140.327 174.68 140.679 174.68Z" fill="black"/>
        <path d="M57.1671 176L60.1191 169.652L60.6951 169.064L59.9031 169.184H56.5791V167.6H62.4711V168.068L58.8231 176H57.1671Z" fill="black"/>
        <path d="M174.003 57.676C174.003 58.076 173.923 58.48 173.763 58.888C173.603 59.296 173.399 59.696 173.151 60.088C172.911 60.472 172.639 60.848 172.335 61.216C172.039 61.584 171.747 61.924 171.459 62.236L170.775 62.728V62.788L171.699 62.596H174.183V64H168.699V63.16C168.907 62.952 169.139 62.72 169.395 62.464C169.659 62.2 169.923 61.92 170.187 61.624C170.451 61.328 170.707 61.024 170.955 60.712C171.211 60.392 171.435 60.076 171.627 59.764C171.819 59.452 171.975 59.148 172.095 58.852C172.215 58.548 172.275 58.268 172.275 58.012C172.275 57.708 172.183 57.452 171.999 57.244C171.815 57.028 171.499 56.92 171.051 56.92C170.771 56.92 170.487 56.98 170.199 57.1C169.911 57.212 169.663 57.36 169.455 57.544L168.759 56.344C169.103 56.088 169.487 55.872 169.911 55.696C170.335 55.52 170.843 55.432 171.435 55.432C171.803 55.432 172.143 55.48 172.455 55.576C172.775 55.672 173.047 55.812 173.271 55.996C173.503 56.18 173.683 56.416 173.811 56.704C173.939 56.984 174.003 57.308 174.003 57.676Z" fill="black"/>
        <path d="M22.5622 62.596H24.3622V57.976L24.5662 57.148L23.9422 57.868L22.7662 58.636L22.0942 57.652L25.0342 55.456H25.9822V62.596H27.7462V64H22.5622V62.596ZM28.86 59.788C28.86 58.356 29.132 57.272 29.676 56.536C30.228 55.8 31.016 55.432 32.04 55.432C33.136 55.432 33.94 55.796 34.452 56.524C34.972 57.244 35.232 58.332 35.232 59.788C35.232 61.212 34.956 62.3 34.404 63.052C33.852 63.796 33.064 64.168 32.04 64.168C31.496 64.168 31.024 64.068 30.624 63.868C30.224 63.66 29.892 63.368 29.628 62.992C29.372 62.608 29.18 62.148 29.052 61.612C28.924 61.068 28.86 60.46 28.86 59.788ZM30.588 59.788C30.588 60.708 30.7 61.436 30.924 61.972C31.148 62.5 31.52 62.764 32.04 62.764C32.568 62.764 32.944 62.524 33.168 62.044C33.392 61.564 33.504 60.812 33.504 59.788C33.504 59.332 33.476 58.924 33.42 58.564C33.372 58.196 33.292 57.884 33.18 57.628C33.068 57.372 32.916 57.176 32.724 57.04C32.54 56.904 32.312 56.836 32.04 56.836C31.52 56.836 31.148 57.088 30.924 57.592C30.7 58.088 30.588 58.82 30.588 59.788Z" fill="black"/>
        <path d="M175.011 143.684H173.583V146H172.011V143.684H168.063V142.748L172.191 137.54H173.583V142.376H175.011V143.684ZM172.011 140.648L172.107 139.676H172.059L171.627 140.492L170.295 142.04L169.623 142.484L170.463 142.376H172.011V140.648Z" fill="black"/>
        <path d="M25.5911 143.924C25.5911 143.644 25.6311 143.396 25.7111 143.18C25.7911 142.956 25.9031 142.756 26.0471 142.58C26.1911 142.404 26.3591 142.248 26.5511 142.112C26.7431 141.968 26.9551 141.836 27.1871 141.716C26.7551 141.468 26.4191 141.184 26.1791 140.864C25.9471 140.544 25.8311 140.144 25.8311 139.664C25.8311 139.36 25.8911 139.072 26.0111 138.8C26.1391 138.528 26.3191 138.292 26.5511 138.092C26.7911 137.884 27.0791 137.724 27.4151 137.612C27.7591 137.492 28.1471 137.432 28.5791 137.432C28.9711 137.432 29.3271 137.484 29.6471 137.588C29.9671 137.684 30.2391 137.824 30.4631 138.008C30.6951 138.184 30.8711 138.4 30.9911 138.656C31.1191 138.904 31.1831 139.176 31.1831 139.472C31.1831 139.944 31.0711 140.344 30.8471 140.672C30.6311 140.992 30.2951 141.288 29.8391 141.56C30.3511 141.84 30.7431 142.144 31.0151 142.472C31.2871 142.8 31.4231 143.224 31.4231 143.744C31.4231 144.104 31.3511 144.432 31.2071 144.728C31.0631 145.024 30.8591 145.28 30.5951 145.496C30.3391 145.704 30.0271 145.868 29.6591 145.988C29.2991 146.108 28.8991 146.168 28.4591 146.168C28.0271 146.168 27.6311 146.112 27.2711 146C26.9191 145.896 26.6191 145.744 26.3711 145.544C26.1231 145.344 25.9311 145.108 25.7951 144.836C25.6591 144.556 25.5911 144.252 25.5911 143.924ZM29.8151 143.756C29.8151 143.58 29.7631 143.42 29.6591 143.276C29.5631 143.132 29.4351 143 29.2751 142.88C29.1231 142.76 28.9511 142.648 28.7591 142.544C28.5671 142.44 28.3751 142.344 28.1831 142.256C27.7831 142.464 27.5071 142.692 27.3551 142.94C27.2111 143.188 27.1391 143.424 27.1391 143.648C27.1391 143.96 27.2551 144.224 27.4871 144.44C27.7271 144.656 28.0631 144.764 28.4951 144.764C28.8951 144.764 29.2151 144.68 29.4551 144.512C29.6951 144.336 29.8151 144.084 29.8151 143.756ZM27.4391 139.688C27.4391 139.88 27.4791 140.048 27.5591 140.192C27.6471 140.336 27.7591 140.464 27.8951 140.576C28.0311 140.68 28.1831 140.776 28.3511 140.864C28.5271 140.952 28.7071 141.036 28.8911 141.116C29.3951 140.716 29.6471 140.28 29.6471 139.808C29.6471 139.488 29.5391 139.248 29.3231 139.088C29.1071 138.92 28.8471 138.836 28.5431 138.836C28.1591 138.836 27.8791 138.92 27.7031 139.088C27.5271 139.256 27.4391 139.456 27.4391 139.688Z" fill="black"/>
    </g>
    <defs>
        <clipPath id="clip0_40_122">
            <rect width="200" height="200" fill="white"/>
        </clipPath>
    </defs>
</svg>
