<svg width="64" height="64" viewBox="0 0 64 64" fill="none" xmlns="http://www.w3.org/2000/svg">
<path d="M30.4286 49.3571L35.25 41.0062L44.8929 41.0062L49.7143 49.3571L44.8929 57.7081L35.25 57.7081L30.4286 49.3571Z" fill="#714099"/>
<path d="M30.4286 32L35.25 23.649L44.8929 23.649L49.7143 32L44.8929 40.351L35.25 40.351L30.4286 32Z" fill="#C12766"/>
<path d="M30.4286 14.6429L35.25 6.2919L44.8929 6.2919L49.7143 14.6429L44.8929 22.9938L35.25 22.9938L30.4286 14.6429Z" fill="#CF242A"/>
<path d="M15 40.6786L19.8214 32.3276L29.4643 32.3276L34.2857 40.6786L29.4643 49.0295L19.8214 49.0295L15 40.6786Z" fill="#3E489F"/>
<path d="M15 23.3214L19.8214 14.9705L29.4643 14.9705L34.2857 23.3214L29.4643 31.6724L19.8214 31.6724L15 23.3214Z" fill="#78932C"/>
<ellipse cx="40.0714" cy="49.3571" rx="0.964285" ry="0.964286" fill="white"/>
<ellipse cx="40.0714" cy="32" rx="0.964285" ry="0.964286" fill="white"/>
<ellipse cx="40.0714" cy="14.6429" rx="0.964285" ry="0.964286" fill="white"/>
<ellipse cx="24.6429" cy="23.3214" rx="0.964285" ry="0.964286" fill="white"/>
<ellipse cx="24.6429" cy="40.6786" rx="0.964285" ry="0.964286" fill="white"/>
<path d="M40.0714 32V14.6429L24.6429 23.3214V40.6786L40.0714 49.8393V32ZM24.6429 40.6786L40.0714 32M40.0714 32L24.6429 23.3214" stroke="white" stroke-width="0.5"/>
</svg>
