<svg width="64" height="64" viewBox="0 0 64 64" fill="none" xmlns="http://www.w3.org/2000/svg">
<g clip-path="url(#clip0_193_2)">
<path d="M6.01151 42.3439H50.2997L38.6753 15.2798H38.4897L6.01151 42.3439Z" fill="white"/>
<path fill-rule="evenodd" clip-rule="evenodd" d="M6.01151 42.3439H50.2997L38.6753 15.2798H38.4897L6.01151 42.3439ZM26.311 26.3005C26.1587 26.3005 26.0353 26.322 26.0353 26.322C26.0353 26.322 25.3679 26.6972 24.5264 27.1874C23.6846 27.6777 22.1753 28.7163 21.9428 29.0624C21.7112 29.4085 20.7535 30.4181 20.7535 30.4181L20.6865 30.5029C19.9437 30.4034 19.1539 30.3761 18.6925 30.5339C17.7638 30.851 15.7615 32.0334 15.4422 32.755C15.1796 33.348 14.8977 33.8634 14.8709 34.5091C14.5065 35.2819 14.3086 36.6082 15.1809 38.4669C15.1809 38.4669 15.7034 38.7833 16.516 38.6972C16.6947 38.6787 16.9539 38.6705 17.241 38.6411C16.5297 39.5623 15.6584 40.7041 15.326 41.0334C14.8328 41.524 11.6694 44.2934 11.1469 44.4376C10.6244 44.5824 10.4505 44.5244 10.8857 44.7547C11.3208 44.9855 12.0949 44.8127 12.3754 44.4082C12.6559 44.005 13.0333 43.3416 13.353 43.0245C13.672 42.7068 15.3549 41.6681 15.4999 41.4667C15.6433 41.2678 18.0669 38.8571 18.3323 38.3726C18.508 38.2879 18.6667 38.1778 18.7949 38.0336C18.9359 38.0227 19.0679 37.9954 19.1861 37.9469C19.9699 37.6298 21.2177 36.6493 21.8267 35.7842C22.178 35.2855 22.4908 34.7483 22.6592 34.3049C22.9844 34.0507 23.2435 33.8696 23.3364 33.8512C23.6265 33.7931 24.0909 33.649 24.0909 34.1389C24.0909 34.6295 24.5841 35.6968 25.0193 36.3315C25.4552 36.9664 26.0353 37.4857 26.0353 37.4857C26.0353 37.4857 26.0061 37.7452 26.2966 37.7741C26.5867 37.8027 26.8476 37.7166 26.9057 37.8608C27.0459 38.2086 27.6606 37.9469 27.9503 37.6879C28.2408 37.4276 28.3573 37.8608 28.7632 37.6011C29.1702 37.3421 29.3438 36.9951 29.3438 36.5332C29.3438 36.3363 29.2479 36.1668 29.1008 36.0514C29.1262 36.0282 29.1407 36.0145 29.1407 36.0145C29.1407 36.0145 29.4868 36.0392 29.8315 35.9284C29.8058 36.0808 29.8058 36.2741 29.837 36.5332C29.9238 37.2546 30.4181 37.7166 30.7076 37.7166C30.9983 37.7166 31.2012 38.0336 31.2012 38.0336C31.2012 38.0336 31.1723 38.5816 31.5792 38.6972C31.9849 38.8127 33.0876 38.2933 33.3489 38.063C33.61 37.8322 34.1325 38.4088 34.3642 38.8994C34.5965 39.3893 35.8154 41.438 36.2513 41.9286C36.6865 42.4185 37.2667 43.2262 37.818 43.9183C38.37 44.6105 38.0538 44.6808 38.2284 44.6808C38.4024 44.6808 38.2862 44.7963 38.4313 44.9405C38.5763 45.0854 39.36 45.5459 39.5635 45.69C39.7663 45.8343 40.6085 46.1233 40.724 46.0365C40.8401 45.9504 40.8978 45.662 40.8978 45.662C40.8978 45.662 40.7528 45.7194 40.1726 45.5172C39.5916 45.3156 38.8376 44.8257 38.7503 44.6808C38.6629 44.5367 38.4024 44.4213 38.4024 44.4213C38.4024 44.4213 37.6249 43.5144 37.1601 42.6207C37.1601 42.6207 36.7731 41.6975 36.3668 40.8031C35.9612 39.9086 34.6261 37.2841 34.0452 37.1399C33.4643 36.9951 32.739 37.1679 32.3327 37.5144C31.9271 37.8608 31.7525 37.7452 31.5497 37.6011C31.3462 37.457 31.5792 37.1105 31.4623 36.6206C31.4212 36.4464 31.3366 36.1744 31.2128 35.9182C31.3483 35.9004 31.4645 35.8218 31.5208 35.6688C31.6371 35.351 31.6075 35.2068 32.0138 35.2642C32.0742 35.2731 32.1636 35.2807 32.2757 35.2819C32.2172 35.3852 32.1814 35.4726 32.1795 35.528C32.1684 35.8505 32.4269 36.4375 32.8111 36.5796C33.1955 36.7217 34.8234 37.4269 35.1651 37.088C35.5068 36.7484 37.0233 35.925 37.2928 35.776C37.5629 35.6284 38.0593 35.528 38.2298 35.5656C38.4003 35.6019 38.7496 36.8584 39.3463 37.9318C39.9436 39.0046 39.8447 39.4555 40.2345 39.3039C40.6242 39.1522 40.6167 39.5936 40.9755 39.582C41.3344 39.5704 41.3991 39.8212 41.6087 40.2202C41.8184 40.62 42.0377 41.1106 42.554 41.1926C43.071 41.2746 45.123 41.8055 45.3575 41.6798C45.594 41.5534 45.6049 41.2308 45.0089 41.1024C44.4136 40.9739 43.0193 40.9677 42.7094 40.7531C42.3993 40.5393 42.3216 39.4003 41.9937 39.2705C41.6664 39.1406 41.168 38.974 41.1075 38.8428C41.056 38.7306 39.888 36.6732 39.4377 35.5751C40.031 35.8266 40.9454 36.1826 41.5035 36.3609C42.3161 36.6206 43.7096 37.0531 44.2898 37.0531C44.6576 37.0531 44.8033 36.9253 44.8612 36.8317C44.9003 36.9322 44.934 37.0115 44.9581 37.0531C45.0735 37.2546 45.2475 37.3996 45.2475 37.3996C45.2475 37.3996 45.1897 37.5144 45.3637 37.6011C45.5376 37.6879 46.7283 37.8608 47.1635 38.2647C47.5987 38.6684 48.2084 39.4474 48.2661 40.1683C48.3246 40.8891 48.7879 41.6681 49.0203 41.6975C49.2526 41.7262 49.5139 41.6975 49.2815 40.717C49.0499 39.7358 48.7013 38.9575 48.15 38.5243C47.5987 38.091 46.1763 37.3996 46.0023 37.3122C45.8277 37.226 45.5967 36.9951 45.5087 36.9951C45.4214 36.9951 45.451 36.909 45.306 36.4184C45.2805 36.3315 45.255 36.2352 45.2289 36.1327C45.2668 36.0363 45.4007 35.6708 45.451 35.1775C45.5087 34.6014 45.2475 33.3323 45.0158 33.0143C45.0158 33.0143 44.9925 32.8114 44.9877 32.6454C45.0598 32.6812 45.1327 32.6866 45.1897 32.6399C45.3637 32.4953 45.8277 31.8892 46.5536 31.5725C47.2796 31.2545 47.9754 30.9664 48.7879 30.9083C49.6005 30.851 49.7167 30.7936 49.7167 30.7936C49.7167 30.7936 50.0941 30.7359 50.53 30.9664C50.9651 31.1971 53.548 32.4953 53.9253 32.6399C54.3027 32.7841 54.8831 33.0437 55.29 33.3608C55.6956 33.6782 56.0146 33.649 56.0146 33.649C56.0146 33.649 56.3047 33.9666 56.7406 34.255C57.1758 34.5433 57.3208 34.6876 57.582 34.7456C57.8432 34.803 58.3657 35.0723 57.6989 34.1198C57.6989 34.1198 57.0306 33.4473 56.4504 33.1878C55.8696 32.9278 55.8984 32.6681 55.5505 32.6399C55.202 32.6107 54.5641 32.4953 54.0416 32.2647C53.5191 32.0333 52.0396 31.4283 51.401 31.0822C50.7623 30.7359 50.3554 30.4762 50.1814 30.3317C50.0075 30.1874 49.7167 30.2065 49.166 30.2934C49.166 30.2934 47.5987 30.6493 47.0472 30.9083C46.4959 31.1686 45.2475 31.8609 45.044 32.0333C45.044 32.0333 44.8144 32.0333 44.7285 32.1425C44.7174 32.1352 44.7071 32.127 44.6961 32.1206C44.5511 32.0334 43.6223 31.1396 43.6223 31.1396C43.1576 30.7359 42.3738 29.8995 41.8809 29.4949C41.3873 29.0914 39.3992 28.4649 38.5729 28.5438C37.7987 28.6166 37.4344 29.1198 37.2344 29.61C37.0721 29.3244 36.8906 29.0361 36.7153 28.8324C36.2224 28.2551 36.0767 28.0819 36.0767 28.0819C36.0767 28.0819 35.5541 28.0819 35.0317 28.428C34.7155 28.6377 34.2714 29.1123 33.9702 29.4539C33.7187 29.4587 33.5165 29.5188 33.4066 29.6107C33.0298 29.9278 30.8822 31.4283 30.7956 31.8028C30.7405 32.0367 30.6525 32.1916 30.5378 32.2757C30.3659 32.1041 30.02 31.9525 29.6343 32.1206C29.6102 32.1308 29.583 32.1418 29.5559 32.1536C29.5023 31.1151 29.3566 28.39 29.2857 28.1109C29.1984 27.7648 29.0245 27.5051 28.7337 27.6493C28.4435 27.7931 28.183 28.1977 28.183 28.6302C28.183 29.0624 28.3573 29.293 28.415 29.4666C28.4635 29.6114 28.5123 31.7509 28.6127 32.5861C28.2297 32.7959 27.8788 33.0567 27.7767 33.3608C27.5735 33.9666 27.6022 34.197 27.4282 34.3705C27.4055 34.393 27.3711 34.4176 27.3319 34.4429C27.2075 34.3246 27.0621 34.2072 26.9483 34.0916C26.8872 33.8292 26.8706 33.5321 27.1088 33.39C27.3993 33.2166 27.3993 32.0914 27.1088 31.976L26.8184 31.8609C26.8184 31.8609 27.3412 29.9278 27.2254 28.8324C27.1088 27.7351 26.993 26.5816 26.7607 26.4084C26.6446 26.3221 26.4633 26.3005 26.311 26.3005ZM26.0892 26.7417C26.2389 26.741 26.3363 26.8613 26.2966 27.1584C26.2388 27.5916 25.9484 29.3511 25.9192 30.0146C25.8903 30.6778 25.9484 32.0333 25.9484 32.0333C25.9484 32.0333 25.5857 32.2838 25.627 32.5655C25.5204 32.5443 25.4366 32.5335 25.3967 32.5237C25.2805 32.4953 25.629 31.3416 25.1932 31.0528C24.758 30.7642 23.9455 31.0822 23.6554 31.2261C23.4206 31.343 22.9762 31.4218 22.816 31.4482C22.7569 31.2414 22.6393 31.0238 22.4076 30.9083C22.1945 30.8032 21.6906 30.6679 21.1065 30.5673L22.0301 29.5817C22.0301 29.5817 22.7266 29.5243 23.2202 29.1782C23.7134 28.8324 25.6002 26.9568 25.8608 26.8126C25.9424 26.7675 26.0212 26.7421 26.0892 26.7417ZM35.9284 28.6614C36.0376 28.6618 36.1231 28.7409 36.164 28.8898C36.2169 29.0798 36.3737 29.7819 36.4905 30.3115C36.2135 30.3651 36.0107 30.4099 35.8849 30.4724C35.6457 30.1492 35.3692 29.9162 35.0881 29.7556C35.1933 29.5243 35.3081 29.238 35.4964 28.976C35.6506 28.7615 35.8047 28.6609 35.9284 28.6614ZM36.2038 32.4308C36.2939 32.4549 36.3881 32.4718 36.4795 32.4769C36.5029 33.0191 36.7559 33.4473 36.9476 33.7931C37.0803 34.0343 37.4001 34.3145 37.7444 34.5707C37.5403 34.6008 37.352 34.6445 37.2048 34.6848C37.2048 34.6848 34.8441 35.159 34.4075 35.3893C33.9709 35.6203 33.6073 35.925 33.3295 35.8361C33.0525 35.746 33.7915 35.4918 34.4316 35.0107C34.6825 34.8214 34.8722 34.5318 34.9066 34.2782C34.9499 34.2242 34.9925 34.1695 35.0317 34.1108C35.46 33.4719 35.9529 32.9699 36.2038 32.4308ZM40.7846 32.9665C40.803 32.9666 40.8211 32.9677 40.8387 32.9699C41.1289 33.0062 41.1289 33.0772 41.4197 33.5102C41.7098 33.9427 41.7819 34.5194 41.5647 34.7361C41.3467 34.9526 41.0925 35.0244 40.4758 34.1956C39.8887 33.4045 40.4095 32.9652 40.7846 32.9665ZM22.7052 32.9966C22.849 33.0848 23.1401 33.2633 23.4024 33.3981C23.1976 33.4985 23.0022 33.655 22.787 33.8149C22.7973 33.7042 22.7884 33.6093 22.7555 33.5341C22.7018 33.4091 22.6929 33.2112 22.7052 32.9966ZM25.3692 34.4169C25.5988 34.4627 25.8113 34.4654 25.9769 34.6295C26.1715 34.8228 26.3344 35.3053 26.5008 35.5383C26.3798 35.9195 26.3444 36.0972 26.7028 36.2167C27.138 36.3609 27.5154 36.1587 27.5154 36.1587C27.5154 36.1587 27.568 36.2215 27.6551 36.2961C27.2935 36.5052 26.9531 36.7402 26.848 36.8803C26.6734 37.1105 26.4705 36.9951 26.4705 36.9951C26.4705 36.9951 25.7741 35.8416 25.4837 34.7736C25.4479 34.6424 25.4094 34.5242 25.3692 34.4169Z" fill="#A81C7D"/>
<path d="M8.15741 46.7668L6.18856 45.9532V45.4394L8.15741 44.6275V45.2393L6.96086 45.6972L8.15741 46.1584V46.7668ZM11.4049 46.5408H10.5178L10.3907 46.9563H9.58928L10.5412 44.4308H11.4011L12.3538 46.9563H11.5318L11.4049 46.5408ZM11.2387 45.9942L10.9624 45.0858L10.6849 45.9942H11.2387ZM13.8438 44.4308H15.1487C15.4329 44.4308 15.6458 44.498 15.7873 44.6323C15.9289 44.7668 15.9997 44.958 15.9997 45.2063C15.9997 45.4613 15.9225 45.6606 15.7683 45.8042C15.614 45.9479 15.3785 46.0197 15.0619 46.0197H14.6321V46.9563H13.8438V44.4308ZM14.6321 45.5095H14.825C14.9768 45.5095 15.0835 45.4833 15.1448 45.4309C15.2063 45.3786 15.237 45.3114 15.237 45.2296C15.237 45.1502 15.2103 45.0828 15.1571 45.0275C15.1037 44.9723 15.0035 44.9446 14.8563 44.9446H14.6321V45.5095ZM18.909 46.5408H18.0219L17.8949 46.9563H17.0934L18.0452 44.4308H18.9052L19.8579 46.9563H19.0359L18.909 46.5408ZM18.7429 45.9942L18.4664 45.0858L18.189 45.9942H18.7429ZM22.9777 45.9249L23.667 46.1306C23.6208 46.3221 23.548 46.4822 23.4486 46.611C23.3493 46.7393 23.226 46.8365 23.0787 46.9018C22.9313 46.9672 22.7438 47 22.5164 47C22.2402 47 22.0145 46.9601 21.8396 46.8802C21.6646 46.8005 21.5134 46.6602 21.3864 46.4592C21.2593 46.2583 21.1958 46.0009 21.1958 45.6876C21.1958 45.2696 21.3075 44.9482 21.5309 44.7237C21.7543 44.4992 22.0704 44.3871 22.4792 44.3871C22.799 44.3871 23.0504 44.4513 23.2335 44.5801C23.4165 44.7087 23.5525 44.9064 23.6414 45.1729L22.9484 45.3272C22.9242 45.2498 22.8988 45.1932 22.8724 45.1573C22.8286 45.0971 22.7749 45.051 22.7116 45.0187C22.6482 44.9863 22.5774 44.9702 22.4991 44.9702C22.3217 44.9702 22.1857 45.0413 22.0913 45.1837C22.0198 45.2893 21.9842 45.4553 21.9842 45.6814C21.9842 45.9617 22.0267 46.1536 22.112 46.2575C22.1972 46.3613 22.317 46.4133 22.4714 46.4133C22.6211 46.4133 22.7343 46.3715 22.811 46.2882C22.8876 46.2048 22.9432 46.0836 22.9777 45.9249ZM25.2927 44.4308H26.0772V45.3163H26.9353V44.4308H27.7236V46.9563H26.9353V45.9359H26.0772V46.9563H25.2927V44.4308ZM29.4826 44.4308H31.5908V44.9702H30.2709V45.371H31.4956V45.8848H30.2709V46.3842H31.6276V46.9563H29.4826V44.4308ZM37.2744 46.5408H36.3873L36.2602 46.9563H35.4588L36.4106 44.4308H37.2705L38.2232 46.9563H37.4014L37.2744 46.5408ZM37.1083 45.9942L36.8318 45.0858L36.5544 45.9942H37.1083ZM39.7206 44.4308H40.4522L41.4108 45.8296V44.4308H42.1515V46.9563H41.4108L40.4575 45.565V46.9563H39.7206L39.7206 44.4308ZM43.7382 44.4308H46.1215V45.0539H45.3222V46.9563H44.5376V45.0539H43.7382V44.4308ZM47.6449 46.1583L48.8415 45.6972L47.6449 45.2393V44.6275L49.6138 45.4394V45.9532L47.6449 46.7668L47.6449 46.1583Z" fill="white"/>
</g>
<defs>
<clipPath id="clip0_193_2">
<rect width="52" height="32" fill="white" transform="translate(6 15)"/>
</clipPath>
</defs>
</svg>
