<svg width="64" height="64" viewBox="0 0 64 64" fill="none" xmlns="http://www.w3.org/2000/svg">
<path d="M45 10L58 32.2857H32L45 10Z" fill="#3949AB"/>
<path d="M19 54.5714L6 32.2857L32 32.2857L19 54.5714Z" fill="#0D47A1"/>
<path d="M45 54.5714L32 32.2857L58 32.2857L45 54.5714Z" fill="#5C6BC0"/>
<path d="M19 10L32 32.2857L6 32.2857L19 10Z" fill="#0D47A1"/>
<path d="M32 32.2857L45 54.5714L19 54.5714L32 32.2857Z" fill="#5C6BC0"/>
<path d="M32 32.2857L19 10L45 10L32 32.2857Z" fill="#0D47A1"/>
<path d="M22.7874 40.2857L21.7274 36.5657H17.2874L16.2274 40.2857H13.9474L18.0274 26.3257H21.0874L25.1674 40.2857H22.7874ZM19.5874 28.5857H19.4274L17.7074 34.7057H21.3074L19.5874 28.5857ZM31.4196 40.5257C30.2063 40.5257 29.1863 40.3124 28.3596 39.8857C27.533 39.4591 26.853 38.8924 26.3196 38.1857L27.7596 36.8057C28.293 37.4457 28.8596 37.9191 29.4596 38.2257C30.0596 38.5191 30.7396 38.6657 31.4996 38.6657C32.3796 38.6657 33.053 38.4657 33.5196 38.0657C33.9996 37.6657 34.2396 37.0924 34.2396 36.3457C34.2396 35.7457 34.0663 35.2857 33.7196 34.9657C33.373 34.6324 32.7796 34.3924 31.9396 34.2457L30.4196 34.0057C29.753 33.8991 29.193 33.7257 28.7396 33.4857C28.2863 33.2324 27.9196 32.9391 27.6396 32.6057C27.3596 32.2591 27.153 31.8791 27.0196 31.4657C26.8996 31.0391 26.8396 30.5924 26.8396 30.1257C26.8396 28.8057 27.2663 27.8057 28.1196 27.1257C28.973 26.4324 30.1463 26.0857 31.6396 26.0857C32.7463 26.0857 33.6863 26.2657 34.4596 26.6257C35.2463 26.9724 35.8796 27.4657 36.3596 28.1057L34.9596 29.5057C34.573 29.0391 34.113 28.6657 33.5796 28.3857C33.0596 28.0924 32.413 27.9457 31.6396 27.9457C30.813 27.9457 30.1796 28.1257 29.7396 28.4857C29.313 28.8324 29.0996 29.3457 29.0996 30.0257C29.0996 30.5991 29.2663 31.0524 29.5996 31.3857C29.9463 31.7057 30.553 31.9391 31.4196 32.0857L32.8996 32.3457C34.153 32.5724 35.0663 33.0324 35.6396 33.7257C36.213 34.4057 36.4996 35.2391 36.4996 36.2257C36.4996 36.8657 36.3863 37.4524 36.1596 37.9857C35.9463 38.5191 35.6196 38.9724 35.1796 39.3457C34.753 39.7191 34.2196 40.0124 33.5796 40.2257C32.953 40.4257 32.233 40.5257 31.4196 40.5257ZM46.4318 33.6057L46.4918 29.4057H46.3318L43.5318 36.5857L40.7318 29.4057H40.5718L40.6318 33.6057V40.2857H38.6518V26.3257H41.3918L43.5318 31.8657H43.6718L45.8318 26.3257H48.4118V40.2857H46.4318V33.6057Z" fill="white"/>
</svg>
