<svg width="64" height="64" viewBox="0 0 64 64" fill="none" xmlns="http://www.w3.org/2000/svg">
<g clip-path="url(#clip0_84_55)">
<path d="M54.5902 45.0358C54.9533 44.408 55.1791 43.7006 55.1796 43.0652L55.197 21.0074C55.1975 20.372 54.9731 19.6643 54.6108 19.036L32.0839 32.0182L54.5902 45.0358Z" fill="#00599C"/>
<path d="M34.0647 57.543L53.176 46.5292C53.7266 46.212 54.2271 45.6637 54.5902 45.0358L32.0839 32.0182L9.55718 45.0005C9.91926 45.6289 10.4191 46.178 10.969 46.496L30.063 57.5399C31.1629 58.1762 32.9638 58.1776 34.0647 57.543Z" fill="#004482"/>
<path d="M54.6108 19.0358C54.2486 18.4073 53.7487 17.8583 53.1989 17.5402L34.1049 6.49634C33.005 5.86003 31.2041 5.85861 30.1031 6.49319L10.9918 17.507C9.89076 18.1414 8.98922 19.7003 8.98822 20.971L8.97086 43.0288C8.97036 43.6642 9.19496 44.372 9.55719 45.0004L32.0839 32.0182L54.6108 19.0358Z" fill="#659AD2"/>
<path d="M32.0718 47.4211C23.5786 47.4144 16.6743 40.4993 16.681 32.0061C16.6877 23.5129 23.6028 16.6086 32.0961 16.6152C37.5765 16.6196 42.6854 19.5728 45.4288 24.3224L38.7597 28.1745C37.3867 25.7971 34.8308 24.3189 32.09 24.3167C27.8433 24.3134 24.3858 27.7654 24.3825 32.0121C24.3791 36.2586 27.8312 39.7163 32.0779 39.7196C34.819 39.7218 37.3772 38.2475 38.7541 35.8719L45.4171 39.7344C42.6662 44.4801 37.5525 47.4254 32.0718 47.4211Z" fill="white"/>
</g>
<defs>
<clipPath id="clip0_84_55">
<rect width="46.2088" height="52" fill="white" transform="translate(9 6) rotate(0.0450905)"/>
</clipPath>
</defs>
</svg>
