<svg width="64" height="64" viewBox="0 0 64 64" fill="none" xmlns="http://www.w3.org/2000/svg">
<path d="M25.3142 54.3438C21.0928 58.7093 14.1331 58.7881 9.83187 54.5777C5.53059 50.3674 5.37412 43.4303 9.6754 39.1419C13.8968 34.7763 20.8564 34.6975 25.1577 38.9079C29.459 43.1182 29.5364 49.9782 25.3142 54.3438ZM55.3416 30.1678L56.5926 34.7666L51.5098 36.8791L49.0853 32.8166L49.2418 32.7386C47.4432 33.0506 45.5745 33.1286 43.6896 32.7386L41.2651 36.8011L36.1823 34.6886L37.3558 30.0898L37.4341 30.1678C35.9484 29.0766 34.6192 27.8278 33.6022 26.3474L28.9896 27.5174L26.8707 22.4499L30.9455 20.0327L31.0237 20.1887C30.7108 18.3955 30.7108 16.5324 31.0237 14.6531L26.949 12.2359L29.0678 7.16837L33.6804 8.33838L33.6022 8.49437C34.2281 7.56 34.9305 6.78813 35.7919 6H9.36246C7.48646 6 6 7.56 6 9.43038V31.571L9.12776 33.8322L9.04952 33.9102C10.6142 32.897 12.2555 32.2039 14.0533 31.7977L14.6792 27.1989L20.0741 27.1209L20.7782 31.7197H20.6217C22.3331 32.0317 24.0624 32.7329 25.6255 33.6697L29.2928 30.8633L33.1246 34.6057L30.388 38.3481L30.3098 38.2701C31.2959 39.7726 32.0129 41.4345 32.4287 43.1816L37.0412 43.8056L37.1195 49.1844L32.5069 49.9644V49.8084C32.1157 51.5146 31.4907 53.2387 30.551 54.7971L33.0554 58H54.6375C56.5144 58 58 56.5188 58 54.5696V27.9846L55.3416 30.1678ZM56.7499 21.6691C54.411 27.3687 47.8344 30.0118 42.2056 27.6734C36.4977 25.3334 33.8385 18.7847 36.1847 13.1728C38.5293 7.48119 45.0978 4.83 50.7274 7.17C56.4353 9.51 59.0945 15.9799 56.7482 21.6707L56.7499 21.6691Z" fill="#B61F29"/>
</svg>
