<svg width="64" height="64" viewBox="0 0 64 64" fill="none" xmlns="http://www.w3.org/2000/svg">
<path d="M32.1279 58L13.2148 52.8018L9 6H55.3125L51.0933 52.7946L32.1279 58Z" fill="#264DE4"/>
<path d="M46.8784 49.7617L50.4375 10.0625H31.75V53.9375L46.8784 49.7617Z" fill="#2965F1"/>
<path d="M18.1754 27.3662L18.6981 33.1054H31.75V27.3662H18.1754ZM17.125 15.75L17.6552 21.4892H31.75V15.75H17.125ZM31.75 42.2716L31.7244 42.2783L25.2289 40.5524L24.8136 35.9751H18.9587L19.7758 44.9866L31.7232 48.25L31.75 48.2428V42.2716Z" fill="#EBEBEB"/>
<path d="M44.5672 27.3672L45.5625 15.75H31.7502V21.4897H39.5198L39.018 27.3672H31.7502V33.1069H38.54L37.8998 40.5508L31.75 42.2787V48.25L43.0539 44.989L43.1368 44.0192L44.4327 28.9085L44.5672 27.3672Z" fill="white"/>
</svg>
