<svg width="64" height="64" viewBox="0 0 64 64" fill="none" xmlns="http://www.w3.org/2000/svg">
<path d="M41.0515 54.1164C41.0515 53.9922 41.0928 53.868 41.0515 53.7438C40.9691 53.6196 40.9278 53.5368 40.8454 53.454C40.6392 53.2056 40.433 52.9987 40.1856 52.7503L37.7526 50.2664L39.6495 48.3208L40.6804 47.2031C40.8454 47.0375 41.0515 46.7063 41.0515 46.4579V46.2923C41.0515 45.9198 40.8866 45.7128 40.5155 45.63L40.5979 45.6714H40.3093C40.0619 45.6714 39.3608 46.3337 39.1959 46.5407C38.5773 47.1617 38.1649 47.7412 37.3402 48.3622V43.4359C37.3402 42.9806 37.0928 42.7736 36.6392 42.7736H36.5155C36.0619 42.7736 35.6907 42.9806 35.6907 43.4359V54.1578C35.6907 54.6131 36.0619 54.7787 36.5155 54.7787H36.6392C37.0928 54.7787 37.3402 54.5717 37.3402 54.1578V52.2535L38.5773 53.454C38.9485 53.8266 39.3196 54.075 39.6495 54.4062C39.8144 54.5717 40.1443 54.7787 40.3918 54.7787H40.5155C40.9278 54.7787 41.0515 54.5717 41.134 54.2406L41.0515 54.282V54.1164ZM57.1753 45.6714H57.0103C56.1031 45.6714 55.2783 45.9198 54.5361 46.4579C53.299 47.3687 52.5979 48.5692 52.5979 50.1423V54.1992C52.5979 54.6545 52.7629 54.7787 53.2165 54.7787H53.3402C53.7938 54.7787 54.2474 54.6131 54.2474 54.1992V50.3906C54.2474 49.5627 54.4124 48.7762 55.0309 48.1552C55.5258 47.6584 56.1443 47.2445 56.8454 47.2445C57.3814 47.2445 58 47.1203 58 46.4579C58 45.9612 57.6289 45.6714 57.1753 45.6714ZM50.8247 47.7412C50.3711 46.9961 49.7526 46.4165 48.9691 46.0439C47.5258 45.3402 46 45.2574 44.5979 46.0853L44.3918 46.2095C43.8144 46.5407 43.3196 46.9547 42.9485 47.4928C41.8763 49.0659 41.7526 50.846 42.701 52.5019L42.7835 52.6675C43.1959 53.3712 43.732 53.9508 44.433 54.3234C45.9175 55.1513 47.5258 55.2341 49.0103 54.4062L49.134 54.3234C49.5464 54.075 49.6289 53.661 49.4227 53.247C49.3402 53.0815 49.1753 52.9573 49.0103 52.8745H48.9278C48.6392 52.8331 47.8557 53.1642 47.567 53.2884C46.9897 53.3712 46.3299 53.4126 45.7526 53.2056L48.8866 50.4734C49.3402 50.0595 49.8351 49.6041 50.3299 49.2315C50.7423 48.9003 51.1546 48.445 50.8247 47.8654V47.7412ZM47.9794 49.2315L44.4742 52.2535C44.3505 52.1293 44.268 51.9637 44.1856 51.8395C43.9381 51.4256 43.7732 50.9288 43.7732 50.432C43.732 49.1901 44.1856 48.1552 45.299 47.5342C46.1237 47.0375 47.0309 46.9547 47.9381 47.2859C48.3918 47.4514 48.9278 47.7412 49.2165 48.1552C48.8041 48.5278 48.3505 48.8589 47.9794 49.2315ZM14.6598 42.7736H14.5361C14.0825 42.7736 13.8351 42.9392 13.8351 43.3945V46.7477C13.0103 46.0025 12.0206 45.7128 10.866 45.7128H10.5361C9.75258 45.7128 9.01031 45.837 8.30928 46.2509C6.82474 47.1203 6 48.4036 6 50.1423V50.4734C6 51.26 6.20619 51.9223 6.61856 52.6261C7.48454 54.1164 8.84536 54.8615 10.5361 54.8615H10.866C11.6495 54.8615 12.4742 54.7373 13.134 54.3648C14.6186 53.4954 15.4845 52.2121 15.4845 50.5148V43.4773C15.4845 42.9392 15.1134 42.7736 14.6598 42.7736ZM13.3814 51.7981C12.7629 52.8331 11.8557 53.4126 10.6598 53.4126C10.1649 53.4126 9.6701 53.2884 9.25773 53.0401C8.18557 52.4605 7.56701 51.5084 7.56701 50.2664C7.56701 49.8111 7.64948 49.3971 7.85567 48.9831C8.43299 47.7826 9.38144 47.1203 10.701 47.1203C11.3608 47.1203 11.9381 47.3273 12.433 47.6998C13.299 48.3208 13.7938 49.1487 13.7938 50.2251C13.8351 50.8046 13.6701 51.3014 13.3814 51.7981ZM21.0928 45.6714H20.8454C20.0619 45.6714 19.2784 45.7956 18.6186 46.2095C17.134 47.0789 16.3093 48.3622 16.3093 50.1009V50.432C16.3093 51.2186 16.5155 51.8809 16.9278 52.5847C17.7938 54.075 19.1546 54.8201 20.8866 54.8201H21.2165C22 54.8201 22.7835 54.6959 23.4845 54.3234C24.9691 53.454 25.8351 52.1707 25.8351 50.4734V50.1423C25.8351 49.3971 25.5876 48.7762 25.2577 48.1552C24.3505 46.4993 22.9072 45.6714 21.0928 45.6714ZM23.732 51.7981C23.1134 52.7917 22.2474 53.4126 21.0515 53.4126C20.5155 53.4126 19.9794 53.2884 19.4845 52.9987C18.4536 52.3777 17.8763 51.5084 17.8763 50.3078C17.8763 49.8525 17.9588 49.4385 18.1649 49.0245C18.7423 47.824 19.6907 47.1617 21.0103 47.1617C21.6289 47.1617 22.1649 47.3273 22.6598 47.6584C23.567 48.2794 24.1031 49.1487 24.1031 50.2664C24.1443 50.7632 24.0206 51.3014 23.732 51.7981ZM33.8351 46.2509L33.7938 46.2923C33.0928 45.837 32.3093 45.6714 31.4845 45.6714H31.1546C30.3711 45.6714 29.5876 45.7956 28.9278 46.2095C27.4433 47.0789 26.6186 48.3622 26.6186 50.0595V50.3906C26.6186 50.8046 26.701 51.1772 26.7835 51.5912C27.4433 53.868 29.2165 55.1513 31.6082 54.9857C32.268 54.9443 34.0412 54.7373 34.0412 53.7438V53.5782C34.0412 53.2056 33.7526 52.8745 33.4227 52.7917L33.3814 52.7089H33.0928L33.0103 52.8331C32.6392 52.9987 32.0206 53.3298 31.6082 53.3298C31.1134 53.3298 30.5773 53.3298 30.1237 53.0815C28.9278 52.5019 28.2268 51.5498 28.2268 50.2251C28.2268 49.7697 28.3093 49.3557 28.5155 48.9417C29.0928 47.7826 30.0412 47.0375 31.3608 47.0789C31.6082 47.0789 32.0619 47.2031 32.3093 47.3273C32.5155 47.41 33.0515 47.7412 33.299 47.7412H33.3814L33.4227 47.6584C33.7938 47.5756 34.0825 47.2859 34.0825 46.9133V46.7477C34.0825 46.5821 34 46.4579 33.9175 46.3337L33.8351 46.2509ZM7.97938 33.335L8.02062 33.4178C11.2784 38.965 16.9691 41.2833 23.1959 41.2833C35.2371 41.2833 45.1753 35.8603 49.7113 24.476C52.7629 24.6416 55.8969 23.7309 57.3814 20.7917L57.7526 20.0466L57.0103 19.6326C55.2371 18.5977 52.8866 18.4735 50.9072 19.053C50.6598 16.9004 49.2577 15.0375 47.6082 13.7128L46.9485 13.1746L46.4124 13.837C45.299 15.1203 44.9691 17.273 45.134 18.9288C45.2577 20.1294 45.6289 21.3713 46.3711 22.3648C45.7938 22.696 45.1753 23.1513 44.5979 23.3583C43.4433 23.7723 42.1649 24.1863 40.9278 24.1863H38.1649V18.3493H32.8041V8H26.6186V12.9677H16.3093V18.3493H10.9485V24.1449H6.3299L6.24742 24.7658C6.04124 27.4152 6.37113 29.9819 7.48454 32.4243L7.97938 33.335ZM32.8041 19.5912H37.3402V24.1449H32.8041V19.5912ZM27.4433 8.82794H31.9794V13.3816H27.4433V8.82794ZM27.4433 14.2096H31.9794V18.7632H27.4433V14.2096ZM27.4433 19.5912H31.9794V24.1449H27.4433V19.5912ZM22.0825 14.2096H26.6186V18.7632H22.0825V14.2096ZM22.0825 19.5912H26.6186V24.1449H22.0825V19.5912ZM22.5361 32.5071C22.5361 33.2108 21.9588 33.7904 21.2577 33.7904C20.5567 33.7904 19.9794 33.2108 19.9794 32.5071C19.9794 31.8033 20.5567 31.2238 21.2577 31.2238C21.9588 31.2652 22.5361 31.8033 22.5361 32.5071ZM17.134 14.2096H21.2577V18.7632H17.134V14.2096ZM17.134 19.5912H21.2577V24.1449H17.134V19.5912ZM11.7732 19.5912H16.3093V24.1449H11.7732V19.5912ZM12.7629 35.3221C13.4227 35.3221 14.0825 35.3221 14.701 35.2807C16.3093 35.1979 17.7113 34.9909 18.866 34.6597C19.8144 36.8538 21.5464 38.8822 24.6392 40.3725L23.1959 40.4139C16.6804 40.3725 13.1753 38.1785 10.2887 35.2807C11.1546 35.3221 11.9794 35.3221 12.7629 35.3221ZM21.2577 33.4178C21.7526 33.4178 22.1649 33.0039 22.1649 32.5071C22.1649 32.3829 22.1237 32.2587 22.0825 32.1759C22 32.3001 21.9175 32.3829 21.7526 32.3829C21.5464 32.3829 21.3814 32.2173 21.3814 32.0103C21.3814 31.8861 21.4639 31.7619 21.5464 31.6791C21.5052 31.6377 21.3814 31.5964 21.2577 31.5964C20.7629 31.5964 20.3505 32.0103 20.3505 32.5071C20.3918 33.0039 20.7629 33.4178 21.2577 33.4178Z" fill="#019BC6"/>
</svg>
