<svg width="64" height="64" viewBox="0 0 64 64" fill="none" xmlns="http://www.w3.org/2000/svg">
<path d="M38.5 9.25H21.1661C20.5916 9.25 20.0407 9.47822 19.6344 9.88444C19.2282 10.2907 19 10.8416 19 11.4161V20.625L38.5 32L48.25 36.1145L58 32V20.625L38.5 9.25Z" fill="#21A366"/>
<path d="M19 20.625H38.5V32H19V20.625Z" fill="#107C41"/>
<path d="M55.8339 9.25H38.5V20.625H58V11.4161C58 10.8416 57.7718 10.2907 57.3656 9.88444C56.9593 9.47822 56.4084 9.25 55.8339 9.25Z" fill="#33C481"/>
<path d="M38.5 32H19V52.5839C19 53.1584 19.2282 53.7093 19.6344 54.1156C20.0407 54.5218 20.5916 54.75 21.1661 54.75H55.8339C56.4084 54.75 56.9593 54.5218 57.3656 54.1156C57.7718 53.7093 58 53.1584 58 52.5839V43.375L38.5 32Z" fill="#185C37"/>
<path d="M38.5 32H58V43.375H38.5V32Z" fill="#107C41"/>
<path opacity="0.1" d="M33.0839 17.375H19V48.25H33.0839C33.6578 48.2483 34.2078 48.0195 34.6137 47.6137C35.0195 47.2078 35.2483 46.6578 35.25 46.0839V19.5411C35.2483 18.9672 35.0195 18.4172 34.6137 18.0113C34.2078 17.6055 33.6578 17.3767 33.0839 17.375Z" fill="black"/>
<path opacity="0.2" d="M31.4589 19H19V49.875H31.4589C32.0328 49.8733 32.5828 49.6445 32.9887 49.2387C33.3945 48.8328 33.6233 48.2828 33.625 47.7089V21.1661C33.6233 20.5922 33.3945 20.0422 32.9887 19.6363C32.5828 19.2305 32.0328 19.0017 31.4589 19Z" fill="black"/>
<path opacity="0.2" d="M31.4589 19H19V46.625H31.4589C32.0328 46.6233 32.5828 46.3945 32.9887 45.9887C33.3945 45.5828 33.6233 45.0328 33.625 44.4589V21.1661C33.6233 20.5922 33.3945 20.0422 32.9887 19.6363C32.5828 19.2305 32.0328 19.0017 31.4589 19Z" fill="black"/>
<path opacity="0.2" d="M29.8339 19H19V46.625H29.8339C30.4078 46.6233 30.9578 46.3945 31.3637 45.9887C31.7695 45.5828 31.9983 45.0328 32 44.4589V21.1661C31.9983 20.5922 31.7695 20.0422 31.3637 19.6363C30.9578 19.2305 30.4078 19.0017 29.8339 19Z" fill="black"/>
<path d="M8.16612 19H29.8339C30.4084 19 30.9593 19.2282 31.3656 19.6345C31.7718 20.0407 32 20.5916 32 21.1661V42.8339C32 43.4084 31.7718 43.9593 31.3656 44.3656C30.9593 44.7718 30.4084 45 29.8339 45H8.16612C7.59163 45 7.04067 44.7718 6.63444 44.3656C6.22822 43.9593 6 43.4084 6 42.8339V21.1661C6 20.5916 6.22822 20.0407 6.63444 19.6345C7.04067 19.2282 7.59163 19 8.16612 19Z" fill="#107C41"/>
<path d="M11.7411 40.125L16.9996 31.9772L12.1831 23.875H16.0587L18.688 29.0539C18.9296 29.5446 19.0959 29.9108 19.1869 30.1524H19.221C19.3943 29.7602 19.5758 29.3789 19.7654 29.0084L22.575 23.875H26.1321L21.1921 31.9317L26.2572 40.125H22.471L19.4339 34.4375C19.2908 34.1952 19.1695 33.9407 19.0715 33.677H19.026C18.9374 33.9349 18.8196 34.1819 18.675 34.4131L15.5501 40.125H11.7411Z" fill="white"/>
</svg>
