<svg width="64" height="64" viewBox="0 0 64 64" fill="none" xmlns="http://www.w3.org/2000/svg">
<path d="M40 4H18.666C17.9589 4 17.2808 4.28088 16.7809 4.78085C16.2809 5.28083 16 5.95893 16 6.666V18L40 32L52 37.064L64 32V18L40 4Z" fill="#21A366"/>
<path d="M16 18H40V32H16V18Z" fill="#107C41"/>
<path d="M61.334 4H40V18H64V6.666C64 5.95893 63.7191 5.28083 63.2191 4.78085C62.7192 4.28088 62.0411 4 61.334 4Z" fill="#33C481"/>
<path d="M40 32H16V57.334C16 58.0411 16.2809 58.7192 16.7809 59.2191C17.2808 59.7191 17.9589 60 18.666 60H61.334C62.0411 60 62.7192 59.7191 63.2192 59.2191C63.7191 58.7192 64 58.0411 64 57.334V46L40 32Z" fill="#185C37"/>
<path d="M40 32H64V46H40V32Z" fill="#107C41"/>
<path opacity="0.1" d="M33.334 14H16V52H33.334C34.0404 51.9979 34.7173 51.7163 35.2168 51.2168C35.7163 50.7173 35.9979 50.0404 36 49.334V16.666C35.9979 15.9596 35.7163 15.2827 35.2168 14.7832C34.7173 14.2837 34.0404 14.0021 33.334 14Z" fill="black"/>
<path opacity="0.2" d="M31.334 16H16V54H31.334C32.0404 53.9979 32.7173 53.7163 33.2168 53.2168C33.7163 52.7173 33.9979 52.0404 34 51.334V18.666C33.9979 17.9596 33.7163 17.2827 33.2168 16.7832C32.7173 16.2837 32.0404 16.0021 31.334 16Z" fill="black"/>
<path opacity="0.2" d="M31.334 16H16V50H31.334C32.0404 49.9979 32.7173 49.7163 33.2168 49.2168C33.7163 48.7173 33.9979 48.0404 34 47.334V18.666C33.9979 17.9596 33.7163 17.2827 33.2168 16.7832C32.7173 16.2837 32.0404 16.0021 31.334 16Z" fill="black"/>
<path opacity="0.2" d="M29.334 16H16V50H29.334C30.0404 49.9979 30.7173 49.7163 31.2168 49.2168C31.7163 48.7173 31.9979 48.0404 32 47.334V18.666C31.9979 17.9596 31.7163 17.2827 31.2168 16.7832C30.7173 16.2837 30.0404 16.0021 29.334 16Z" fill="black"/>
<path d="M2.666 16H29.334C30.0411 16 30.7192 16.2809 31.2191 16.7809C31.7191 17.2808 32 17.9589 32 18.666V45.334C32 46.0411 31.7191 46.7192 31.2191 47.2192C30.7192 47.7191 30.0411 48 29.334 48H2.666C1.95893 48 1.28083 47.7191 0.780853 47.2192C0.280881 46.7192 0 46.0411 0 45.334L0 18.666C0 17.9589 0.280881 17.2808 0.780853 16.7809C1.28083 16.2809 1.95893 16 2.666 16Z" fill="#107C41"/>
<path d="M7.06599 42L13.538 31.972L7.60999 22H12.38L15.616 28.374C15.9133 28.978 16.118 29.4287 16.23 29.726H16.272C16.4853 29.2433 16.7087 28.774 16.942 28.318L20.4 22H24.778L18.698 31.916L24.932 42H20.272L16.534 35C16.3579 34.7018 16.2086 34.3886 16.088 34.064H16.032C15.9229 34.3814 15.778 34.6854 15.6 34.97L11.754 42H7.06599Z" fill="white"/>
</svg>
