<svg width="64" height="64" viewBox="0 0 64 64" fill="none" xmlns="http://www.w3.org/2000/svg">
    <path fill-rule="evenodd" clip-rule="evenodd" d="M58 13.4286C58 9.32429 54.6757 6 50.5714 6H13.4286C9.32429 6 6 9.32429 6 13.4286V50.5714C6 54.6757 9.32429 58 13.4286 58H50.5714C54.6757 58 58 54.6757 58 50.5714V13.4286Z" fill="#161616"/>
    <path fill-rule="evenodd" clip-rule="evenodd" d="M38.5093 25.5093C42.1029 25.5093 45.0186 28.425 45.0186 32.0186C45.0186 35.6121 42.1029 38.5279 38.5093 38.5279C34.9157 38.5279 32 35.6121 32 32.0186C32 28.425 34.9157 25.5093 38.5093 25.5093Z" fill="#0CC2FF"/>
    <path fill-rule="evenodd" clip-rule="evenodd" d="M45 19C45 15.4064 42.0936 12.5 38.5 12.5H25.4814C21.8879 12.5 18.9814 15.4064 18.9814 19C18.9814 22.5936 21.8879 25.5 25.4814 25.5H38.5C42.0936 25.5 45 22.5936 45 19Z" fill="#FF7568"/>
    <path fill-rule="evenodd" clip-rule="evenodd" d="M31.9907 25.5093H25.4814C23.7543 25.5093 22.1014 26.1964 20.885 27.4129C19.6686 28.6293 18.9814 30.2821 18.9814 32.0093C18.9814 33.7364 19.6686 35.3893 20.885 36.6057C22.1014 37.8221 23.7543 38.5093 25.4814 38.5093H31.9907V25.5093Z" fill="#AF5BFF"/>
    <path fill-rule="evenodd" clip-rule="evenodd" d="M31.9907 12.5H25.4814C23.7543 12.5 22.1014 13.1871 20.885 14.4036C19.6686 15.62 18.9814 17.2729 18.9814 19C18.9814 20.7271 19.6686 22.38 20.885 23.5964C22.1014 24.8129 23.7543 25.5 25.4814 25.5H31.9907V12.5Z" fill="#FF4611"/>
    <path fill-rule="evenodd" clip-rule="evenodd" d="M32 38.4907H25.4907C23.7636 38.4907 22.1107 39.1779 20.8943 40.3943C19.6779 41.6107 18.9907 43.2636 18.9907 44.9907C18.9907 46.7179 19.6779 48.3707 20.8943 49.5871C22.1107 50.8036 23.7636 51.4907 25.4907 51.4907C27.2179 51.4907 28.8707 50.8036 30.0871 49.5871C31.3036 48.3707 31.9907 46.7179 31.9907 44.9907V38.4907H32Z" fill="#00E681"/>
</svg>
