<svg width="64" height="64" viewBox="0 0 64 64" fill="none" xmlns="http://www.w3.org/2000/svg">
<path d="M56.6764 29.7161L34.2852 7.326C32.9965 6.03656 30.9052 6.03656 29.6145 7.326L24.9658 11.9759L30.8637 17.8739C32.2348 17.4112 33.8062 17.7215 34.8986 18.8139C35.9967 19.9132 36.305 21.498 35.8301 22.8736L41.5144 28.5587C42.8895 28.0846 44.4768 28.3909 45.5744 29.491C47.1101 31.0254 47.1101 33.5129 45.5744 35.0481C44.0388 36.5837 41.5522 36.5837 40.0157 35.0481C38.8612 33.8927 38.5756 32.1966 39.1606 30.7739L33.8598 25.4728L33.859 39.4238C34.2336 39.6087 34.5866 39.8557 34.8986 40.1664C36.4338 41.7008 36.4338 44.1875 34.8986 45.7252C33.3634 47.2596 30.8751 47.2596 29.3415 45.7252C27.8067 44.1879 27.6807 41.7012 29.2152 40.1664C29.5946 39.7874 29.9688 39.501 30.375 39.3092V25.229C29.9688 25.0373 29.595 24.7529 29.2148 24.3714C28.0525 23.2096 27.8351 21.5033 28.4315 20.0749L22.6493 14.2603L7.31178 29.6125C6.02194 30.9031 6.03006 32.9945 7.31991 34.2843L29.7148 56.6744C31.0039 57.9638 33.0969 57.9638 34.3879 56.6744L56.6748 34.3883C57.9647 33.0981 57.9659 31.0055 56.6764 29.7161Z" fill="#F34F29"/>
</svg>
