<svg width="64" height="64" viewBox="0 0 64 64" fill="none" xmlns="http://www.w3.org/2000/svg">
<path d="M38.7788 28.0023C38.9047 28.2484 38.6529 28.2484 38.5269 28.2484L34.2451 29.3558C33.8673 29.6019 33.6154 29.2327 33.6154 29.2327C30.9707 26.0336 25.4295 28.2484 25.1776 32.924C24.9258 37.3536 30.8448 39.0762 33.6154 34.6466H28.8298C28.452 34.6466 27.8223 34.5236 28.452 33.4162L29.4595 31.3245C29.7114 30.8323 29.8373 30.8323 30.5929 30.8323H39.4085C39.4085 40.7988 28.0742 45.2284 22.0292 39.1993C19.2586 36.3693 18.3771 29.971 24.0442 25.4184C28.5779 21.8501 36.1341 21.8501 38.7788 28.0023ZM40.7938 39.8145C35.1266 35.0158 38.1491 25.0493 47.0906 23.4497C56.284 21.8501 60.314 30.2171 56.6618 36.4923C53.6393 41.7832 45.5794 43.998 40.7938 39.8145ZM52.6318 33.5393C53.7653 30.4632 51.4984 27.5101 48.0981 27.7562C44.32 28.1253 41.6753 32.924 44.0681 35.754C46.4609 38.461 51.3725 37.2306 52.6318 33.5393ZM12.2062 33.2932V33.1701L12.458 32.5549L12.7099 32.4319H17.8733L17.9992 32.5549L17.8733 33.1701L17.7474 33.2932H12.2062ZM6.1612 31.0784C6.1612 31.0784 5.90933 31.0784 6.03526 30.9553L6.53901 30.2171L6.79088 30.094H18.3771L18.503 30.2171L18.2511 30.8323L18.1252 30.9553L6.1612 31.0784ZM9.9393 28.7406L9.81336 28.6175L10.443 28.0023L10.6949 27.8793H19.7624V28.0023L19.3846 28.6175L19.1327 28.7406H9.9393Z" fill="#00ACD7"/>
</svg>
