<svg width="64" height="64" viewBox="0 0 64 64" fill="none" xmlns="http://www.w3.org/2000/svg">
<circle cx="26.5" cy="31.5" r="20.5" fill="#454DA1"/>
<rect x="26" y="28" width="32" height="24" fill="#454DA1"/>
<path d="M20.0864 40.0522V38.2432H24.7593V42.5205C24.3052 42.96 23.646 43.3481 22.7817 43.6851C21.9224 44.0171 21.0508 44.1831 20.167 44.1831C19.0439 44.1831 18.0649 43.9487 17.23 43.48C16.395 43.0063 15.7676 42.3325 15.3477 41.4585C14.9277 40.5796 14.7178 39.625 14.7178 38.5947C14.7178 37.4766 14.9521 36.4829 15.4209 35.6138C15.8896 34.7446 16.5757 34.0781 17.479 33.6143C18.1675 33.2578 19.0244 33.0796 20.0498 33.0796C21.3828 33.0796 22.4229 33.3604 23.1699 33.9219C23.9219 34.4785 24.4053 35.25 24.6201 36.2363L22.4668 36.6392C22.3154 36.1118 22.0298 35.6968 21.6099 35.394C21.1948 35.0864 20.6748 34.9326 20.0498 34.9326C19.1025 34.9326 18.3481 35.2329 17.7866 35.8335C17.23 36.4341 16.9517 37.3252 16.9517 38.5068C16.9517 39.7812 17.2349 40.7383 17.8013 41.3779C18.3677 42.0127 19.1099 42.3301 20.0278 42.3301C20.4819 42.3301 20.936 42.2422 21.3901 42.0664C21.8491 41.8857 22.2422 41.6685 22.5693 41.4146V40.0522H20.0864ZM26.7661 44V33.2627H30.2451C31.5635 33.2627 32.4229 33.3164 32.8232 33.4238C33.4385 33.585 33.9536 33.9365 34.3687 34.4785C34.7837 35.0156 34.9912 35.7114 34.9912 36.5659C34.9912 37.2251 34.8716 37.7793 34.6323 38.2285C34.3931 38.6777 34.0879 39.0317 33.7168 39.2905C33.3506 39.5444 32.9771 39.7129 32.5962 39.7959C32.0786 39.8984 31.3291 39.9497 30.3477 39.9497H28.9341V44H26.7661ZM28.9341 35.0791V38.126H30.1206C30.9751 38.126 31.5464 38.0698 31.8345 37.9575C32.1226 37.8452 32.3472 37.6694 32.5083 37.4302C32.6743 37.1909 32.7573 36.9126 32.7573 36.5952C32.7573 36.2046 32.6426 35.8823 32.4131 35.6284C32.1836 35.3745 31.8931 35.2158 31.5415 35.1523C31.2827 35.1035 30.7627 35.0791 29.9814 35.0791H28.9341ZM36.2217 40.5063L38.3311 40.3013C38.458 41.0093 38.7144 41.5293 39.1001 41.8613C39.4907 42.1934 40.0156 42.3594 40.6748 42.3594C41.373 42.3594 41.8979 42.2129 42.2495 41.9199C42.606 41.6221 42.7842 41.2754 42.7842 40.8799C42.7842 40.626 42.7085 40.4111 42.5571 40.2354C42.4106 40.0547 42.1519 39.8984 41.7808 39.7666C41.5269 39.6787 40.9482 39.5225 40.0449 39.2979C38.8828 39.0098 38.0674 38.6558 37.5986 38.2358C36.9395 37.645 36.6099 36.9248 36.6099 36.0752C36.6099 35.5283 36.7637 35.0181 37.0713 34.5444C37.3838 34.0659 37.8306 33.7021 38.4116 33.4531C38.9976 33.2041 39.7031 33.0796 40.5283 33.0796C41.876 33.0796 42.8892 33.375 43.5679 33.9658C44.2515 34.5566 44.6104 35.3452 44.6445 36.3315L42.4766 36.4268C42.3838 35.875 42.1836 35.4795 41.876 35.2402C41.5732 34.9961 41.1167 34.874 40.5063 34.874C39.8765 34.874 39.3833 35.0034 39.0269 35.2622C38.7974 35.4282 38.6826 35.6504 38.6826 35.9287C38.6826 36.1826 38.79 36.3999 39.0049 36.5806C39.2783 36.8101 39.9424 37.0493 40.9971 37.2983C42.0518 37.5474 42.8306 37.8062 43.3335 38.0747C43.8413 38.3384 44.2368 38.7021 44.52 39.166C44.8081 39.625 44.9521 40.1938 44.9521 40.8726C44.9521 41.4878 44.7812 42.064 44.4395 42.6011C44.0977 43.1382 43.6143 43.5386 42.9893 43.8022C42.3643 44.061 41.5854 44.1904 40.6528 44.1904C39.2954 44.1904 38.2529 43.8779 37.5254 43.2529C36.7979 42.623 36.3633 41.7075 36.2217 40.5063ZM46.2266 40.5063L48.3359 40.3013C48.4629 41.0093 48.7192 41.5293 49.105 41.8613C49.4956 42.1934 50.0205 42.3594 50.6797 42.3594C51.3779 42.3594 51.9028 42.2129 52.2544 41.9199C52.6108 41.6221 52.7891 41.2754 52.7891 40.8799C52.7891 40.626 52.7134 40.4111 52.562 40.2354C52.4155 40.0547 52.1567 39.8984 51.7856 39.7666C51.5317 39.6787 50.9531 39.5225 50.0498 39.2979C48.8877 39.0098 48.0723 38.6558 47.6035 38.2358C46.9443 37.645 46.6147 36.9248 46.6147 36.0752C46.6147 35.5283 46.7686 35.0181 47.0762 34.5444C47.3887 34.0659 47.8354 33.7021 48.4165 33.4531C49.0024 33.2041 49.708 33.0796 50.5332 33.0796C51.8809 33.0796 52.894 33.375 53.5728 33.9658C54.2563 34.5566 54.6152 35.3452 54.6494 36.3315L52.4814 36.4268C52.3887 35.875 52.1885 35.4795 51.8809 35.2402C51.5781 34.9961 51.1216 34.874 50.5112 34.874C49.8813 34.874 49.3882 35.0034 49.0317 35.2622C48.8022 35.4282 48.6875 35.6504 48.6875 35.9287C48.6875 36.1826 48.7949 36.3999 49.0098 36.5806C49.2832 36.8101 49.9473 37.0493 51.002 37.2983C52.0566 37.5474 52.8354 37.8062 53.3384 38.0747C53.8462 38.3384 54.2417 38.7021 54.5249 39.166C54.813 39.625 54.957 40.1938 54.957 40.8726C54.957 41.4878 54.7861 42.064 54.4443 42.6011C54.1025 43.1382 53.6191 43.5386 52.9941 43.8022C52.3691 44.061 51.5903 44.1904 50.6577 44.1904C49.3003 44.1904 48.2578 43.8779 47.5303 43.2529C46.8027 42.623 46.3682 41.7075 46.2266 40.5063Z" fill="white"/>
</svg>
