<svg width="64" height="64" viewBox="0 0 64 64" fill="none" xmlns="http://www.w3.org/2000/svg">
<path d="M13.173 52.8022L9 6H54.851L50.6737 52.7935L31.8973 58L13.173 52.8022Z" fill="#E44D26"/>
<path d="M31.9255 54.022L47.0987 49.8165L50.6672 9.82632H31.9255V54.022Z" fill="#F16529"/>
<path d="M31.9255 27.1857H24.3292L23.8048 21.3075H31.9255V15.568H17.5323L17.6688 17.1063L19.0793 32.9252H31.9255V27.1857ZM31.9255 42.0923L31.8995 42.0988L25.5078 40.372L25.0983 35.7938H19.3372L20.141 44.8072L31.8995 48.0702L31.9255 48.0637V42.0923Z" fill="#EBEBEB"/>
<path d="M31.906 27.1857V32.9252H38.9737L38.3063 40.3698L31.9038 42.0967V48.068L43.671 44.8072L43.7577 43.8365L45.1075 28.724L45.2483 27.1835H43.7013L31.906 27.1857ZM31.906 15.568V21.3075H45.7705L45.8853 20.0162L46.1475 17.1063L46.284 15.5658L31.906 15.568Z" fill="white"/>
</svg>
