<svg width="47" height="64" viewBox="0 0 47 64" fill="none" xmlns="http://www.w3.org/2000/svg">
<path d="M14.8498 49.3333C5.73425 52.107 20.3944 57.8371 32 52.4207C30.0991 51.6157 28.738 50.6864 28.738 50.6864C23.561 51.7534 21.16 51.8371 16.4621 51.2535C12.5843 50.768 14.8498 49.3333 14.8498 49.3333ZM12.8771 44C1.7242 47.7026 19.0823 51.9013 34.6667 47.3431C33.0102 46.7589 31.9567 45.6907 31.9567 45.6907C24.3402 47.1576 19.9386 47.1106 14.365 46.5354C10.055 46.0895 12.8771 44 12.8771 44ZM44.0728 55.0908C44.0728 55.0908 45.9214 56.2594 42.0368 57.1634C34.6499 58.8801 11.2919 59.3984 4.80318 57.2318C2.47064 56.4533 6.84481 55.3731 8.22076 55.1464C9.65573 54.9077 10.4758 54.9521 10.4758 54.9521C7.88175 53.5503 -6.29092 57.7047 3.27675 58.8945C29.3692 62.1406 50.8408 57.4328 44.0728 55.0908ZM16.5182 36.0099C16.5182 36.0099 4.94141 38.6259 12.4186 39.5758C15.5757 39.978 21.8693 39.887 27.7316 39.4197C32.5226 39.0352 37.3333 38.2177 37.3333 38.2177C37.3333 38.2177 35.644 38.906 34.4217 39.7C22.6657 42.6415 -0.0448023 41.2731 6.49326 38.2642C12.0225 35.7214 16.5182 36.0099 16.5182 36.0099ZM37.5548 46.3338C37.5038 46.491 37.3333 46.6667 37.3333 46.6667C52.0488 42.2042 46.6388 30.9372 39.6042 33.7901C38.9862 34.0432 38.6627 34.6278 38.6627 34.6278C38.6627 34.6278 39.0513 34.4465 39.9228 34.2373C43.4786 33.3822 48.5731 39.7292 37.5548 46.3338ZM16.0207 63.8231C27.936 64.4719 46.2333 63.463 46.6667 58.6667C46.6667 58.6667 45.8337 60.4849 36.8193 61.9289C26.6494 63.5571 14.1062 63.367 6.66667 62.3235C6.66667 62.3235 8.18963 63.3958 16.0207 63.8231Z" fill="#5382A1"/>
<path d="M27.9777 31.6219C18.2047 19.0422 38.6667 13.3333 38.6667 13.3333C25.6308 21.779 28.0388 24.2285 31.1788 29.1585C34.5409 34.445 27.2202 38.6667 27.2202 38.6667C27.2202 38.6667 30.8608 35.3299 27.9777 31.6219ZM30.2077 0C30.2077 0 37.1933 6.82062 23.5822 17.3088C12.6674 25.7221 21.0933 30.5192 23.5776 36C17.2065 30.3893 12.531 25.4503 15.6677 20.8534C20.2717 14.1057 33.0262 10.8341 30.2077 0Z" fill="#E76F00"/>
</svg>
