<svg width="64" height="64" viewBox="0 0 64 64" fill="none" xmlns="http://www.w3.org/2000/svg">
<path d="M25.0655 46.0833C17.6591 48.3369 29.5705 52.9926 39 48.5918C37.4555 47.9378 36.3497 47.1827 36.3497 47.1827C32.1433 48.0496 30.1925 48.1176 26.3755 47.6434C23.2248 47.249 25.0655 46.0833 25.0655 46.0833ZM23.4627 41.75C14.4009 44.7584 28.5044 48.1698 41.1667 44.4663C39.8208 43.9916 38.9648 43.1237 38.9648 43.1237C32.7764 44.3156 29.2001 44.2773 24.6716 43.81C21.1697 43.4477 23.4627 41.75 23.4627 41.75ZM48.8091 50.7613C48.8091 50.7613 50.3112 51.7107 47.1549 52.4453C41.1531 53.84 22.1747 54.2612 16.9026 52.5008C15.0074 51.8683 18.5614 50.9906 19.6794 50.8064C20.8453 50.6125 21.5116 50.6486 21.5116 50.6486C19.4039 49.5096 7.88863 52.8851 15.6624 53.8518C36.8625 56.4893 54.3081 52.6641 48.8091 50.7613ZM26.4211 35.258C26.4211 35.258 17.0149 37.3835 23.0901 38.1554C25.6552 38.4821 30.7688 38.4082 35.5319 38.0285C39.4246 37.7161 43.3333 37.0519 43.3333 37.0519C43.3333 37.0519 41.9607 37.6111 40.9677 38.2562C31.4159 40.6462 12.9636 39.5344 18.2758 37.0897C22.7683 35.0236 26.4211 35.258 26.4211 35.258ZM43.5133 43.6462C43.4718 43.7739 43.3333 43.9167 43.3333 43.9167C55.2897 40.2909 50.894 31.1365 45.1784 33.4544C44.6763 33.6601 44.4134 34.1351 44.4134 34.1351C44.4134 34.1351 44.7291 33.9878 45.4373 33.8178C48.3264 33.123 52.4656 38.2799 43.5133 43.6462ZM26.0169 57.8562C35.698 58.3834 50.5646 57.5637 50.9167 53.6667C50.9167 53.6667 50.2399 55.144 42.9157 56.3173C34.6526 57.6402 24.4613 57.4857 18.4167 56.6379C18.4167 56.6379 19.6541 57.5091 26.0169 57.8562Z" fill="#5382A1"/>
<path d="M35.7319 31.6928C27.7913 21.4718 44.4167 16.8333 44.4167 16.8333C33.825 23.6954 35.7815 25.6857 38.3328 29.6913C41.0644 33.9866 35.1164 37.4167 35.1164 37.4167C35.1164 37.4167 38.0744 34.7056 35.7319 31.6928ZM37.5438 6C37.5438 6 43.2196 11.5417 32.1605 20.0634C23.2923 26.8992 30.1383 30.7968 32.1568 35.25C26.9803 30.6913 23.1814 26.6783 25.73 22.9434C29.4707 17.4609 39.8338 14.8027 37.5438 6Z" fill="#E76F00"/>
</svg>
