<svg width="64" height="64" viewBox="0 0 64 64" fill="none" xmlns="http://www.w3.org/2000/svg">
<path d="M6 6H58V58H6V6Z" fill="#F7DF1E"/>
<path d="M19.8127 49.461L23.7741 47.0483C24.5385 48.4119 25.2337 49.5658 26.9014 49.5658C28.4999 49.5658 29.508 48.9366 29.508 46.4888V29.8425H34.3727V46.558C34.3727 51.6287 31.4191 53.9369 27.1099 53.9369C23.2182 53.9369 20.9593 51.9086 19.8125 49.4606M37.015 48.9364L40.976 46.6284C42.0189 48.3421 43.3741 49.601 45.7716 49.601C47.7875 49.601 49.0728 48.5867 49.0728 47.1879C49.0728 45.5093 47.7523 44.9147 45.5283 43.9358L44.3124 43.4108C40.8025 41.9075 38.4744 40.019 38.4744 36.0323C38.4744 32.3603 41.2543 29.5625 45.5981 29.5625C48.6908 29.5625 50.9148 30.6468 52.5131 33.4794L48.7252 35.9275C47.891 34.4238 46.9879 33.8294 45.5979 33.8294C44.1731 33.8294 43.2696 34.7386 43.2696 35.9275C43.2696 37.3962 44.1731 37.9911 46.2579 38.9003L47.4741 39.4248C51.6094 41.2085 53.9375 43.0268 53.9375 47.1181C53.9375 51.5247 50.4974 53.9375 45.8757 53.9375C41.3584 53.9375 38.4394 51.7694 37.0148 48.9366" fill="black"/>
</svg>
