<svg width="64" height="64" viewBox="0 0 64 64" fill="none" xmlns="http://www.w3.org/2000/svg">
<path d="M31.753 27.1662C35.3215 27.1662 38.1447 28.1108 40.229 29.998C42.3112 31.8873 43.3533 34.4613 43.3533 37.7243C43.3533 41.503 42.166 44.4562 39.7935 46.586C37.4362 48.7028 34.0778 49.7602 29.7185 49.7602C25.7622 49.7602 22.6552 49.1232 20.3953 47.847V42.6903C21.8081 43.473 23.3247 44.0514 24.8998 44.4085C26.5942 44.8115 28.1693 45.0152 29.6232 45.0152C32.1885 45.0152 34.1428 44.441 35.4818 43.2948C36.823 42.1465 37.4925 40.4695 37.4925 38.2573C37.4925 34.028 34.795 31.9112 29.4043 31.9112C28.646 31.9112 27.7078 31.9935 26.5942 32.1538C25.4805 32.299 24.5033 32.468 23.6648 32.663L21.1212 31.1615L22.4775 13.8715H40.8833V18.9307H27.4912L26.6895 27.697C27.2572 27.6017 27.9418 27.489 28.7478 27.359C29.5712 27.229 30.5743 27.164 31.753 27.164V27.1662ZM32 6C17.6415 6 6 17.6415 6 32C6.00087 36.8342 7.34968 41.5724 9.89491 45.6822C12.4401 49.7921 16.081 53.1109 20.4083 55.2657V47.3032H20.7073C20.729 47.3118 31.2373 52.6462 38.0862 47.3032C44.9393 41.9558 41.5962 34.769 40.4262 33.0963C39.2562 31.4258 33.2393 28.5832 28.0588 29.0858C22.8783 29.5863 22.8783 29.7532 22.8783 29.7532L24.2152 14.3785L40.8703 14.2182V7.612C38.0293 6.56197 35.0267 6.01643 31.9978 6L32 6ZM40.8703 7.612V14.2182L24.2152 14.3785L22.8783 29.7532C22.8783 29.7532 22.8783 29.5863 28.0588 29.0858C33.2415 28.5832 39.2583 31.4258 40.4262 33.0963C41.5962 34.769 44.9393 41.9558 38.0862 47.3032C31.2395 52.6483 20.7225 47.3118 20.7073 47.3032H20.4083V55.2657C24.0093 57.062 27.9759 57.9981 32 58C46.3607 58 58 46.3585 58 32C57.9919 26.7669 56.4058 21.6579 53.4488 17.3403C50.4918 13.0227 46.3014 9.69727 41.425 7.79833C41.2408 7.73333 41.0545 7.6705 40.8703 7.612Z" fill="#25A162"/>
</svg>
