<svg width="64" height="64" viewBox="0 0 64 64" fill="none" xmlns="http://www.w3.org/2000/svg">
<g clip-path="url(#clip0_180_2)">
<path d="M44.8375 14.0838C41.074 11.4622 36.8707 10.1513 32.6652 10.1513C28.3268 10.1383 24.0851 11.4324 20.4928 13.865C16.9525 16.4867 14.2962 19.7648 12.747 23.9162C16.7315 19.3272 24.0353 16.4888 32.6673 16.4888C41.0783 16.4888 48.6032 19.5482 52.5877 23.9162C51.0342 19.9837 48.3778 16.4867 44.8375 14.0838ZM44.8375 47.73C48.3778 45.3272 51.0342 41.8302 52.5833 37.8977C48.5988 42.2678 41.074 45.3272 32.663 45.3272C24.252 45.3272 16.7272 42.2678 12.7427 37.8977C14.2918 41.8302 16.9482 45.3272 20.4885 47.73C24.0288 50.1328 28.2343 51.4437 32.6608 51.4437C37.0873 51.4437 41.295 50.135 44.8375 47.73Z" fill="#EC7424"/>
<path d="M13.631 15.1758C14.8539 15.1758 15.8453 14.198 15.8453 12.9918C15.8453 11.7856 14.8539 10.8078 13.631 10.8078C12.4081 10.8078 11.4167 11.7856 11.4167 12.9918C11.4167 14.198 12.4081 15.1758 13.631 15.1758Z" fill="#737374"/>
<path d="M16.9503 58C19.1509 58 20.9348 56.2394 20.9348 54.0675C20.9348 51.8956 19.1509 50.135 16.9503 50.135C14.7498 50.135 12.9658 51.8956 12.9658 54.0675C12.9658 56.2394 14.7498 58 16.9503 58Z" fill="#737374"/>
<path d="M48.1568 12.1187C49.868 12.1187 51.2552 10.749 51.2552 9.05933C51.2552 7.36971 49.868 6 48.1568 6C46.4457 6 45.0585 7.36971 45.0585 9.05933C45.0585 10.749 46.4457 12.1187 48.1568 12.1187Z" fill="#737374"/>
</g>
<defs>
<clipPath id="clip0_180_2">
<rect width="52" height="52" fill="white" transform="translate(6 6)"/>
</clipPath>
</defs>
</svg>
