<svg width="64" height="27" viewBox="0 0 64 27" fill="none" xmlns="http://www.w3.org/2000/svg">
<path d="M14.4972 13.3233L14.5564 12.77H14H13.3824H12.9274L12.8846 13.223C12.7537 14.6083 12.6021 15.9998 11.9801 17.0555C11.6777 17.5687 11.2653 17.9976 10.6824 18.3026C10.0954 18.6097 9.30744 18.8056 8.23529 18.8056H6.17647C5.88429 18.8056 5.69498 18.7952 5.56808 18.7735C5.51868 18.7651 5.48789 18.7564 5.47005 18.7502C5.46741 18.74 5.46429 18.7258 5.46117 18.7067C5.44547 18.6107 5.44118 18.471 5.44118 18.2374V4.08309C5.44118 3.83768 5.44392 3.70794 5.46601 3.61284C5.48031 3.55127 5.4944 3.53585 5.52598 3.51424C5.5839 3.47459 5.72145 3.41379 6.03337 3.36864C6.3384 3.32449 6.76417 3.30119 7.36029 3.30119H8.18382H8.68382V2.80119V2V1.47195L8.15656 1.50074C7.19598 1.55321 4.94936 1.55341 3.86029 1.55341C2.87326 1.55341 0.886079 1.55316 0.0304647 1.50093L-0.5 1.46855V2V2.80119V3.30119H0H0.566176C1.04881 3.30119 1.39022 3.31798 1.63412 3.35289C1.88431 3.3887 1.97846 3.43692 2.00945 3.45943C2.01004 3.45986 2.01068 3.46028 2.01137 3.46073C2.01902 3.46578 2.03224 3.47449 2.04669 3.53994C2.06823 3.6375 2.07353 3.77832 2.07353 4.02967V17.9703C2.07353 18.2217 2.06823 18.3625 2.04669 18.4601C2.03224 18.5255 2.01902 18.5342 2.01137 18.5393C2.01068 18.5397 2.01004 18.5401 2.00945 18.5406C1.97846 18.5631 1.88431 18.6113 1.63412 18.6471C1.39022 18.682 1.04881 18.6988 0.566176 18.6988H0H-0.5V19.1988V20V20.5H0H13.2794H13.7287L13.7766 20.0532L14.4972 13.3233ZM5.47731 18.7724C5.47729 18.7724 5.47704 18.7719 5.47658 18.7709L5.47731 18.7724Z" fill="black" stroke="white"/>
<path d="M9.29128 12.5258C9.2932 12.512 9.29841 12.4831 9.31587 12.4173L10.0821 10.6619H14.7368L15.6791 12.8383L15.6808 12.8422C15.6527 12.85 15.6195 12.8578 15.5807 12.8653C15.3206 12.9154 14.9939 12.917 14.7433 12.917H14.2433V13.417V14V14.5H14.7433H20H20.5V14V13.417V12.917H20H19.6245C18.9931 12.917 18.7522 12.8739 18.6507 12.8279C18.6489 12.8271 18.6471 12.8266 18.6452 12.8261C18.6291 12.8215 18.6054 12.8147 18.5436 12.6282L18.5359 12.605L18.526 12.5826L13.9197 2.20107C13.9193 2.19991 13.9189 2.19875 13.9184 2.19757C13.8741 2.07628 13.797 1.86506 13.6307 1.71443C13.4215 1.52499 13.1677 1.5 12.9732 1.5C12.7734 1.5 12.5334 1.5274 12.3233 1.68594C12.1275 1.83375 12.0329 2.04095 11.9728 2.20182L7.68711 12.0515L7.68704 12.0515L7.68362 12.0597C7.60648 12.2461 7.52588 12.43 7.32665 12.587C7.12999 12.7418 6.75345 12.917 6 12.917H5.5V13.417V14V14.5H6H10.1303H10.6303V14V13.417V12.917H10.1303C9.79082 12.917 9.55497 12.8442 9.42184 12.7615C9.29826 12.6847 9.28927 12.6228 9.28927 12.5911C9.28927 12.5418 9.2898 12.5366 9.29128 12.5258ZM14.0377 9.12753H10.789L12.4316 5.39163L14.0377 9.12753Z" fill="black" stroke="white"/>
<path d="M34.9701 1.95643L34.9302 1.5H34.472H18.4752H18.0133L17.9767 1.96041L17.5016 7.94244L17.4587 8.48204H18H18.6335H19.0925L19.1317 8.02474C19.2242 6.94546 19.3146 6.10912 19.4564 5.4518C19.5981 4.79478 19.7816 4.36644 20.0273 4.07164C20.5016 3.50262 21.3602 3.25449 23.3851 3.25449C23.6239 3.25449 23.9078 3.25452 24.1643 3.26106C24.4357 3.26799 24.6289 3.28162 24.7105 3.29828C24.7648 3.30936 24.7975 3.32017 24.8156 3.32741C24.8205 3.34819 24.827 3.38577 24.8315 3.44957C24.8383 3.54632 24.8385 3.66505 24.8385 3.83233V17.8982C24.8385 18.1477 24.8351 18.2715 24.8118 18.3604C24.7991 18.4094 24.7875 18.4297 24.7354 18.4613C24.6535 18.5112 24.4791 18.5758 24.1165 18.6224C23.7618 18.6681 23.2718 18.6916 22.5932 18.6916H21.5373H21.0373V19.1916V20V20.5262L21.5628 20.4993C22.6023 20.4463 25.2775 20.4461 26.5 20.4461C27.7218 20.4461 30.3981 20.4463 31.4913 20.4994L32.0155 20.5249V20V19.1916V18.6916H31.5155H30.4596C29.781 18.6916 29.291 18.6681 28.9363 18.6224C28.5737 18.5758 28.3993 18.5112 28.3174 18.4613C28.2653 18.4297 28.2537 18.4094 28.2409 18.3604C28.2177 18.2715 28.2143 18.1477 28.2143 17.8982V3.88623C28.2143 3.74725 28.2145 3.6401 28.2206 3.54686C28.2268 3.45361 28.2375 3.40163 28.2472 3.37315C28.2483 3.37003 28.2492 3.36747 28.25 3.36541C28.2578 3.36189 28.2719 3.3566 28.2947 3.35114C28.3786 3.33514 28.5807 3.3218 28.8615 3.31497C29.1316 3.30841 29.429 3.30838 29.6677 3.30838C31.6702 3.30838 32.5124 3.54433 32.979 4.10503C33.2211 4.39586 33.4031 4.82189 33.5442 5.48204C33.6853 6.14212 33.7757 6.98542 33.8682 8.07811L33.907 8.53593H34.3665H35H35.5456L35.4981 7.99236L34.9701 1.95643ZM28.2419 3.36968C28.2419 3.36967 28.2423 3.36941 28.243 3.36895L28.2419 3.36968Z" fill="black" stroke="white"/>
<path d="M48.4937 19.2627L48.5867 18.6834H48H47.3746H46.9459L46.8805 19.1071C46.5636 21.1576 46.2612 22.5228 45.5685 23.4002C44.9186 24.2235 43.8435 24.7012 41.6938 24.7012H38.2541C37.9581 24.7012 37.7654 24.6908 37.6357 24.669C37.5828 24.6601 37.5504 24.6508 37.532 24.6444C37.5294 24.6345 37.5264 24.6209 37.5234 24.6026C37.5076 24.5076 37.5033 24.3691 37.5033 24.1361V17.5533H39.2964C40.5296 17.5533 41.0143 17.7726 41.25 18.0697C41.3749 18.227 41.4698 18.4535 41.5302 18.8012C41.5909 19.1514 41.6107 19.5885 41.6107 20.142V20.642H42.1107H42.7362H43.2362V20.142V13.1657V12.6657H42.7362H42.1107H41.6107V13.1657C41.6107 13.7215 41.594 14.1597 41.5367 14.5114C41.4797 14.8608 41.3883 15.0859 41.267 15.2412C41.0391 15.5333 40.56 15.7544 39.2964 15.7544H37.5033V9.86391C37.5033 9.64507 37.5076 9.51329 37.5231 9.4213C37.5276 9.39508 37.532 9.37807 37.5353 9.36775C37.5514 9.36057 37.5851 9.34837 37.6472 9.33646C37.7728 9.31235 37.9624 9.29882 38.2541 9.29882H41.5896C43.533 9.29882 44.5002 9.65666 45.0687 10.3115C45.6692 11.0032 45.9375 12.1374 46.1481 14.0201L46.1978 14.4645H46.645H47.2704H47.8353L47.7667 13.9038L47.037 7.93929L46.9833 7.5H46.5407H32H31.5V8V8.79882V9.29882H32H32.5733C33.0622 9.29882 33.4087 9.31556 33.6566 9.35051C33.9111 9.38637 34.0084 9.43488 34.0414 9.45845C34.042 9.45894 34.0428 9.45941 34.0435 9.45991C34.052 9.4655 34.0647 9.47388 34.0789 9.5373C34.1005 9.63349 34.1059 9.77288 34.1059 10.0237V23.8698C34.1059 24.1206 34.1005 24.26 34.0789 24.3562C34.0647 24.4196 34.052 24.428 34.0435 24.4336C34.0428 24.4341 34.042 24.4346 34.0414 24.435C34.0084 24.4586 33.9111 24.5071 33.6566 24.543C33.4087 24.5779 33.0622 24.5947 32.5733 24.5947H32H31.5V25.0947V26V26.5H32H46.9055H47.3317L47.3992 26.0793L48.4937 19.2627ZM37.5391 24.6661C37.5391 24.6662 37.5389 24.6657 37.5384 24.6646L37.5391 24.6661ZM37.5406 9.35428C37.5406 9.35433 37.5403 9.35505 37.5395 9.35629C37.5402 9.35485 37.5406 9.35423 37.5406 9.35428ZM37.5236 9.37369C37.5232 9.37401 37.523 9.37416 37.523 9.37415L37.5236 9.37369Z" fill="black" stroke="white"/>
<path d="M57.7466 4.34623L55.2358 8.16679L52.3513 3.6992L52.3246 3.65789L52.3138 3.64674C52.3115 3.64249 52.3088 3.63747 52.3059 3.63174C52.305 3.62999 52.3042 3.62821 52.3033 3.6264C52.3289 3.60384 52.3706 3.57289 52.4373 3.53606C52.6325 3.42825 52.9665 3.32206 53.4515 3.29821L53.9269 3.27484V2.79882V2V1.46871L53.3966 1.50092C52.539 1.55301 50.7019 1.55325 49.7135 1.55325C48.9346 1.55325 47.3515 1.55309 46.3882 1.50074L45.861 1.47209V2V2.79882V3.29882H46.361H46.8252C47.5202 3.29882 47.9171 3.34164 48.1866 3.44101C48.418 3.52633 48.5838 3.66405 48.7733 3.96841L48.7732 3.96842L48.7763 3.97326L53.2958 11.0501L49.2972 17.1667C49.2917 17.1749 49.286 17.1833 49.2803 17.1917C49.1027 17.4542 48.8663 17.8036 48.4116 18.1058C47.9444 18.4163 47.206 18.7012 46 18.7012H45.5V19.2012V20V20.5H46H52.1375H52.6375V20V19.2012V18.7012H52.1375C51.6549 18.7012 51.3875 18.5527 51.2432 18.4113C51.0893 18.2606 51.0387 18.0838 51.0387 17.9763C51.0387 17.9219 51.0434 17.9094 51.0521 17.8884C51.0708 17.8433 51.1103 17.7733 51.216 17.6094C51.2162 17.6091 51.2164 17.6088 51.2166 17.6085L54.404 12.7189L58.0444 18.381C58.0449 18.382 58.0453 18.3829 58.0458 18.3838C58.0197 18.4051 57.9809 18.4324 57.9237 18.4639C57.7285 18.5718 57.3945 18.6779 56.9095 18.7018L56.4341 18.7252V19.2012V20V20.5313L56.9644 20.4991C57.822 20.447 59.7106 20.4467 60.6476 20.4467C61.7333 20.4467 62.9068 20.4469 63.9754 20.4994L64.5 20.5252V20V19.2012V18.7012H64H63.5358C62.8577 18.7012 62.4778 18.6705 62.204 18.5713C61.9686 18.4861 61.7748 18.3355 61.53 17.9687L56.2929 9.83154L59.621 4.77796L59.6263 4.77001L59.6312 4.76187C59.8596 4.38452 60.1511 4.03293 60.6265 3.76819C61.1068 3.50073 61.8167 3.29882 62.9169 3.29882H63.4169V2.79882V2V1.5H62.9169H56.7794H56.2794V2V2.79882V3.29882H56.7794C57.6224 3.29882 57.8782 3.74097 57.8782 4.02367C57.8782 4.07543 57.8756 4.10094 57.8737 4.11319C57.8724 4.12179 57.8713 4.12477 57.8694 4.12946C57.8659 4.13826 57.8579 4.15537 57.8352 4.19521C57.8209 4.22016 57.8084 4.24138 57.793 4.26729C57.7803 4.28878 57.7657 4.31349 57.7466 4.34623Z" fill="black" stroke="white"/>
</svg>
