<svg width="64" height="64" viewBox="0 0 64 64" fill="none" xmlns="http://www.w3.org/2000/svg">
<g clip-path="url(#clip0_1_25)">
<path d="M14.4972 31.3233L14.5564 30.77H14H13.3824H12.9274L12.8846 31.223C12.7537 32.6083 12.6021 33.9998 11.9801 35.0555C11.6777 35.5687 11.2653 35.9976 10.6824 36.3026C10.0954 36.6097 9.30744 36.8056 8.23529 36.8056H6.17647C5.88429 36.8056 5.69498 36.7952 5.56808 36.7735C5.51868 36.7651 5.48789 36.7564 5.47005 36.7502C5.46741 36.74 5.46429 36.7258 5.46117 36.7067C5.44547 36.6107 5.44118 36.471 5.44118 36.2374V22.0831C5.44118 21.8377 5.44392 21.7079 5.46601 21.6128C5.48031 21.5513 5.4944 21.5359 5.52598 21.5142C5.5839 21.4746 5.72145 21.4138 6.03337 21.3686C6.3384 21.3245 6.76417 21.3012 7.36029 21.3012H8.18382H8.68382V20.8012V20V19.4719L8.15656 19.5007C7.19598 19.5532 4.94936 19.5534 3.86029 19.5534C2.87326 19.5534 0.886079 19.5532 0.0304647 19.5009L-0.5 19.4685V20V20.8012V21.3012H0H0.566176C1.04881 21.3012 1.39022 21.318 1.63412 21.3529C1.88431 21.3887 1.97846 21.4369 2.00945 21.4594C2.01004 21.4599 2.01068 21.4603 2.01137 21.4607C2.01902 21.4658 2.03224 21.4745 2.04669 21.5399C2.06823 21.6375 2.07353 21.7783 2.07353 22.0297V35.9703C2.07353 36.2217 2.06823 36.3625 2.04669 36.4601C2.03224 36.5255 2.01902 36.5342 2.01137 36.5393C2.01068 36.5397 2.01004 36.5401 2.00945 36.5406C1.97846 36.5631 1.88431 36.6113 1.63412 36.6471C1.39022 36.682 1.04881 36.6988 0.566176 36.6988H0H-0.5V37.1988V38V38.5H0H13.2794H13.7287L13.7766 38.0532L14.4972 31.3233ZM5.47731 36.7724C5.47729 36.7724 5.47704 36.7719 5.47658 36.7709L5.47731 36.7724Z" fill="black" stroke="white"/>
<path d="M9.29128 30.5258C9.2932 30.512 9.29841 30.4831 9.31587 30.4173L10.0821 28.6619H14.7368L15.6791 30.8383L15.6808 30.8422C15.6527 30.85 15.6195 30.8578 15.5807 30.8653C15.3206 30.9154 14.9939 30.917 14.7433 30.917H14.2433V31.417V32V32.5H14.7433H20H20.5V32V31.417V30.917H20H19.6245C18.9931 30.917 18.7522 30.8739 18.6507 30.8279C18.6489 30.8271 18.6471 30.8266 18.6452 30.8261C18.6291 30.8215 18.6054 30.8147 18.5436 30.6282L18.5359 30.605L18.526 30.5826L13.9197 20.2011C13.9193 20.1999 13.9189 20.1987 13.9184 20.1976C13.8741 20.0763 13.797 19.8651 13.6307 19.7144C13.4215 19.525 13.1677 19.5 12.9732 19.5C12.7734 19.5 12.5334 19.5274 12.3233 19.6859C12.1275 19.8338 12.0329 20.041 11.9728 20.2018L7.68711 30.0515L7.68704 30.0515L7.68362 30.0597C7.60648 30.2461 7.52588 30.43 7.32665 30.587C7.12999 30.7418 6.75345 30.917 6 30.917H5.5V31.417V32V32.5H6H10.1303H10.6303V32V31.417V30.917H10.1303C9.79082 30.917 9.55497 30.8442 9.42184 30.7615C9.29826 30.6847 9.28927 30.6228 9.28927 30.5911C9.28927 30.5418 9.2898 30.5366 9.29128 30.5258ZM14.0377 27.1275H10.789L12.4316 23.3916L14.0377 27.1275Z" fill="black" stroke="white"/>
<path d="M34.9701 19.9564L34.9302 19.5H34.472H18.4752H18.0133L17.9767 19.9604L17.5016 25.9424L17.4587 26.482H18H18.6335H19.0925L19.1317 26.0247C19.2242 24.9455 19.3146 24.1091 19.4564 23.4518C19.5981 22.7948 19.7816 22.3664 20.0273 22.0716C20.5016 21.5026 21.3602 21.2545 23.3851 21.2545C23.6239 21.2545 23.9078 21.2545 24.1643 21.2611C24.4357 21.268 24.6289 21.2816 24.7105 21.2983C24.7648 21.3094 24.7975 21.3202 24.8156 21.3274C24.8205 21.3482 24.827 21.3858 24.8315 21.4496C24.8383 21.5463 24.8385 21.6651 24.8385 21.8323V35.8982C24.8385 36.1477 24.8351 36.2715 24.8118 36.3604C24.7991 36.4094 24.7875 36.4297 24.7354 36.4613C24.6535 36.5112 24.4791 36.5758 24.1165 36.6224C23.7618 36.6681 23.2718 36.6916 22.5932 36.6916H21.5373H21.0373V37.1916V38V38.5262L21.5628 38.4993C22.6023 38.4463 25.2775 38.4461 26.5 38.4461C27.7218 38.4461 30.3981 38.4463 31.4913 38.4994L32.0155 38.5249V38V37.1916V36.6916H31.5155H30.4596C29.781 36.6916 29.291 36.6681 28.9363 36.6224C28.5737 36.5758 28.3993 36.5112 28.3174 36.4613C28.2653 36.4297 28.2537 36.4094 28.2409 36.3604C28.2177 36.2715 28.2143 36.1477 28.2143 35.8982V21.8862C28.2143 21.7472 28.2145 21.6401 28.2206 21.5469C28.2268 21.4536 28.2375 21.4016 28.2472 21.3731C28.2483 21.37 28.2492 21.3675 28.25 21.3654C28.2578 21.3619 28.2719 21.3566 28.2947 21.3511C28.3786 21.3351 28.5807 21.3218 28.8615 21.315C29.1316 21.3084 29.429 21.3084 29.6677 21.3084C31.6702 21.3084 32.5124 21.5443 32.979 22.105C33.2211 22.3959 33.4031 22.8219 33.5442 23.482C33.6853 24.1421 33.7757 24.9854 33.8682 26.0781L33.907 26.5359H34.3665H35H35.5456L35.4981 25.9924L34.9701 19.9564ZM28.2419 21.3697C28.2419 21.3697 28.2423 21.3694 28.243 21.369L28.2419 21.3697Z" fill="black" stroke="white"/>
<path d="M48.4937 37.2627L48.5867 36.6834H48H47.3746H46.9459L46.8805 37.1071C46.5636 39.1576 46.2612 40.5228 45.5685 41.4002C44.9186 42.2235 43.8435 42.7012 41.6938 42.7012H38.2541C37.9581 42.7012 37.7654 42.6908 37.6357 42.669C37.5828 42.6601 37.5504 42.6508 37.532 42.6444C37.5294 42.6345 37.5264 42.6209 37.5234 42.6026C37.5076 42.5076 37.5033 42.3691 37.5033 42.1361V35.5533H39.2964C40.5296 35.5533 41.0143 35.7726 41.25 36.0697C41.3749 36.227 41.4698 36.4535 41.5302 36.8012C41.5909 37.1514 41.6107 37.5885 41.6107 38.142V38.642H42.1107H42.7362H43.2362V38.142V31.1657V30.6657H42.7362H42.1107H41.6107V31.1657C41.6107 31.7215 41.594 32.1597 41.5367 32.5114C41.4797 32.8608 41.3883 33.0859 41.267 33.2412C41.0391 33.5333 40.56 33.7544 39.2964 33.7544H37.5033V27.8639C37.5033 27.6451 37.5076 27.5133 37.5231 27.4213C37.5276 27.3951 37.532 27.3781 37.5353 27.3677C37.5514 27.3606 37.5851 27.3484 37.6472 27.3365C37.7728 27.3124 37.9624 27.2988 38.2541 27.2988H41.5896C43.533 27.2988 44.5002 27.6567 45.0687 28.3115C45.6692 29.0032 45.9375 30.1374 46.1481 32.0201L46.1978 32.4645H46.645H47.2704H47.8353L47.7667 31.9038L47.037 25.9393L46.9833 25.5H46.5407H32H31.5V26V26.7988V27.2988H32H32.5733C33.0622 27.2988 33.4087 27.3156 33.6566 27.3505C33.9111 27.3864 34.0084 27.4349 34.0414 27.4585C34.042 27.4589 34.0428 27.4594 34.0435 27.4599C34.052 27.4655 34.0647 27.4739 34.0789 27.5373C34.1005 27.6335 34.1059 27.7729 34.1059 28.0237V41.8698C34.1059 42.1206 34.1005 42.26 34.0789 42.3562C34.0647 42.4196 34.052 42.428 34.0435 42.4336C34.0428 42.4341 34.042 42.4346 34.0414 42.435C34.0084 42.4586 33.9111 42.5071 33.6566 42.543C33.4087 42.5779 33.0622 42.5947 32.5733 42.5947H32H31.5V43.0947V44V44.5H32H46.9055H47.3317L47.3992 44.0793L48.4937 37.2627ZM37.5391 42.6661C37.5391 42.6662 37.5389 42.6657 37.5384 42.6646L37.5391 42.6661ZM37.5406 27.3543C37.5406 27.3543 37.5403 27.3551 37.5395 27.3563C37.5402 27.3548 37.5406 27.3542 37.5406 27.3543ZM37.5236 27.3737C37.5232 27.374 37.523 27.3742 37.523 27.3742L37.5236 27.3737Z" fill="black" stroke="white"/>
<path d="M57.7466 22.3462L55.2358 26.1668L52.3513 21.6992L52.3246 21.6579L52.3138 21.6467C52.3115 21.6425 52.3088 21.6375 52.3059 21.6317C52.305 21.63 52.3042 21.6282 52.3033 21.6264C52.3289 21.6038 52.3706 21.5729 52.4373 21.5361C52.6325 21.4282 52.9665 21.3221 53.4515 21.2982L53.9269 21.2748V20.7988V20V19.4687L53.3966 19.5009C52.539 19.553 50.7019 19.5533 49.7135 19.5533C48.9346 19.5533 47.3515 19.5531 46.3882 19.5007L45.861 19.4721V20V20.7988V21.2988H46.361H46.8252C47.5202 21.2988 47.9171 21.3416 48.1866 21.441C48.418 21.5263 48.5838 21.664 48.7733 21.9684L48.7732 21.9684L48.7763 21.9733L53.2958 29.0501L49.2972 35.1667C49.2917 35.1749 49.286 35.1833 49.2803 35.1917C49.1027 35.4542 48.8663 35.8036 48.4116 36.1058C47.9444 36.4163 47.206 36.7012 46 36.7012H45.5V37.2012V38V38.5H46H52.1375H52.6375V38V37.2012V36.7012H52.1375C51.6549 36.7012 51.3875 36.5527 51.2432 36.4113C51.0893 36.2606 51.0387 36.0838 51.0387 35.9763C51.0387 35.9219 51.0434 35.9094 51.0521 35.8884C51.0708 35.8433 51.1102 35.7733 51.216 35.6095C51.2162 35.6091 51.2164 35.6088 51.2166 35.6085L54.404 30.7189L58.0444 36.381C58.0449 36.382 58.0453 36.3829 58.0458 36.3838C58.0197 36.4051 57.9809 36.4324 57.9237 36.4639C57.7285 36.5718 57.3945 36.6779 56.9095 36.7018L56.4341 36.7252V37.2012V38V38.5313L56.9644 38.4991C57.822 38.447 59.7106 38.4467 60.6476 38.4467C61.7333 38.4467 62.9068 38.4469 63.9754 38.4994L64.5 38.5252V38V37.2012V36.7012H64H63.5358C62.8577 36.7012 62.4778 36.6705 62.204 36.5713C61.9686 36.4861 61.7748 36.3355 61.53 35.9687L56.2929 27.8315L59.621 22.778L59.6263 22.77L59.6312 22.7619C59.8596 22.3845 60.1511 22.0329 60.6265 21.7682C61.1068 21.5007 61.8167 21.2988 62.9169 21.2988H63.4169V20.7988V20V19.5H62.9169H56.7794H56.2794V20V20.7988V21.2988H56.7794C57.6224 21.2988 57.8782 21.741 57.8782 22.0237C57.8782 22.0754 57.8756 22.1009 57.8737 22.1132C57.8724 22.1218 57.8713 22.1248 57.8694 22.1295C57.8659 22.1383 57.8579 22.1554 57.8352 22.1952C57.8209 22.2202 57.8084 22.2414 57.793 22.2673C57.7803 22.2888 57.7657 22.3135 57.7466 22.3462Z" fill="black" stroke="white"/>
</g>
<defs>
<clipPath id="clip0_1_25">
<rect width="64" height="64" fill="white"/>
</clipPath>
</defs>
</svg>
