<svg width="64" height="64" viewBox="0 0 64 64" fill="none" xmlns="http://www.w3.org/2000/svg">
<path d="M32.1191 5.09369C32.9787 4.89766 33.7466 5.03164 34.3604 5.289C34.9553 5.53859 35.401 5.89968 35.6865 6.1767C35.8327 6.31857 35.9478 6.44865 36.0293 6.54779C36.0702 6.59751 36.1035 6.64086 36.1289 6.67474C36.1415 6.69147 36.1523 6.70645 36.1611 6.71869C36.1655 6.72478 36.1694 6.73139 36.1729 6.73627C36.1745 6.73858 36.1763 6.74107 36.1777 6.7431L36.1816 6.74701L34.9492 7.60248C35.3606 7.31861 35.7721 7.03469 36.1836 6.75092C36.2901 6.94939 36.3974 7.14814 36.5039 7.34662C38.4236 10.9228 40.344 14.4999 42.2637 18.0761C42.3702 18.2745 42.4765 18.4734 42.583 18.6718C42.4353 18.5017 42.2873 18.3312 42.1396 18.1611C39.4791 15.0959 36.8187 12.03 34.1582 8.96478C34.0113 8.79553 33.8637 8.62622 33.7168 8.45697V8.45795L33.7178 8.45892C33.7183 8.45975 33.7192 8.46117 33.7197 8.46185C33.7206 8.46313 33.7219 8.46467 33.7227 8.46576C33.7242 8.46795 33.7255 8.47019 33.7266 8.47162C33.7278 8.47331 33.7291 8.47501 33.7295 8.47552C33.7282 8.4738 33.7219 8.46618 33.7119 8.45404C33.6899 8.42729 33.651 8.38178 33.5977 8.33002C33.4838 8.21958 33.3443 8.11614 33.2002 8.0556C33.0744 8.00283 32.9465 7.98193 32.7861 8.01849C32.6144 8.05776 32.2819 8.19169 31.8105 8.66302C31.025 9.44869 31.0977 9.96289 31.1562 10.1972C31.1993 10.3689 31.2788 10.5221 31.3545 10.6357C31.3907 10.6899 31.4217 10.7291 31.4385 10.749C31.4449 10.7565 31.4494 10.7608 31.4502 10.7617L38.2998 17.6113L38.292 17.6181C38.2956 17.6222 38.299 17.6266 38.3027 17.6308C38.3972 17.7375 38.5284 17.8907 38.6846 18.081C38.9958 18.4604 39.4127 18.9999 39.8311 19.6406C40.6272 20.8598 41.6014 22.6983 41.6016 24.5878C41.6015 27.0048 40.6718 28.7627 39.7344 29.9052C39.2701 30.471 38.8042 30.8859 38.4482 31.164C38.2697 31.3035 38.1165 31.4101 38.002 31.4853C37.9446 31.5229 37.8973 31.5537 37.8604 31.5761C37.8419 31.5873 37.8253 31.596 37.8125 31.6035C37.8062 31.6071 37.8007 31.6105 37.7959 31.6132C37.7935 31.6146 37.7911 31.616 37.7891 31.6171C37.788 31.6177 37.7871 31.6186 37.7861 31.6191L37.7852 31.6201L37.0479 30.3134L37.7832 31.621L37.7656 31.6308L37.7471 31.6406L34.376 33.416V56.9726L31.3223 53.9189V35.0253L21.2637 40.3251C21.2603 40.3407 21.2562 40.3564 21.2529 40.372L18 42.1181C18.0672 40.8829 18.2945 39.6495 18.6494 38.4335L18.5996 38.3378L18.6934 38.288C19.7363 34.8181 21.8095 31.4931 24.1572 28.665C27.3757 24.7882 31.3034 21.6117 34.377 20.0507V23.499H34.376V30.0244L36.3154 29.0029C36.3249 28.997 36.3391 28.9889 36.3564 28.9775C36.4088 28.9431 36.494 28.8838 36.6016 28.7997C36.8181 28.6305 37.1161 28.3662 37.415 28.0019C38.0043 27.2837 38.6015 26.1784 38.6016 24.5878C38.6014 23.615 38.0498 22.3987 37.3193 21.2802C36.9746 20.7523 36.6264 20.3016 36.3652 19.9833C36.2357 19.8255 36.129 19.7018 36.0566 19.6201C36.0206 19.5793 35.9928 19.5481 35.9756 19.5292L29.3076 12.8622L30.3682 11.8017C29.3365 12.8334 29.308 12.8602 29.3066 12.8603L29.2822 12.8359C29.2718 12.8251 29.2589 12.8118 29.2451 12.7968C29.2174 12.7668 29.1828 12.7281 29.1436 12.6816C29.0651 12.5884 28.965 12.4595 28.8584 12.2997C28.648 11.9842 28.393 11.5159 28.2451 10.9247C27.922 9.63233 28.1852 8.04631 29.6895 6.54193C30.4581 5.77324 31.271 5.2872 32.1191 5.09369ZM31.3223 25.7285C29.6868 27.0829 27.9976 28.7348 26.4648 30.581C25.0039 32.3409 23.7304 34.2236 22.7783 36.1357L31.3223 31.6337V25.7285Z" fill="#C20031"/>
</svg>
