<svg width="64" height="64" viewBox="0 0 64 64" fill="none" xmlns="http://www.w3.org/2000/svg">
<path d="M41.7242 37.0697C41.9937 34.8015 41.9132 34.4688 43.5843 34.836L44.0086 34.874C45.2938 34.933 46.9752 34.6649 47.9624 34.2011C50.0886 33.2041 51.3491 31.5385 49.2528 31.976C44.4704 32.973 44.1416 31.3368 44.1416 31.3368C49.1918 23.7628 51.303 14.1487 49.4809 11.7952C44.5114 5.37601 35.9087 8.41145 35.7645 8.49033L35.7185 8.49939C34.7735 8.30067 33.7164 8.18256 32.5284 8.16317C30.3643 8.12739 28.7221 8.73689 27.4766 9.69167C27.4766 9.69167 12.13 3.30051 12.8438 17.729C12.9956 20.7985 17.1963 40.9548 22.2064 34.8666C24.0375 32.6407 25.8071 30.7583 25.8071 30.7583C26.686 31.3484 27.738 31.6493 28.8415 31.5411L28.9268 31.4678C28.9004 31.7441 28.9119 32.0144 28.9614 32.3342C27.6706 33.7924 28.0501 34.0485 25.4694 34.5851C22.8588 35.1291 24.3927 36.0973 25.3935 36.3503C26.6079 36.6576 29.4159 37.0926 31.314 34.4067L31.2385 34.7132C31.7451 35.1227 31.7105 37.6559 31.7822 39.4659C31.8538 41.2759 31.9741 42.9647 32.3391 43.9613C32.7041 44.957 33.1348 47.5222 36.5261 46.7877C39.3601 46.173 41.5268 45.2894 41.7242 37.0697Z" fill="black"/>
<path d="M35.4294 48.623C33.925 48.623 32.9457 48.0355 32.3505 47.4679C31.4525 46.6122 31.0963 45.5095 30.8837 44.8507L30.7918 44.5756C30.3633 43.4072 30.2183 41.7252 30.1324 39.5594C30.1197 39.2208 30.109 38.8821 30.1003 38.5434C30.093 38.2838 30.0841 37.9581 30.0712 37.6165C29.5293 37.8775 28.954 38.0613 28.362 38.1624C27.3015 38.3456 26.1614 38.286 24.9726 37.9858C24.1341 37.7741 23.2626 37.3353 22.7661 36.6571C21.3186 37.9378 19.9378 37.7638 19.1856 37.5106C17.8586 37.0636 16.6711 35.8079 15.5546 33.6706C14.7596 32.1488 13.9903 30.1653 13.2681 27.7762C12.0108 23.6153 11.212 19.2327 11.141 17.7943C10.9178 13.2904 12.1177 10.0698 14.7074 8.22232C18.7934 5.3071 24.9833 7.02107 27.2399 7.79944C28.7559 6.87637 30.5395 6.42671 32.5553 6.45954C33.6381 6.47725 34.6687 6.57357 35.6261 6.74549C36.6246 6.42844 38.5977 5.97316 40.856 6.00124C45.0168 6.05134 48.4648 7.6893 50.8265 10.738C52.5118 12.9133 51.6788 17.4807 51.0318 20.0102C50.1222 23.5673 48.5276 27.3516 46.5691 30.6457C47.1011 30.6496 47.8712 30.5848 48.9668 30.3567C51.128 29.9057 51.7596 31.0763 51.9311 31.6003C52.6183 33.7026 49.6313 35.2908 48.6995 35.7275C47.5056 36.2878 45.5595 36.6286 43.9653 36.5547L43.8956 36.55L43.4769 36.5128L43.4354 36.8653L43.3957 37.2104C43.2888 41.3848 42.6982 44.0283 41.4833 45.7755C40.2103 47.6066 38.4403 48.1202 36.8816 48.4575C36.4047 48.5644 35.9179 48.6199 35.4294 48.623ZM32.2641 33.4296C33.2352 34.2144 33.3203 35.6913 33.396 38.4514C33.4054 38.7957 33.4144 39.1218 33.4264 39.4263C33.4632 40.3481 33.5491 42.507 33.8835 43.4193C33.931 43.548 33.9733 43.6793 34.0178 43.8175C34.3907 44.9717 34.578 45.5501 36.1906 45.2011C37.5449 44.9082 38.2406 44.6451 38.7854 43.8616C39.5774 42.7221 40.0204 40.4315 40.1017 37.051L41.7489 37.0916L40.1128 36.8934L40.1607 36.4809C40.3176 35.1211 40.4305 34.138 41.3307 33.4883C42.0525 32.967 42.8757 33.0175 43.5312 33.1367C42.8111 32.5877 42.6118 31.9424 42.5588 31.678L42.4215 30.9947L42.8073 30.4159C45.0309 27.0829 46.865 22.9868 47.8391 19.1774C48.8398 15.2631 48.5345 13.1841 48.2296 12.791C44.1902 7.57699 37.1844 9.72939 36.4531 9.97431L36.3291 10.0417L35.7091 10.1587L35.3913 10.0922C34.516 9.90865 33.5436 9.80714 32.5006 9.78986C30.8623 9.76222 29.541 10.1531 28.4574 10.9838L27.7056 11.5596L26.8328 11.1963C24.9692 10.4266 19.4939 8.87888 16.6048 10.9458C15.0012 12.093 14.2708 14.3413 14.4333 17.628C14.4868 18.7131 15.2172 22.8205 16.4205 26.8048C18.0844 32.3104 19.5965 34.1388 20.2277 34.3518C20.3376 34.3894 20.6237 34.1648 20.908 33.8201C22.758 31.5726 24.5172 29.6993 24.5912 29.6202L25.5452 28.6064L26.6985 29.3805C27.1634 29.6928 27.6761 29.8695 28.2029 29.9027L30.9539 27.533L30.5553 31.6409C30.5463 31.7333 30.5421 31.8586 30.578 32.0918L30.6977 32.8706L30.179 33.4572L30.1191 33.525L31.6304 34.23L32.2641 33.4296Z" fill="black"/>
<path d="M49.2532 31.9736C44.4706 32.9705 44.1419 31.334 44.1419 31.334C49.1914 23.7609 51.3021 14.1474 49.4805 11.7945C44.5107 5.37604 35.9083 8.41158 35.7646 8.49046L35.7181 8.49865C34.7732 8.30082 33.7161 8.18272 32.5277 8.16333C30.3637 8.12755 28.722 8.73656 27.4765 9.69123C27.4765 9.69123 12.13 3.30119 12.8438 17.7281C12.9956 20.7973 17.1962 40.9514 22.2061 34.8639C24.0371 32.6382 25.8062 30.756 25.8062 30.756C26.6851 31.3461 27.737 31.6469 28.8402 31.5387L28.9259 31.4654C28.8994 31.7417 28.9114 32.012 28.96 32.3318C27.6697 33.7898 28.0483 34.0459 25.4685 34.5824C22.8576 35.1264 24.3914 36.0944 25.3931 36.3474C26.607 36.6547 29.4154 37.0896 31.3129 34.404L31.237 34.7105C31.7427 35.1199 32.0979 37.3736 32.0382 39.4166C31.9785 41.4595 31.9389 42.862 32.3376 43.9576C32.7363 45.0528 33.1332 47.5181 36.5249 46.7837C39.3588 46.1695 40.8274 44.5787 41.0321 41.9254C41.177 40.0389 41.5049 40.3178 41.5258 38.6309L41.7894 37.8322C42.0925 35.2746 41.8375 34.4497 43.5837 34.8337L44.008 34.8712C45.2932 34.9307 46.9749 34.6622 47.9621 34.1984C50.0881 33.2011 51.349 31.5361 49.2532 31.9736Z" fill="#336791"/>
<path d="M35.1746 46.918C32.365 46.9185 31.4752 44.6772 31.1108 43.7608C30.5782 42.418 30.4629 37.2055 30.5815 32.9308C30.5895 32.788 30.6523 32.6541 30.7568 32.5573C30.8612 32.4606 30.999 32.4087 31.1409 32.4127C31.2827 32.4167 31.4174 32.4763 31.5163 32.5787C31.6152 32.6812 31.6705 32.8186 31.6705 32.9615C31.5336 37.8918 31.7281 42.3595 32.1222 43.3531C32.7378 44.9034 33.6713 46.2594 36.3115 45.69C38.8178 45.1484 39.7563 44.191 40.1741 41.7504C40.4953 39.877 41.1291 34.548 41.2071 33.4963C41.2178 33.3512 41.2853 33.2164 41.3948 33.1215C41.5042 33.0265 41.6466 32.9793 41.7906 32.9901C41.9346 33.0009 42.0684 33.0689 42.1627 33.1791C42.2569 33.2893 42.3038 33.4328 42.2931 33.5778C42.2117 34.6722 41.5804 39.9914 41.2469 41.9369C40.7533 44.8202 39.4775 46.128 36.5394 46.7627C36.0912 46.8625 35.6337 46.9146 35.1746 46.918ZM19.9416 35.9719C19.696 35.9717 19.4522 35.9312 19.2196 35.852C17.3946 35.2386 15.6565 32.2448 14.0532 26.953C12.8329 22.9245 12.0596 18.7203 11.9918 17.354C11.7905 13.3033 12.8265 10.4372 15.0701 8.83569C19.509 5.66731 26.9766 8.68459 27.2922 8.81434C27.4247 8.87019 27.5299 8.9765 27.5849 9.11011C27.64 9.24373 27.6404 9.39383 27.5861 9.52775C27.5317 9.66166 27.4271 9.76854 27.2949 9.82511C27.1628 9.88167 27.0138 9.88335 26.8804 9.82978V9.8302C26.8083 9.80033 19.6475 6.91067 15.6976 9.73246C13.779 11.103 12.8981 13.6486 13.079 17.2998C13.1362 18.4505 13.8587 22.5545 15.0947 26.6333C16.526 31.357 18.1552 34.3385 19.564 34.8114C19.7848 34.8861 20.4577 35.1119 21.4203 33.9466C23.2305 31.7527 24.8936 30.0018 24.9101 29.9843C25.0113 29.8855 25.1467 29.8301 25.2877 29.8296C25.4287 29.8292 25.5644 29.8839 25.6662 29.9822C25.768 30.0804 25.8281 30.2146 25.8337 30.3566C25.8394 30.4985 25.7902 30.6371 25.6965 30.7432C25.68 30.7603 24.0423 32.4852 22.2576 34.6479C21.4123 35.6715 20.6017 35.9719 19.9416 35.9719ZM43.6359 31.3498C43.537 31.3499 43.4399 31.3229 43.3551 31.2717C43.2704 31.2204 43.201 31.1469 43.1546 31.0589C43.1082 30.971 43.0865 30.8719 43.0918 30.7725C43.0971 30.673 43.1292 30.5769 43.1846 30.4944C48.2569 22.9122 50.0374 13.7511 48.5124 11.7885C46.593 9.31801 43.8825 8.02727 40.4567 7.95342C37.9199 7.89794 35.9034 8.55056 35.5742 8.66453L35.4916 8.69825C35.1602 8.80325 34.906 8.62014 34.8102 8.40629C34.7557 8.28377 34.7474 8.14539 34.7871 8.01718C34.8267 7.88897 34.9115 7.77977 35.0255 7.71013L35.1721 7.64952L35.1649 7.65165L35.1725 7.64909C35.7323 7.44293 37.7792 6.82403 40.3152 6.85348C44.1062 6.8936 47.2375 8.3666 49.3704 11.112C50.3797 12.4113 50.3819 15.4046 49.3768 19.3242C48.3523 23.3202 46.4243 27.6154 44.088 31.1078C44.0382 31.1824 43.9708 31.2436 43.892 31.2858C43.8131 31.328 43.7252 31.35 43.6359 31.3498ZM43.8947 34.8596C43.0287 34.8596 42.2524 34.7371 41.7876 34.4563C41.3096 34.1681 41.2185 33.7759 41.2067 33.568C41.0762 31.2614 42.3397 30.8598 42.9842 30.6767C42.8944 30.5401 42.7664 30.3792 42.6346 30.2131C42.2588 29.7402 41.7444 29.0923 41.3478 28.1234C41.2859 27.9723 41.091 27.6201 40.8656 27.2129C39.644 25.0066 37.1026 20.4152 38.7351 18.0638C39.4911 16.9758 40.9952 16.5477 43.2121 16.7867C42.56 14.7853 39.4542 8.5241 32.0857 8.40245C29.8693 8.36489 28.0515 9.05166 26.6859 10.4406C23.6279 13.5517 23.7389 19.1808 23.7402 19.2367C23.7421 19.3087 23.7298 19.3804 23.7042 19.4476C23.6786 19.5149 23.64 19.5764 23.5908 19.6286C23.5416 19.6808 23.4826 19.7228 23.4173 19.7521C23.352 19.7814 23.2816 19.7974 23.2101 19.7993C23.1387 19.8012 23.0675 19.7888 23.0008 19.763C22.934 19.7372 22.873 19.6984 22.8211 19.6488C22.7693 19.5992 22.7276 19.5398 22.6985 19.474C22.6695 19.4082 22.6535 19.3373 22.6517 19.2653C22.6449 19.0156 22.5305 13.1087 25.9122 9.66843C27.4948 8.05842 29.5778 7.26366 32.1035 7.30507C36.8187 7.38318 39.8529 9.79734 41.5685 11.8094C43.438 14.0016 44.3549 16.4201 44.4303 17.2268C44.4867 17.8269 44.0592 17.9473 43.9727 17.9648L43.7765 17.9695C41.6007 17.6186 40.205 17.8619 39.6279 18.6929C38.386 20.4805 40.7902 24.8235 41.8168 26.6785C42.0791 27.1515 42.2681 27.4934 42.3545 27.7046C42.6918 28.5284 43.1316 29.082 43.485 29.5268C43.7956 29.9182 44.0651 30.2571 44.1617 30.6558C44.2062 30.7347 44.8409 31.6797 48.6056 30.8969C49.5493 30.701 50.1149 30.8687 50.2878 31.3954C50.628 32.4322 48.7192 33.641 47.6624 34.1357C46.7142 34.5792 45.2028 34.8596 43.8947 34.8596ZM42.2927 33.4775C42.4117 33.5992 43.0092 33.8083 44.2469 33.755C45.3468 33.7072 46.5074 33.466 47.204 33.1408C48.0946 32.7242 48.6887 32.2585 48.9967 31.9405L48.8256 31.9721C46.4184 32.4728 44.7159 32.4062 43.7655 31.7736C43.7016 31.7312 43.64 31.6852 43.5812 31.6358C43.4782 31.6767 43.3829 31.7036 43.3151 31.7228C42.7757 31.8752 42.2181 32.0327 42.2927 33.4775ZM26.7435 36.5418C26.1456 36.5418 25.5164 36.4602 24.8736 36.2976C24.208 36.1299 23.0851 35.6249 23.1025 34.7956C23.1216 33.8647 24.4652 33.5855 24.9715 33.4805C26.7986 33.1015 26.9177 32.9495 27.4888 32.2192C27.6553 32.0062 27.8625 31.7412 28.1447 31.4232C28.5642 30.9507 29.0227 30.7108 29.5074 30.7108C29.8447 30.7108 30.1218 30.8265 30.3044 30.9025C30.8875 31.1458 31.3739 31.7339 31.5739 32.4382C31.7544 33.0733 31.6684 33.6845 31.3315 34.1592C30.2265 35.7184 28.6401 36.5418 26.7435 36.5418ZM24.2787 34.843C24.4431 34.9706 24.772 35.1413 25.1376 35.2339C25.6944 35.3739 26.2342 35.4452 26.7435 35.4452C28.2952 35.4452 29.5405 34.7977 30.4455 33.5219C30.6341 33.2556 30.5777 32.918 30.5273 32.74C30.4214 32.3678 30.1587 32.0293 29.8879 31.9158C29.7409 31.8543 29.6193 31.8073 29.5074 31.8073C29.4473 31.8073 29.2646 31.8073 28.9566 32.1544C28.6964 32.4472 28.5096 32.6862 28.3439 32.8975C27.6329 33.807 27.3071 34.1156 25.191 34.5549C24.6749 34.6624 24.4101 34.7708 24.2787 34.843ZM28.4659 32.3127C28.3359 32.3125 28.2103 32.2655 28.1117 32.1802C28.0131 32.0949 27.948 31.9769 27.9282 31.8475C27.9143 31.7564 27.9053 31.6646 27.9011 31.5726C26.5139 31.5461 25.1758 30.9468 24.1601 29.8789C22.8758 28.5288 22.2911 26.6585 22.5563 24.7475C22.8445 22.6723 22.7368 20.8403 22.6788 19.8561C22.6643 19.6536 22.6554 19.4508 22.6521 19.2478C22.6529 19.0745 22.6563 18.614 24.1838 17.8342C24.727 17.5567 25.8164 17.0727 27.0062 16.9485C28.9782 16.7436 30.2777 17.628 30.6667 19.4395C31.7167 24.331 30.7498 26.4946 30.0438 28.0743C29.9121 28.3679 29.7879 28.6462 29.6888 28.9151L29.6011 29.1529C29.2282 30.1602 28.9057 31.0305 29.0049 31.681C29.0267 31.8248 28.991 31.9714 28.9056 32.0887C28.8202 32.206 28.6921 32.2844 28.5494 32.3067L28.4659 32.3127ZM23.7444 19.3993L23.766 19.7912C23.8262 20.8134 23.9381 22.7163 23.6347 24.8999C23.4161 26.4758 23.894 28.0145 24.9461 29.1204C25.7774 29.9946 26.8723 30.4769 27.9973 30.4769H28.0206C28.1469 29.9421 28.3558 29.3778 28.5807 28.7696L28.668 28.5335C28.7803 28.2296 28.9117 27.9356 29.0507 27.6244C29.7303 26.1032 30.576 24.2097 29.6019 19.6712C29.4087 18.7728 28.9409 18.2524 28.1719 18.0809C26.5922 17.7292 24.2385 18.926 23.7444 19.3993ZM27.0308 19.1667C27.0037 19.3605 27.3837 19.8782 27.8786 19.9474C28.3731 20.017 28.7964 19.6123 28.8231 19.4186C28.8498 19.2243 28.4702 19.0109 27.9748 18.9414C27.4804 18.8718 27.0571 18.9725 27.0308 19.1667ZM27.9926 20.1386L27.8536 20.1288C27.5465 20.0857 27.2359 19.8906 27.0236 19.6068C26.949 19.5073 26.827 19.3136 26.8511 19.1411C26.8859 18.888 27.1918 18.7369 27.6702 18.7369C27.7774 18.7369 27.8884 18.745 28.0007 18.7604C28.2617 18.7971 28.5045 18.8731 28.6837 18.9738C28.9943 19.1488 29.0172 19.3434 29.0032 19.4446C28.9646 19.7233 28.5231 20.1386 27.9926 20.1386ZM27.2113 19.1992C27.227 19.3187 27.5206 19.7135 27.9036 19.7668L27.9922 19.7732C28.3456 19.7732 28.61 19.4928 28.6409 19.4011C28.6083 19.3387 28.3812 19.1829 27.9498 19.1232C27.8571 19.1098 27.7635 19.1029 27.6698 19.1027C27.3935 19.1023 27.2456 19.165 27.2113 19.1992ZM42.0927 18.771C42.1194 18.9653 41.7401 19.483 41.2448 19.5521C40.7499 19.6213 40.3266 19.2171 40.2995 19.0229C40.2732 18.8291 40.6529 18.6153 41.1478 18.5461C41.6427 18.4761 42.0656 18.5777 42.0927 18.771ZM41.1308 19.6512C40.6542 19.6512 40.2436 19.2777 40.2097 19.0357C40.1707 18.745 40.6457 18.5239 41.1355 18.4556C41.2431 18.4403 41.3499 18.4326 41.4529 18.4326C41.8753 18.4326 42.155 18.5576 42.1829 18.7587C42.2011 18.8893 42.102 19.0903 41.9308 19.2713C41.8181 19.3908 41.5808 19.5978 41.258 19.6426L41.1308 19.6512ZM41.4524 18.6153C41.358 18.6153 41.2596 18.6225 41.1601 18.6362C40.6677 18.7049 40.3749 18.9042 40.3889 19.0109C40.4054 19.1279 40.7194 19.4685 41.1304 19.4685L41.2317 19.4612C41.5003 19.4232 41.702 19.247 41.7982 19.145C41.949 18.9849 42.0092 18.8346 42.002 18.783C41.9931 18.716 41.8118 18.6153 41.4524 18.6153ZM42.8058 29.9062C42.7072 29.9062 42.6104 29.8791 42.5259 29.828C42.4413 29.7769 42.3721 29.7036 42.3257 29.6159C42.2793 29.5283 42.2574 29.4296 42.2623 29.3303C42.2672 29.2311 42.2988 29.1351 42.3537 29.0526C43.513 27.3081 43.3007 25.5286 43.0956 23.8085C43.0079 23.0752 42.9177 22.3176 42.9414 21.5898C42.9651 20.8416 43.0592 20.2244 43.1507 19.6268C43.2587 18.9196 43.3609 18.2507 43.3185 17.4577C43.3154 17.3152 43.3674 17.177 43.4637 17.0724C43.5599 16.9679 43.6927 16.9052 43.834 16.8975C43.9753 16.8898 44.1141 16.9379 44.2209 17.0314C44.3276 17.125 44.3941 17.2567 44.4062 17.3988C44.4545 18.3054 44.3388 19.0617 44.2269 19.7937C44.1405 20.3584 44.0511 20.9423 44.0295 21.6248C44.0087 22.2689 44.0905 22.9531 44.1769 23.6771C44.3956 25.5069 44.6426 27.5809 43.2587 29.6625C43.1537 29.8204 42.9812 29.9062 42.8058 29.9062Z" fill="white"/>
<path d="M6 48.7604C6.62023 48.6658 7.24774 48.6199 7.87607 48.6231C8.84153 48.6231 9.54954 48.8343 9.99879 49.2144C10.4144 49.5523 10.6614 50.0697 10.6614 50.7037C10.6614 51.3478 10.4588 51.8546 10.077 52.2242C9.56034 52.7416 8.71799 53.0055 7.76332 53.0055C7.47131 53.0055 7.20175 52.995 6.97756 52.9422V55.7936H6V48.7604ZM6.97756 52.1921C7.19095 52.2449 7.46051 52.266 7.78622 52.266C8.96507 52.266 9.68431 51.7275 9.68431 50.7455C9.68431 49.8057 8.97674 49.3517 7.89853 49.3517C7.47174 49.3517 7.14603 49.3834 6.97756 49.4256V52.1921ZM16.5804 53.1952C16.5804 55.0853 15.1872 55.9093 13.8732 55.9093C12.4019 55.9093 11.2675 54.8956 11.2675 53.2797C11.2675 51.5691 12.458 50.566 13.963 50.566C15.5246 50.5656 16.5804 51.6325 16.5804 53.1952ZM12.2675 53.248C12.2675 54.3673 12.9526 55.212 13.9185 55.212C14.862 55.212 15.5691 54.3778 15.5691 53.2269C15.5691 52.361 15.1091 51.2629 13.9406 51.2629C12.7721 51.2629 12.2675 52.2766 12.2675 53.248ZM17.6918 54.8424C17.9838 55.0219 18.5005 55.212 18.9947 55.212C19.7135 55.212 20.0504 54.8741 20.0504 54.4517C20.0504 54.0083 19.7701 53.7654 19.0396 53.512C18.0625 53.1846 17.602 52.6778 17.602 52.0654C17.602 51.2418 18.3096 50.566 19.4776 50.566C20.0279 50.566 20.5113 50.7138 20.8146 50.8828L20.5675 51.5585C20.2332 51.3649 19.8482 51.2625 19.4556 51.2629C18.8716 51.2629 18.5458 51.5797 18.5458 51.9598C18.5458 52.3822 18.872 52.5722 19.5796 52.8256C20.523 53.1635 21.0059 53.607 21.0059 54.3673C21.0059 55.2648 20.2647 55.8983 18.9731 55.8983C18.3778 55.8983 17.8275 55.7611 17.4456 55.5499L17.6918 54.8424ZM23.4652 49.214V50.6817H24.8799V51.3892H23.4652V54.1451C23.4652 54.7787 23.6557 55.1377 24.2064 55.1377C24.3995 55.1403 24.5921 55.119 24.7792 55.0743L24.8242 55.7712C24.6337 55.8451 24.33 55.8979 23.9486 55.8979C23.4881 55.8979 23.117 55.7607 22.8811 55.5072C22.6008 55.2327 22.4993 54.7787 22.4993 54.1768V51.3892H21.6569V50.6817H22.4993V49.4569L23.4652 49.214ZM30.6083 50.6821C30.5854 51.0517 30.5634 51.4635 30.5634 52.0865V55.0536C30.5634 56.2257 30.3163 56.9437 29.7884 57.3876C29.2605 57.8522 28.4968 58 27.8117 58C27.1603 58 26.4415 57.8522 26.003 57.5776L26.2501 56.8702C26.6095 57.0814 27.1711 57.2714 27.845 57.2714C28.8558 57.2714 29.5971 56.7752 29.5971 55.4869V54.9167H29.5746C29.2713 55.3919 28.6873 55.772 27.845 55.772C26.4972 55.772 25.5313 54.695 25.5313 53.2797C25.5313 51.548 26.7331 50.566 27.9797 50.566C28.9236 50.566 29.4402 51.0306 29.6761 51.453H29.6986L29.7435 50.6821H30.6083ZM29.5863 52.6989C29.5863 52.5405 29.575 52.4033 29.5301 52.2766C29.3504 51.7381 28.8674 51.2946 28.1486 51.2946C27.2048 51.2946 26.5313 52.0443 26.5313 53.2269C26.5313 54.23 27.0704 55.0642 28.1374 55.0642C28.7439 55.0642 29.2942 54.7052 29.5076 54.1138C29.5638 53.9555 29.5867 53.776 29.5867 53.6176L29.5863 52.6989ZM32.1353 52.2766C32.1353 51.6747 32.1241 51.1573 32.0904 50.6821H32.9557L32.9889 51.6853H33.0338C33.2809 50.9989 33.8762 50.566 34.5388 50.566C34.6512 50.566 34.7293 50.5765 34.8192 50.5977V51.4741C34.7087 51.4515 34.5958 51.4408 34.4827 51.4424C33.7863 51.4424 33.2917 51.9387 33.1574 52.6356C33.1297 52.7785 33.1146 52.9233 33.1125 53.0685V55.7927H32.1353V52.2766ZM36.2464 53.4064C36.2689 54.6629 37.1221 55.1803 38.1104 55.1803C38.8184 55.1803 39.2448 55.0642 39.6154 54.9163L39.7839 55.5816C39.4357 55.7294 38.8405 55.8983 37.9756 55.8983C36.3022 55.8983 35.3026 54.8635 35.3026 53.3219C35.3026 51.7803 36.2685 50.5656 37.8521 50.5656C39.6266 50.5656 40.0984 52.0333 40.0984 52.9731C40.0984 53.1631 40.0759 53.311 40.0647 53.406L36.2464 53.4064ZM39.1441 52.7412C39.1549 52.1499 38.8854 51.2312 37.7739 51.2312C36.7743 51.2312 36.3363 52.0971 36.2572 52.7412H39.1441Z" fill="black"/>
<path d="M41.187 54.6957C41.6922 55.0343 42.2693 55.216 42.8586 55.2219C43.8123 55.2219 44.3696 54.6598 44.3696 53.8465C44.3696 53.0929 43.9838 52.6624 43.0087 52.2437C41.8299 51.7773 41.1013 51.0955 41.1013 49.9593C41.1013 48.7034 42.0335 47.7705 43.4373 47.7705C44.1767 47.7705 44.7125 47.9619 45.0339 48.1652L44.7768 49.0144C44.3552 48.7615 43.8838 48.6299 43.4051 48.6317C42.4193 48.6317 42.0442 49.2895 42.0442 49.8397C42.0442 50.5932 42.4832 50.964 43.4802 51.3945C44.7017 51.9213 45.3233 52.5786 45.3233 53.7627C45.3233 55.0066 44.4982 56.0831 42.7943 56.0831C42.0978 56.0831 41.337 55.8558 40.9508 55.5688L41.187 54.6957ZM52.5564 57.1476C51.6249 56.8747 50.7027 56.5635 49.7917 56.2146C49.6417 56.1548 49.4917 56.095 49.3524 56.095C47.6379 56.0233 46.1698 54.6119 46.1698 52.0165C46.1698 49.433 47.5843 47.7705 49.5346 47.7705C51.4955 47.7705 52.7711 49.4689 52.7711 51.849C52.7711 53.9182 51.9139 55.2458 50.7137 55.7123V55.7601C51.4317 55.9635 52.2139 56.1548 52.8247 56.2744L52.5564 57.1476ZM51.7849 51.8969C51.7849 50.2822 51.0352 48.6192 49.5024 48.6192C47.9272 48.6192 47.1557 50.2459 47.1664 51.9926C47.1557 53.7029 48.0022 55.2458 49.4595 55.2458C50.9494 55.2458 51.7849 53.7388 51.7849 51.8969ZM53.9812 47.9021H54.9139V55.0903H58V55.9635H53.9812V47.9021Z" fill="#336791"/>
</svg>
