<svg width="64" height="64" viewBox="0 0 64 64" fill="none" xmlns="http://www.w3.org/2000/svg">
<path d="M25.1498 0.000191999C20.0938 0.000191999 15.9998 4.09424 15.9998 9.15021V14.5252H29.7248C30.9728 14.5252 31.9998 16.3522 31.9998 17.6002H9.15002C4.09405 17.6002 0 21.6943 0 26.7502V38.85C0 43.9059 4.09405 48 9.15002 48H12.925V39.425C12.925 34.3691 16.9941 30.275 22.0501 30.275H38.85C43.9059 30.275 48 26.2059 48 21.1499V9.15002C48 4.09405 43.9059 0 38.85 0L25.1498 0.000191999ZM22.8498 5.15024C24.1298 5.15024 25.1498 5.53724 25.1498 7.42523C25.1498 9.31322 24.1298 10.2752 22.8498 10.2752C21.6018 10.2752 20.5748 9.31322 20.5748 7.42523C20.5748 5.53724 21.6018 5.15024 22.8498 5.15024Z" fill="#3C78AA"/>
<path d="M51.0688 16V24.575C51.0688 29.631 47.006 33.7251 41.95 33.7251H25.1501C20.0941 33.7251 16 37.7878 16 42.8438V54.8438C15.9989 57.2715 16.9624 59.6001 18.6784 61.3173C20.3944 63.0345 22.7224 63.9995 25.1501 64H38.8499C41.2775 63.9995 43.6055 63.0345 45.3216 61.3173C47.0376 59.6001 48.0011 57.2715 48 54.8438V49.4688H34.2688C33.0208 49.4688 32 47.6481 32 46.4001H54.8499C57.2776 46.3996 59.6056 45.4345 61.3216 43.7174C63.0376 42.0002 64.0011 39.6716 64 37.2439V25.1501C63.9989 20.0971 59.9029 16.0011 54.8499 16.0001L51.0688 16ZM20.225 30.4438L20.2125 30.4563C20.2508 30.4486 20.2927 30.4512 20.3312 30.4438H20.225ZM41.15 53.7251C42.398 53.7251 43.4251 54.6871 43.4251 56.5751C43.4233 57.8298 42.4047 58.8455 41.15 58.8438C39.87 58.8438 38.8501 58.4631 38.8501 56.5751C38.8501 54.6871 39.87 53.7251 41.15 53.7251Z" fill="#FDD835"/>
</svg>
