<svg width="64" height="64" viewBox="0 0 64 64" fill="none" xmlns="http://www.w3.org/2000/svg">
<path d="M26.4342 6.00016C22.3262 6.00016 18.9998 9.32657 18.9998 13.4345V17.8017H30.1514C31.1654 17.8017 31.9998 19.2862 31.9998 20.3002H13.4344C9.32642 20.3002 6 23.6266 6 27.7346V37.5656C6 41.6736 9.32642 45 13.4344 45H16.5016V38.0328C16.5016 33.9249 19.8077 30.5984 23.9157 30.5984H37.5656C41.6736 30.5984 45 27.2923 45 23.1843V13.4344C45 9.32642 41.6736 6 37.5656 6L26.4342 6.00016ZM24.5655 10.1846C25.6055 10.1846 26.4342 10.499 26.4342 12.033C26.4342 13.567 25.6055 14.3486 24.5655 14.3486C23.5515 14.3486 22.717 13.567 22.717 12.033C22.717 10.499 23.5515 10.1846 24.5655 10.1846Z" fill="#3C78AA"/>
<path d="M47.4934 19V25.9672C47.4934 30.0752 44.1924 33.4017 40.0844 33.4017H26.4344C22.3264 33.4017 19 36.7026 19 40.8106V50.5606C18.9991 52.5331 19.7819 54.4251 21.1762 55.8203C22.5705 57.2155 24.462 57.9996 26.4344 58H37.5655C39.538 57.9996 41.4295 57.2155 42.8238 55.8203C44.218 54.4251 45.0009 52.5331 45 50.5606V46.1934H33.8434C32.8294 46.1934 32 44.7141 32 43.7001H50.5656C52.538 43.6996 54.4295 42.9156 55.8238 41.5203C57.2181 40.1251 58.0009 38.2331 58 36.2607V26.4345C57.9991 22.3289 54.6711 19.0009 50.5656 19.0001L47.4934 19ZM22.4328 30.7356L22.4226 30.7458C22.4538 30.7395 22.4878 30.7416 22.5191 30.7356H22.4328ZM39.4344 49.6517C40.4484 49.6517 41.2829 50.4333 41.2829 51.9673C41.2814 52.9867 40.4538 53.812 39.4344 53.8106C38.3944 53.8106 37.5657 53.5013 37.5657 51.9673C37.5657 50.4333 38.3944 49.6517 39.4344 49.6517Z" fill="#FDD835"/>
</svg>
