<svg width="64" height="64" viewBox="0 0 64 64" fill="none" xmlns="http://www.w3.org/2000/svg">
<path d="M53.9788 26.8H37.692C37.2994 26.7998 36.923 26.6433 36.6453 26.3648C36.3677 26.0863 36.2117 25.7086 36.2115 25.3147V8.28418C36.2115 7.02302 35.1922 6 33.9358 6H28.1219C26.8647 6 25.8461 7.02302 25.8461 8.28418V25.2116C25.8461 26.0898 25.1384 26.8036 24.2631 26.8075L18.9258 26.833C18.043 26.8378 17.3258 26.1192 17.3275 25.2343L17.3606 8.28802C17.3635 7.02494 16.3439 6 15.085 6H9.27582C8.01847 6 7 7.02302 7 8.28418V55.972C7 57.0924 7.90459 58 9.02029 58H53.9788C55.0954 58 56 57.0924 56 55.972V28.828C56 27.7076 55.0954 26.8 53.9788 26.8ZM46.3413 44.7049C46.3413 46.1731 45.1549 47.3636 43.6916 47.3636H39.0969C37.6334 47.3636 36.4471 46.1731 36.4471 44.7049V40.0949C36.4471 38.6265 37.6334 37.4362 39.0969 37.4362H43.6916C45.1549 37.4362 46.3413 38.6265 46.3413 40.0949V44.7049Z" fill="#FF6600"/>
</svg>
