<svg width="64" height="64" viewBox="0 0 64 64" fill="none" xmlns="http://www.w3.org/2000/svg">
    <path d="M32 36.9521C34.615 36.9521 36.7348 34.8322 36.7348 32.2172C36.7348 29.6023 34.615 27.4824 32 27.4824C29.385 27.4824 27.2652 29.6023 27.2652 32.2172C27.2652 34.8322 29.385 36.9521 32 36.9521Z" fill="#61DAFB"/>
    <path d="M49.984 24.4089C49.0703 24.0767 48.115 23.7444 47.1182 23.4537C47.3674 22.4569 47.5751 21.4601 47.7412 20.5048C48.6134 15.0224 47.6581 11.1597 45 9.66454C44.2109 9.20767 43.3387 9 42.3419 9C39.4345 9 35.738 11.1597 32 14.7732C28.262 11.1597 24.5655 9 21.6581 9C20.6613 9 19.7891 9.20767 19 9.66454C16.3419 11.2013 15.3866 15.0639 16.2588 20.5048C16.4249 21.4601 16.6326 22.4569 16.8818 23.4537C15.885 23.7444 14.9297 24.0351 14.016 24.4089C8.82428 26.4026 6 29.1438 6 32.2173C6 35.2907 8.86582 38.0319 14.016 40.0256C14.9297 40.3578 15.885 40.6901 16.8818 40.9808C16.6326 41.9776 16.4249 42.9744 16.2588 43.9297C15.3866 49.4121 16.3419 53.2748 19 54.77C19.7891 55.2268 20.6613 55.4345 21.6581 55.4345C24.607 55.4345 28.3035 53.2748 32 49.6613C35.738 53.2748 39.4345 55.4345 42.3419 55.4345C43.3387 55.4345 44.2109 55.2268 45 54.77C47.6581 53.2332 48.6134 49.3706 47.7412 43.9297C47.5751 42.9744 47.3674 41.9776 47.1182 40.9808C48.115 40.6901 49.0703 40.3994 49.984 40.0256C55.1757 38.0319 58 35.2907 58 32.2173C58 29.1438 55.1757 26.4026 49.984 24.4089ZM43.8371 11.7412C45.5399 12.738 46.1214 15.8115 45.4153 20.1725C45.2907 21.0447 45.0831 21.9585 44.8339 22.9137C42.6741 22.4153 40.3898 22.0831 37.9808 21.8754C36.5687 19.8818 35.115 18.0958 33.6613 16.476C36.7348 13.4441 39.8498 11.3674 42.3834 11.3674C42.9233 11.3674 43.4217 11.492 43.8371 11.7412ZM39.1853 36.3706C38.4377 37.6997 37.5655 39.0288 36.6518 40.3578C35.115 40.4824 33.5783 40.524 32 40.524C30.3802 40.524 28.8435 40.4824 27.3482 40.3578C26.4345 39.0288 25.6038 37.6997 24.8562 36.3706C24.0671 35 23.3195 33.5879 22.655 32.2173C23.3195 30.8466 24.0671 29.4345 24.8562 28.0639C25.6038 26.7348 26.476 25.4058 27.3898 24.0767C28.9265 23.9521 30.4633 23.9105 32.0415 23.9105C33.6613 23.9105 35.1981 23.9521 36.6933 24.0767C37.607 25.4058 38.4377 26.7348 39.1853 28.0639C39.9744 29.4345 40.722 30.8466 41.3866 32.2173C40.6805 33.5879 39.9744 34.9585 39.1853 36.3706ZM42.6326 35C43.2556 36.4537 43.754 37.8658 44.2109 39.278C42.7987 39.6102 41.3035 39.8594 39.7252 40.0671C40.2236 39.278 40.7636 38.4473 41.2204 37.5751C41.7188 36.7029 42.1757 35.8307 42.6326 35ZM32 46.2556C31.0032 45.1757 30.0479 44.0128 29.1342 42.8083C30.0895 42.8498 31.0447 42.8914 32 42.8914C32.9553 42.8914 33.9105 42.8498 34.8658 42.8083C33.9521 44.0128 32.9968 45.1757 32 46.2556ZM24.2748 40.0256C22.6965 39.8179 21.2013 39.5687 19.7891 39.2364C20.246 37.8658 20.7444 36.4121 21.3674 34.9585C21.8243 35.7891 22.2811 36.6613 22.7796 37.492C23.278 38.4057 23.7764 39.1949 24.2748 40.0256ZM21.3674 29.4345C20.7444 27.9808 20.246 26.5687 19.7891 25.1565C21.2013 24.8243 22.6965 24.5751 24.2748 24.3674C23.7764 25.1565 23.2364 25.9872 22.7796 26.8594C22.2811 27.7316 21.8243 28.6038 21.3674 29.4345ZM32 18.1789C32.9968 19.2588 33.9521 20.4217 34.8658 21.6262C33.9105 21.5847 32.9553 21.5431 32 21.5431C31.0447 21.5431 30.0895 21.5847 29.1342 21.6262C30.0479 20.4217 31.0032 19.2588 32 18.1789ZM41.2204 26.901L39.7252 24.4089C41.3035 24.6166 42.7987 24.8658 44.2109 25.1981C43.754 26.5687 43.2556 28.0224 42.6326 29.476C42.1757 28.6038 41.7188 27.7316 41.2204 26.901ZM18.5847 20.1725C17.8786 15.8115 18.4601 12.738 20.1629 11.7412C20.5783 11.492 21.0767 11.3674 21.6166 11.3674C24.1086 11.3674 27.2236 13.4026 30.3387 16.476C28.885 18.0543 27.4313 19.8818 26.0192 21.8754C23.6102 22.0831 21.3259 22.4569 19.1661 22.9137C18.9169 21.9585 18.7508 21.0447 18.5847 20.1725ZM8.32588 32.2173C8.32588 30.2652 10.6933 28.1885 14.8466 26.6518C15.6773 26.3195 16.5911 26.0288 17.5048 25.7796C18.1693 27.8562 19 30.0575 19.9968 32.2588C19 34.4601 18.1278 36.6198 17.5048 38.6965C11.7732 37.0351 8.32588 34.5431 8.32588 32.2173ZM20.1629 52.6933C18.4601 51.6965 17.8786 48.623 18.5847 44.262C18.7093 43.3898 18.9169 42.476 19.1661 41.5208C21.3259 42.0192 23.6102 42.3514 26.0192 42.5591C27.4313 44.5527 28.885 46.3387 30.3387 47.9585C27.2652 50.9904 24.1502 53.0671 21.6166 53.0671C21.0767 53.0671 20.5783 52.9425 20.1629 52.6933ZM45.4153 44.262C46.1214 48.623 45.5399 51.6965 43.8371 52.6933C43.4217 52.9425 42.9233 53.0671 42.3834 53.0671C39.8914 53.0671 36.7764 51.0319 33.6613 47.9585C35.115 46.3802 36.5687 44.5527 37.9808 42.5591C40.3898 42.3514 42.6741 41.9776 44.8339 41.5208C45.0831 42.476 45.2492 43.3898 45.4153 44.262ZM49.1534 37.7827C48.3227 38.115 47.4089 38.4058 46.4952 38.655C45.8307 36.5783 45 34.377 44.0032 32.1757C45 29.9744 45.8722 27.8147 46.4952 25.738C52.2268 27.3994 55.6741 29.8914 55.6741 32.2173C55.6741 34.1693 53.2652 36.246 49.1534 37.7827Z" fill="#61DAFB"/>
</svg>
