<svg width="64" height="64" viewBox="0 0 64 64" fill="none" xmlns="http://www.w3.org/2000/svg">
<path d="M14.3901 45.8075C14.3901 46.5514 13.7702 47.254 12.9435 47.254C12.3236 47.254 11.7863 47.4194 11.2903 47.7913C10.753 48.122 10.381 48.5766 10.0504 49.1139C9.38911 49.9819 9.05847 51.0151 8.93448 51.3871V56.5534C8.93448 57.3387 8.27319 58 7.44657 58C6.66129 58 6 57.3387 6 56.5534V45.8075C6 45.0222 6.66129 44.4022 7.44657 44.4022C8.27319 44.4022 8.93448 45.0222 8.93448 45.8075V46.0141C9.0998 45.8075 9.30645 45.6008 9.5131 45.4768C10.4224 44.8982 11.5796 44.4022 12.9435 44.4022C13.7702 44.4022 14.3901 45.0222 14.3901 45.8075ZM13.6048 51.1804C13.6462 47.4607 16.498 44.3609 20.2591 44.3609C23.8135 44.3609 26.5827 47.006 26.8306 50.6845V50.8085C26.8306 50.8498 26.8306 51.0151 26.7893 51.0565C26.7067 51.7177 26.128 52.131 25.3841 52.131H16.7046C16.8286 52.751 17.1593 53.4536 17.6139 53.9083C18.1925 54.5696 19.2671 55.0655 20.2177 55.1482C21.2097 55.2308 22.3669 54.9829 23.0282 54.4869C23.6069 53.9083 24.7228 53.9496 25.0534 54.4042C25.4254 54.7762 25.6734 55.6028 25.0534 56.1814C23.7308 57.4214 22.119 57.9587 20.1764 57.9587C16.498 57.9587 13.6048 54.8589 13.6048 51.1804ZM16.5393 49.8579H24.2268C23.9375 48.7833 22.5736 47.1714 20.2177 46.9647C17.9032 47.0474 16.7873 48.7419 16.5393 49.8579ZM40.6351 56.5121C40.6351 57.2974 39.9738 58 39.1472 58C38.4032 58 37.8246 57.4627 37.7006 56.8427C36.6673 57.5454 35.3448 58 33.9808 58C30.3024 58 27.3679 54.9002 27.3679 51.2218C27.3679 47.502 30.3024 44.4022 33.9808 44.4022C35.3034 44.4022 36.626 44.8569 37.6179 45.5595V40.3931C37.6179 39.6079 38.2792 38.9052 39.1058 38.9052C39.9325 38.9052 40.5937 39.5665 40.5937 40.3931V51.2218L40.6351 56.5121ZM34.0222 47.3367C33.0302 47.3367 32.1623 47.75 31.4597 48.4526C30.7984 49.1139 30.3851 50.1058 30.3851 51.1804C30.3851 52.2137 30.7984 53.2056 31.4597 53.8669C32.121 54.5696 33.0302 54.9829 34.0222 54.9829C35.0141 54.9829 35.8821 54.5696 36.5847 53.8669C37.246 53.2056 37.6593 52.2137 37.6593 51.1804C37.6593 50.1058 37.246 49.1139 36.5847 48.4526C35.9234 47.75 35.0554 47.3367 34.0222 47.3367ZM45.8427 40.9718C45.8427 41.7984 45.2228 42.4597 44.3548 42.4597C43.5282 42.4597 42.8669 41.7984 42.8669 40.9718V40.3931C42.8669 39.5665 43.5282 38.9052 44.3548 38.9052C45.1814 38.9052 45.8427 39.5665 45.8427 40.3931V40.9718ZM45.8427 45.8901V56.5121C45.8427 57.3387 45.2228 58 44.3548 58C43.5282 58 42.8669 57.3387 42.8669 56.5121V45.8901C42.8669 45.0222 43.5282 44.4022 44.3548 44.4022C45.2228 44.4022 45.8427 45.0222 45.8427 45.8901ZM47.7026 54.0736C48.1986 53.4123 49.1492 53.3296 49.7278 53.8669C50.4304 54.4456 51.6704 55.1069 52.7036 55.0655C53.4476 55.0655 54.1089 54.8175 54.5635 54.5282C54.9355 54.1976 55.0595 53.9496 55.0595 53.7016C55.0595 53.5776 55.0181 53.495 54.9768 53.4123C54.9355 53.3296 54.8528 53.2056 54.6048 53.0817C54.2329 52.7923 53.4062 52.503 52.4143 52.3377H52.373C51.5464 52.1724 50.7198 51.9657 50.0171 51.6351C49.2732 51.2631 48.6119 50.8085 48.1573 50.0645C47.8679 49.5685 47.7026 48.9899 47.7026 48.37C47.7026 47.13 48.4052 46.0554 49.3145 45.3942C50.2651 44.7329 51.4224 44.4022 52.6623 44.4022C54.5222 44.4022 55.8861 45.3115 56.754 45.8901C57.4153 46.3448 57.5806 47.2127 57.2087 47.9153C56.754 48.5766 55.8861 48.7419 55.1835 48.2873C54.3155 47.7087 53.5302 47.2954 52.6623 47.2954C52.001 47.2954 51.381 47.502 51.0091 47.7913C50.6371 48.0393 50.5544 48.2873 50.5544 48.4113C50.5544 48.5353 50.5544 48.5353 50.5958 48.6179C50.6371 48.6593 50.7198 48.7833 50.8851 48.9073C51.257 49.1552 51.9597 49.4032 52.8689 49.5685L52.9103 49.6099H52.9516C53.8609 49.7752 54.6875 50.0232 55.4728 50.3952C56.2167 50.7258 56.9607 51.2218 57.4153 52.0071C57.746 52.5444 57.9526 53.1643 57.9526 53.7843C57.9526 55.1069 57.2087 56.2228 56.2581 56.9254C55.2661 57.5867 54.0675 58 52.7036 58C50.5958 57.9587 48.9425 57.0081 47.8679 56.1401C47.2893 55.6028 47.2066 54.6935 47.7026 54.0736Z" fill="#636466"/>
<path d="M49.7278 31.3831C47.6613 32.4577 37.0393 36.8387 34.7661 37.996C32.493 39.1946 31.253 39.1532 29.4758 38.3266C27.6573 37.4587 16.374 32.9123 14.3075 31.9204C13.2742 31.4244 12.7369 31.0111 12.7369 30.6391V26.754C12.7369 26.754 27.4506 23.5302 29.8478 22.7036C32.245 21.8357 33.0716 21.8357 35.0555 22.5796C37.0807 23.3236 49.1905 25.5141 51.1744 26.2167V30.0605C51.2157 30.4325 50.7611 30.8458 49.7278 31.3831Z" fill="#A41E11"/>
<path d="M49.7278 27.498C47.6613 28.5726 37.0393 32.9536 34.7661 34.1109C32.493 35.3095 31.253 35.2682 29.4758 34.4415C27.6573 33.5736 16.374 29.0272 14.3075 28.0353C12.2823 27.0434 12.241 26.3821 14.2248 25.5968C16.2087 24.8115 27.492 20.3891 29.8478 19.5625C32.245 18.6946 33.0716 18.6946 35.0555 19.4385C37.0807 20.1825 47.6613 24.3982 49.6452 25.1008C51.7117 25.8448 51.7944 26.4234 49.7278 27.498Z" fill="#D82C20"/>
<path d="M49.7278 25.0595C47.6613 26.1341 37.0393 30.5151 34.7661 31.6724C32.493 32.871 31.253 32.8297 29.4758 32.003C27.6573 31.1351 16.374 26.5474 14.3075 25.5968C13.2742 25.1008 12.7369 24.6875 12.7369 24.3155V20.4305C12.7369 20.4305 27.4506 17.2067 29.8478 16.3801C32.245 15.5121 33.0716 15.5121 35.0555 16.2561C37.0807 17 49.1905 19.1905 51.1744 19.8932V23.7369C51.2157 24.1089 50.7611 24.5222 49.7278 25.0595Z" fill="#A41E11"/>
<path d="M49.7278 21.1744C47.6613 22.249 37.0393 26.63 34.7661 27.7873C32.493 28.9859 31.253 28.9446 29.4758 28.1179C27.6986 27.25 16.374 22.7036 14.3488 21.7117C12.3236 20.7198 12.2823 20.0585 14.2661 19.2732C16.25 18.4879 27.5333 14.0655 29.8891 13.2389C32.2863 12.371 33.1129 12.371 35.0968 13.1149C37.122 13.8589 47.7026 18.0746 49.6865 18.7772C51.7117 19.4798 51.7944 20.0998 49.7278 21.1744Z" fill="#D82C20"/>
<path d="M49.7278 18.4879C47.6613 19.5625 37.0393 23.9436 34.7661 25.1008C32.493 26.2994 31.253 26.2581 29.4758 25.4315C27.6986 24.5635 16.374 20.0171 14.3488 19.0252C13.3155 18.5292 12.7782 18.1159 12.7782 17.744V13.8589C12.7782 13.8589 27.4919 10.6351 29.8891 9.80848C32.2863 8.94054 33.1129 8.94054 35.0968 9.68449C37.122 10.4284 49.2319 12.619 51.2157 13.3216V17.1653C51.2157 17.496 50.7611 17.9506 49.7278 18.4879Z" fill="#A41E11"/>
<path d="M49.7278 14.6028C47.6613 15.6774 37.0393 20.0585 34.7661 21.2157C32.493 22.4143 31.253 22.373 29.4758 21.5464C27.6986 20.6784 16.374 16.1321 14.3488 15.1401C12.3236 14.1482 12.2823 13.4869 14.2661 12.7016C16.25 11.9163 27.5333 7.49396 29.8891 6.66735C32.2863 5.79941 33.1129 5.79941 35.0968 6.54336C37.122 7.28731 47.7026 11.503 49.6865 12.2057C51.7117 12.9083 51.7944 13.5282 49.7278 14.6028Z" fill="#D82C20"/>
<path d="M37.0393 10.8417L33.6916 11.1724L32.9476 12.9909L31.749 10.9657L27.9053 10.6351L30.7571 9.60183L29.9305 8.03127L32.617 9.06453L35.1381 8.23792L34.4355 9.89114L37.0393 10.8417ZM32.7409 19.5625L26.5414 16.9587L35.4688 15.5948L32.7409 19.5625Z" fill="white"/>
<path d="M24.1442 15.5534C26.7692 15.5534 28.8972 14.7207 28.8972 13.6936C28.8972 12.6664 26.7692 11.8337 24.1442 11.8337C21.5191 11.8337 19.3911 12.6664 19.3911 13.6936C19.3911 14.7207 21.5191 15.5534 24.1442 15.5534Z" fill="white"/>
<path d="M40.9657 11.3377L46.256 13.4042L40.9657 15.5121V11.3377Z" fill="#7A0C00"/>
<path d="M35.1381 13.6522L40.9657 11.3377V15.5121L40.4284 15.7188L35.1381 13.6522Z" fill="#AD2115"/>
</svg>
