<svg width="64" height="64" viewBox="0 0 64 64" fill="none" xmlns="http://www.w3.org/2000/svg">
    <circle cx="32" cy="32" r="26" fill="#BF4080"/>
    <path d="M46.4336 34.2457C46.4824 34.2445 46.5399 34.2432 46.5987 34.2432C47.6417 34.2432 48.6284 34.4857 49.5038 34.9182L49.4651 34.9007C50.2629 35.2895 50.9182 35.8645 51.3922 36.5696L51.4035 36.5871C51.7774 37.1321 52 37.8059 52 38.5309C52 38.5834 51.9988 38.6359 51.9963 38.6872V38.6797C51.9575 39.4034 51.6286 40.0422 51.1233 40.4897L51.1208 40.4922C50.8445 40.7635 50.5106 40.976 50.1391 41.111L50.1204 41.1173C49.9119 41.1589 49.7973 41.1277 49.7765 41.0235C49.7556 40.9193 49.8494 40.8047 50.0578 40.6797C50.6231 40.3372 51.032 39.7847 51.1809 39.1334L51.1846 39.1172C51.1884 39.0647 51.1909 39.0034 51.1909 38.9409C51.1909 38.5521 51.0983 38.1846 50.9345 37.8596L50.9408 37.8734C50.6694 37.3071 50.2642 36.8421 49.7652 36.5058L49.7527 36.4983C49.0061 36.0183 48.1107 35.7033 47.1477 35.6245L47.1277 35.6233C46.8001 35.5745 46.4224 35.547 46.0372 35.547C45.0355 35.547 44.0788 35.7358 43.1984 36.0795L43.2509 36.0608C43.4322 36.4846 43.546 36.9758 43.5623 37.4909V37.4971C43.5423 38.5534 42.9745 39.4722 42.1304 39.9847L42.1166 39.9922C41.7289 40.2672 41.2862 40.5085 40.8148 40.696L40.771 40.711C40.4846 40.851 40.1482 40.9322 39.793 40.9322C39.7518 40.9322 39.7117 40.931 39.6717 40.9285H39.678C38.8868 40.7627 38.6992 40.0751 39.1152 38.8659C39.2965 38.3396 39.5504 37.8834 39.8718 37.4821L39.8643 37.4909C40.2758 36.9533 40.7272 36.4821 41.2262 36.0645L41.24 36.0533L41.1174 35.8708C40.8885 35.4808 40.6784 35.027 40.5096 34.5532L40.4921 34.4957C40.367 34.079 40.2628 33.6836 40.1795 33.3094L40.1169 32.8719L39.4916 34.0582C38.9497 35.0583 38.4286 35.9329 37.9284 36.6821L37.7408 36.9946C37.9509 37.5046 38.106 38.0959 38.176 38.7134L38.1785 38.7447C38.1835 38.8034 38.186 38.8734 38.186 38.9434C38.186 39.891 37.7183 40.7285 37.0005 41.2398L36.9917 41.246C36.6491 41.4573 36.2401 41.676 35.8162 41.871L35.7411 41.9023C35.2997 42.0935 34.7882 42.2185 34.2517 42.2461H34.2404C34.1992 42.2486 34.1504 42.2511 34.1016 42.2511C33.789 42.2511 33.4926 42.1798 33.2275 42.0535L33.24 42.0585C33.0811 41.9223 32.9811 41.7223 32.9811 41.4985C32.9811 41.3848 33.0073 41.276 33.0536 41.1798L33.0511 41.1848C33.5514 40.4835 34.0441 39.8735 34.5681 39.2909L34.5518 39.3097L35.9275 37.5609L35.6786 36.9983C35.4785 36.6308 35.2872 36.197 35.1333 35.747L35.1158 35.687C34.9908 35.2703 34.8866 34.8749 34.8032 34.5007L34.7407 34.0632L34.1154 35.5633C33.616 36.7292 33.1574 37.7288 32.7397 38.5621C32.1169 39.8122 31.5959 40.7706 31.1765 41.4373L31.0514 41.6248C30.552 42.4156 30.0726 42.8111 29.6133 42.8111C29.1539 42.8111 28.8425 42.5194 28.6791 41.936C28.559 41.506 28.489 41.0123 28.489 40.5022C28.489 40.4572 28.489 40.4122 28.4902 40.3672V40.3735L28.6153 39.4984V39.5609C28.2818 40.3518 27.9483 41.0806 27.6148 41.7473C27.3935 42.1798 27.1659 42.5486 26.9107 42.8961L26.927 42.8723C26.6694 43.1423 26.3067 43.3098 25.9053 43.3098C25.9015 43.3098 25.899 43.3098 25.8953 43.3098C25.869 43.3123 25.839 43.3123 25.809 43.3123C25.4926 43.3123 25.2049 43.1923 24.9873 42.9961L24.9886 42.9973C24.5521 42.5498 24.2282 41.991 24.0607 41.3673L24.0544 41.341C23.8493 40.7722 23.7318 40.1147 23.7318 39.4297C23.7318 39.3409 23.7343 39.2534 23.738 39.1672V39.1797C23.8368 38.1846 24.0356 37.2733 24.327 36.4046L24.3008 36.4933L22.051 37.8059V37.8684C22.3774 38.5459 22.5687 39.3409 22.5687 40.181C22.5687 40.3347 22.5625 40.4872 22.5499 40.6372L22.5512 40.6172C22.4849 41.9048 22.0735 43.0836 21.4094 44.0799L21.4257 44.0549C20.7291 45.1599 19.7249 46.0137 18.5318 46.5075L18.4905 46.5225C17.819 46.8237 17.0336 47 16.2082 47C15.6855 47 15.1777 46.93 14.6975 46.7975L14.7375 46.8062C14.3398 46.6725 14.0147 46.4075 13.8083 46.065L13.8046 46.0575C13.5132 45.6349 13.3294 45.1187 13.3006 44.5624V44.5549C13.2869 44.4286 13.2793 44.2824 13.2793 44.1336C13.2793 43.4924 13.4257 42.8848 13.687 42.3436L13.6758 42.3686C14.3936 41.1448 15.3866 40.1535 16.5721 39.4559L16.6097 39.4359C17.4488 38.8547 18.413 38.2909 19.4197 37.7996L19.5523 37.7409L19.8649 37.5534C19.4898 37.2617 18.8019 36.7617 17.8015 36.0533C16.4646 35.1583 15.3028 34.2545 14.2073 33.2769L14.2385 33.3044C13.1793 32.3931 12.4077 31.1756 12.0613 29.7893L12.0513 29.7418C12.0188 29.5493 12 29.328 12 29.103C12 28.398 12.1813 27.7354 12.499 27.1592L12.489 27.1804C13.1893 25.6754 14.1598 24.4066 15.3503 23.3865L15.3653 23.374C16.6534 22.1577 18.1116 21.0989 19.6949 20.2414L19.8037 20.1876C21.2181 19.3713 22.8701 18.6126 24.5922 18.0038L24.8048 17.9388C26.4043 17.3538 28.2514 17.0113 30.1773 17.005H30.1798C30.2673 17.0025 30.3711 17 30.4749 17C32.0269 17 33.4951 17.3588 34.8007 17.9975L34.7432 17.9713C35.8687 18.4838 36.7116 19.4489 37.0492 20.6289L37.0567 20.6589C37.1605 21.0614 37.2193 21.5239 37.2193 22.0002C37.2193 22.7902 37.0555 23.5428 36.7616 24.2253L36.7754 24.189C36.2401 25.4854 35.4785 26.5891 34.5281 27.4979L34.5243 27.5017C33.5614 28.4555 32.4071 29.218 31.1252 29.7268L31.0564 29.7505C29.7133 30.3268 28.1538 30.6893 26.5168 30.7493L26.493 30.7506C26.2529 30.7781 25.9753 30.7931 25.6939 30.7931C24.9536 30.7931 24.2395 30.6868 23.5642 30.4881L23.6179 30.5018C23.0139 30.3093 22.4924 30.0105 22.0497 29.623L22.0547 29.6268C21.7446 29.3743 21.4919 29.063 21.3119 28.7092L21.3044 28.693C21.1793 28.3596 21.1689 28.1617 21.2731 28.0992C21.3773 28.0367 21.4503 28.0263 21.4919 28.068L21.8046 28.3805C22.1535 28.7042 22.57 28.9592 23.0302 29.1218L23.0552 29.1293C23.688 29.3493 24.4183 29.4768 25.1774 29.4768C25.4213 29.4768 25.6614 29.4643 25.8978 29.438L25.869 29.4405C27.8925 29.2018 29.7171 28.5117 31.2915 27.4742L31.2453 27.5029C32.5759 26.7117 33.6527 25.6241 34.4105 24.3278L34.433 24.2853C34.8094 23.7328 35.0345 23.0503 35.0345 22.3152C35.0345 21.864 34.9495 21.4314 34.7944 21.0339L34.8032 21.0577C34.3355 20.3189 33.5789 19.7989 32.696 19.6551L32.6784 19.6526C31.9931 19.4839 31.2053 19.3863 30.3961 19.3863C29.7446 19.3863 29.1068 19.4489 28.4902 19.5689L28.5528 19.5589C26.443 19.9389 24.5571 20.5901 22.8176 21.4852L22.9314 21.4314C17.8056 24.0149 15.159 26.6604 14.9914 29.368V29.4293C14.9914 30.5206 15.4204 31.5119 16.1194 32.2444L16.1182 32.2431C16.9148 33.1282 17.7952 33.9095 18.7569 34.5845L18.8057 34.617C19.6824 35.272 20.4577 35.9483 21.1793 36.6783L21.1806 36.6808L21.3056 36.8058L25.3075 34.6195C25.764 33.9595 26.313 33.4019 26.9433 32.9519L26.9633 32.9382C27.4635 32.5181 28.0988 32.2444 28.7954 32.1894L28.8066 32.1881C28.8316 32.1856 28.8604 32.1856 28.8904 32.1856C29.3569 32.1856 29.7571 32.4669 29.9297 32.8694L29.9322 32.8769C30.0635 33.1707 30.1398 33.5144 30.1398 33.8757C30.1398 33.9857 30.1323 34.0945 30.1185 34.202L30.1197 34.1895L29.9984 34.8057L30.186 34.6807C30.3161 34.582 30.4799 34.5232 30.6575 34.5232C30.7701 34.5232 30.8763 34.547 30.9726 34.5895L30.9676 34.587C31.2078 34.6495 31.3816 34.8645 31.3816 35.1195C31.3816 35.1633 31.3766 35.2058 31.3666 35.247L31.3678 35.2433L31.1802 35.9308C30.8051 37.43 30.5554 38.513 30.4311 39.1797C30.3686 39.3959 30.3336 39.6447 30.3336 39.9022C30.3336 39.956 30.3348 40.0085 30.3386 40.061V40.0535C30.3594 40.3035 30.3907 40.4285 30.4324 40.4285C30.4741 40.4285 30.557 40.3035 30.6813 40.0535L30.8688 39.6159C30.9105 39.6159 30.9105 39.6368 30.8688 39.6784L31.5567 38.2409C33.1824 34.6591 34.0574 32.659 34.1816 32.2406L34.5568 31.0543C34.5985 30.971 34.7653 30.8881 35.0571 30.8056C35.3534 30.7256 35.6924 30.6793 36.0425 30.6793C36.0713 30.6793 36.1 30.6793 36.1276 30.6806H36.1238C36.7074 30.6806 36.9992 30.8264 36.9992 31.1181L36.9367 31.4306C36.7966 31.8156 36.6578 32.2969 36.5503 32.7894L36.5365 32.8682C36.5115 33.0294 36.4965 33.2144 36.4965 33.4044C36.4965 33.6569 36.5215 33.9032 36.5703 34.142L36.5665 34.1182L36.629 34.367C36.7566 34.8882 36.9504 35.3458 37.2043 35.7633L37.1918 35.742C37.6912 34.9095 38.1706 34.0557 38.63 33.1807C38.9927 32.5769 39.3303 31.8769 39.6017 31.1443L39.6305 31.0568C39.7242 30.5856 39.8318 30.188 39.9631 29.8005L39.9431 29.8705C39.9848 29.7455 40.1628 29.6518 40.4771 29.5893C40.7747 29.5293 41.1161 29.4955 41.4651 29.4955H41.5101H41.5076C42.0912 29.4955 42.4026 29.6414 42.4418 29.933L42.3167 30.1818C42.1679 30.6018 42.0378 31.1068 41.9503 31.6256L41.9428 31.6819C41.9315 31.8031 41.924 31.9431 41.924 32.0856C41.924 32.3844 41.954 32.6769 42.0103 32.9594L42.0053 32.9307V33.1794C42.1491 33.7244 42.363 34.2032 42.6431 34.637L42.6306 34.617L42.8182 35.0545C43.8624 34.542 45.0905 34.242 46.3886 34.242H46.4374H46.4349L46.4336 34.2457ZM19.6223 43.3123C20.4915 42.4148 21.028 41.1898 21.028 39.8397C21.028 39.3184 20.9479 38.8159 20.8004 38.3434L20.8104 38.3784L19.8099 39.0034C18.7894 39.5847 17.9065 40.2335 17.1074 40.971L17.1174 40.9622C16.5109 41.5198 16.0632 42.2411 15.8431 43.0548L15.8355 43.0861C15.648 43.857 15.7418 44.357 16.1169 44.5862C16.3458 44.6912 16.6147 44.7524 16.896 44.7524C17.2037 44.7524 17.4951 44.6799 17.7514 44.5499L17.7402 44.5549C18.483 44.2849 19.1121 43.8561 19.6123 43.3073L19.6161 43.3036L19.6223 43.3123ZM27.9975 37.5571C28.2059 37.0154 28.4352 36.3696 28.6853 35.6195C29.0188 34.6195 29.1334 34.0365 29.0292 33.8707C28.925 33.7049 28.727 33.684 28.4352 33.8082C28.0875 33.977 27.7962 34.2082 27.5635 34.492L27.5598 34.497C27.2997 34.8257 27.0521 35.1933 26.832 35.5795L26.8094 35.622C26.5568 36.0358 26.343 36.5121 26.1942 37.0171L26.1829 37.0596C25.9415 37.7134 25.8015 38.4696 25.8015 39.2572C25.8015 39.3634 25.804 39.4684 25.809 39.5734V39.5584C25.8507 40.391 25.9841 40.8389 26.2092 40.9022C26.4343 40.9656 26.6948 40.6635 26.9908 39.996C27.2772 39.4797 27.5323 38.8797 27.7224 38.2509L27.7399 38.1834C27.8641 37.8884 27.9491 37.6796 27.995 37.5571H27.9975ZM34.9333 40.8697C35.7999 40.481 36.4102 39.6622 36.4952 38.6934L36.4965 38.6834V38.6209L35.8087 39.4959L34.5593 40.871C34.5406 40.886 34.5281 40.9085 34.5281 40.9335C34.5281 40.9585 34.5406 40.981 34.5581 40.996C34.5981 41.0368 34.7232 40.9952 34.9333 40.871V40.8697ZM40.3095 39.6822C41.255 39.4122 41.9353 38.5559 41.9353 37.5421C41.9353 37.5259 41.9353 37.5096 41.9353 37.4934V37.4959C41.9228 37.2458 41.8778 37.0108 41.804 36.7883L41.809 36.8071C41.3225 37.2396 40.9236 37.7571 40.6347 38.3409L40.6209 38.3696C40.2449 39.1188 40.1399 39.5555 40.3058 39.6797L40.3095 39.6822Z" fill="white"/>
</svg>
