<svg width="64" height="64" viewBox="0 0 64 64" fill="none" xmlns="http://www.w3.org/2000/svg">
<path d="M55.3927 13.514L39.5355 31.545C39.49 31.5934 39.4352 31.6319 39.3746 31.6582C39.314 31.6845 39.2487 31.6981 39.1827 31.6981C39.1167 31.6981 39.0515 31.6845 38.9908 31.6582C38.9302 31.6319 38.8754 31.5934 38.8299 31.545L30.7345 23.095C30.6669 23.0079 30.6301 22.9003 30.6301 22.7895C30.6301 22.6787 30.6669 22.5711 30.7345 22.484L33.3645 19C33.4099 18.9382 33.4689 18.8879 33.5369 18.8533C33.6048 18.8187 33.6798 18.8007 33.7558 18.8007C33.8319 18.8007 33.9069 18.8187 33.9748 18.8533C34.0428 18.8879 34.1018 18.9382 34.1471 19L38.6503 24.083C38.696 24.1356 38.7523 24.1777 38.8153 24.2065C38.8784 24.2353 38.9468 24.2502 39.0159 24.2502C39.0851 24.2502 39.1535 24.2353 39.2165 24.2065C39.2795 24.1777 39.3358 24.1356 39.3816 24.083L52.0827 6.546C52.1168 6.49447 52.1368 6.43471 52.1407 6.37279C52.1446 6.31088 52.1322 6.24903 52.1049 6.19354C52.0775 6.13805 52.0361 6.0909 51.9848 6.05691C51.9336 6.02291 51.8744 6.00327 51.8133 6H7.37205C7.27338 6 7.17875 6.03972 7.10897 6.11042C7.0392 6.18112 7 6.27701 7 6.377V57.623C7 57.723 7.0392 57.8189 7.10897 57.8896C7.17875 57.9603 7.27338 58 7.37205 58H55.6237C55.7223 58 55.817 57.9603 55.8867 57.8896C55.9565 57.8189 55.9957 57.723 55.9957 57.623V13.8C56.0075 13.7248 55.9948 13.6477 55.9596 13.5804C55.9244 13.5132 55.8685 13.4593 55.8005 13.427C55.7324 13.3947 55.6558 13.3858 55.5822 13.4014C55.5087 13.4171 55.4422 13.4566 55.3927 13.514ZM20.6634 52.293C17.4857 52.4366 14.3784 51.3171 12.0035 49.173C11.9303 49.086 11.8901 48.9754 11.8901 48.861C11.8901 48.7466 11.9303 48.636 12.0035 48.549L13.8894 45.871C13.9283 45.8156 13.9782 45.7692 14.0361 45.7348C14.0939 45.7004 14.1583 45.6788 14.2249 45.6714C14.2916 45.664 14.3591 45.671 14.4229 45.692C14.4866 45.713 14.5453 45.7474 14.595 45.793C16.3177 47.4126 18.5828 48.3094 20.9328 48.302C23.4089 48.302 24.6148 47.145 24.6148 45.923C24.6148 42.127 12.4269 44.727 12.4269 36.654C12.4269 33.079 15.4803 30.154 20.4581 30.154C23.3351 30.0502 26.1518 31.0062 28.3867 32.845C28.4669 32.9337 28.5115 33.0497 28.5115 33.17C28.5115 33.2903 28.4669 33.4063 28.3867 33.495L26.4495 36.095C26.4106 36.1464 26.362 36.1894 26.3064 36.2213C26.2507 36.2532 26.1894 36.2734 26.1259 36.2807C26.0624 36.2879 25.9981 36.2822 25.9368 36.2637C25.8756 36.2452 25.8187 36.2143 25.7695 36.173C24.1269 34.8455 22.0844 34.1296 19.9834 34.145C18.0462 34.145 16.9685 35.016 16.9685 36.303C16.9685 39.709 29.1308 37.434 29.1308 45.403C29.1436 49.329 26.3853 52.293 20.6634 52.293ZM47.2589 44.857C47.2589 44.9673 47.2156 45.0731 47.1386 45.1512C47.0616 45.2292 46.9572 45.273 46.8483 45.273H35.7252C35.7072 45.2729 35.6894 45.2767 35.6729 45.284C35.6564 45.2913 35.6417 45.3021 35.6296 45.3156C35.6175 45.329 35.6083 45.3449 35.6027 45.3623C35.5971 45.3796 35.5951 45.3979 35.5969 45.416C35.7786 46.4685 36.3404 47.4148 37.1727 48.0708C38.0051 48.7268 39.0485 49.0456 40.1 48.965C41.4817 48.9274 42.8212 48.475 43.9488 47.665C43.9929 47.6301 44.0435 47.6048 44.0976 47.5904C44.1516 47.5761 44.208 47.5731 44.2633 47.5816C44.3185 47.5901 44.3715 47.61 44.4189 47.64C44.4663 47.67 44.5072 47.7094 44.539 47.756L45.8989 49.771C45.9572 49.8605 45.9803 49.9688 45.9637 50.0747C45.947 50.1805 45.8919 50.2763 45.8091 50.343C44.0159 51.6652 41.8422 52.3506 39.6253 52.293C38.5165 52.3555 37.4071 52.1825 36.3682 51.7849C35.3293 51.3874 34.3839 50.7742 33.5926 49.9847C32.8013 49.1951 32.1817 48.2467 31.7735 47.2002C31.3652 46.1538 31.1774 45.0324 31.222 43.908C31.1906 42.811 31.3792 41.719 31.7763 40.6981C32.1734 39.6771 32.7709 38.7484 33.5325 37.9682C34.2941 37.1879 35.204 36.5724 36.2072 36.1588C37.2103 35.7452 38.2859 35.5422 39.3687 35.562C44.0643 35.562 47.246 39.124 47.246 44.337L47.2589 44.857ZM39.3816 38.903C38.4385 38.8741 37.5191 39.2057 36.8061 39.8318C36.0931 40.458 35.6386 41.333 35.5327 42.283C35.5309 42.3011 35.5329 42.3194 35.5385 42.3368C35.5442 42.3541 35.5533 42.37 35.5654 42.3834C35.5775 42.3969 35.5923 42.4077 35.6088 42.415C35.6252 42.4224 35.643 42.4261 35.661 42.426H43.1278C43.1457 42.4261 43.1635 42.4224 43.18 42.415C43.1965 42.4077 43.2112 42.3969 43.2233 42.3834C43.2354 42.37 43.2446 42.3541 43.2502 42.3368C43.2559 42.3194 43.2579 42.3011 43.2561 42.283C43.1806 41.3158 42.7311 40.4179 42.0055 39.7848C41.2798 39.1518 40.3367 38.8348 39.3816 38.903Z" fill="#43B02A"/>
</svg>
