<svg width="64" height="64" viewBox="0 0 64 64" fill="none" xmlns="http://www.w3.org/2000/svg">
<g clip-path="url(#clip0_230_29)">
<path d="M23.1283 35.0411C22.9688 34.9574 22.8462 34.7781 22.8462 34.5391C22.8462 34.2169 23.1037 33.9557 23.4484 33.9557C23.5705 33.9557 23.6814 33.9907 23.7668 34.0385C24.3936 34.4449 25.0444 34.648 25.6328 34.648C26.2711 34.648 26.6393 34.385 26.6393 33.9665V33.9428C26.6393 33.4532 25.9523 33.2863 25.1906 33.0595C24.2336 32.7966 23.1656 32.4149 23.1656 31.2086V31.1844C23.1656 29.99 24.1844 29.2618 25.4735 29.2618C26.1611 29.2618 26.885 29.4532 27.5111 29.7751C27.7204 29.8829 27.8669 30.0741 27.8669 30.3242C27.8669 30.6589 27.5973 30.9103 27.2536 30.9103C27.1302 30.9103 27.0566 30.8863 26.9595 30.8382C26.4308 30.5752 25.8908 30.4077 25.4368 30.4077C24.8594 30.4077 24.5279 30.6711 24.5279 31.0296V31.0528C24.5279 31.5187 25.2276 31.7093 25.9889 31.9486C26.9342 32.2354 28.0022 32.6531 28.0022 33.7875V33.8117C28.0022 35.1371 26.9459 35.7932 25.5959 35.7932C24.774 35.7932 23.8778 35.5433 23.1283 35.0411Z" fill="#5FB832"/>
<path d="M33.7566 32.5338V32.5096C33.7566 31.2921 32.9094 30.4919 31.9033 30.4919C30.8967 30.4919 30.0129 31.3039 30.0129 32.5096V32.5338C30.0129 33.7399 30.8967 34.5527 31.9033 34.5527C32.9221 34.5527 33.7566 33.7759 33.7566 32.5338ZM28.564 29.9898C28.564 29.5845 28.8828 29.2616 29.301 29.2616C29.7181 29.2616 30.0496 29.5845 30.0496 29.9898V30.4203C30.5284 29.7638 31.2033 29.2382 32.2593 29.2382C33.7812 29.2382 35.2668 30.4079 35.2668 32.5096V32.5338C35.2668 34.6238 33.7936 35.8057 32.2593 35.8057C31.1791 35.8057 30.5038 35.2797 30.0496 34.6958V36.9277C30.0496 37.3352 29.7181 37.6458 29.301 37.6458C28.8962 37.6458 28.564 37.3352 28.564 36.9277V29.9898Z" fill="#5FB832"/>
<path d="M35.8294 29.9906C35.8294 29.5854 36.1477 29.2624 36.5652 29.2624C36.9836 29.2624 37.3146 29.5854 37.3146 29.9906V30.338C37.3887 29.7969 38.2962 29.2624 38.9471 29.2624C39.4133 29.2624 39.6837 29.5607 39.6837 29.9785C39.6837 30.3603 39.4257 30.6115 39.0942 30.6711C38.0385 30.8503 37.3146 31.749 37.3146 32.9922V35.0755C37.3146 35.47 36.9836 35.7923 36.5652 35.7923C36.1604 35.7923 35.8294 35.4816 35.8294 35.0755V29.9906Z" fill="#5FB832"/>
<path d="M40.2455 29.9935C40.2455 29.5876 40.5658 29.2647 40.9825 29.2647C41.3997 29.2647 41.7313 29.5876 41.7313 29.9935V35.0767C41.7313 35.4822 41.3997 35.7923 40.9825 35.7923C40.5771 35.7923 40.2455 35.4822 40.2455 35.0767V29.9935Z" fill="#5FB832"/>
<path d="M42.4801 29.9963C42.4801 29.5904 42.7994 29.2682 43.2161 29.2682C43.6339 29.2682 43.9652 29.5904 43.9652 29.9963V30.2928C44.3833 29.7075 44.9839 29.2646 45.9904 29.2646C47.4512 29.2646 48.2987 30.2203 48.2987 31.677V35.0758C48.2987 35.4816 47.9791 35.7925 47.5618 35.7925C47.1446 35.7925 46.8133 35.4816 46.8133 35.0758V32.119C46.8133 31.1403 46.31 30.5786 45.426 30.5786C44.5669 30.5786 43.9652 31.1637 43.9652 32.1437V35.0758C43.9652 35.4816 43.6339 35.7925 43.2161 35.7925C42.8113 35.7925 42.4801 35.4816 42.4801 35.0758V29.9963Z" fill="#5FB832"/>
<path d="M52.2249 34.5395C51.2051 34.5395 50.3711 33.763 50.3711 32.5209V32.4975C50.3711 31.2796 51.2175 30.4794 52.2249 30.4794C53.2317 30.4794 54.1154 31.2917 54.1154 32.4975V32.5209C54.1154 33.7273 53.2317 34.5395 52.2249 34.5395ZM54.826 29.2491C54.4093 29.2491 54.0778 29.5723 54.0778 29.9776V30.4074C53.5986 29.7509 52.9242 29.2256 51.869 29.2256C50.346 29.2256 48.8611 30.3954 48.8611 32.4975V32.5209C48.8611 34.6109 50.3338 35.7925 51.869 35.7925C52.9429 35.7925 53.6164 35.2728 54.071 34.6918C53.9966 35.8273 53.282 36.4268 52.0286 36.4268C51.2803 36.4268 50.6294 36.247 50.0393 35.924C49.9658 35.8891 49.8812 35.8654 49.7703 35.8654C49.4266 35.8654 49.1434 36.1404 49.1434 36.4618C49.1434 36.7367 49.3033 36.9396 49.5618 37.0352C50.3463 37.4055 51.1559 37.5966 52.0648 37.5966C53.2317 37.5966 54.1403 37.3222 54.7296 36.7487C55.2685 36.2228 55.5632 35.4357 55.5632 34.3723V29.9776C55.5632 29.5723 55.2441 29.2491 54.826 29.2491Z" fill="#5FB832"/>
<path d="M41.7372 27.5247C41.7372 27.9265 41.4017 28.2532 40.9881 28.2532C40.5743 28.2532 40.2396 27.9265 40.2396 27.5247C40.2396 27.1218 40.5743 26.7965 40.9881 26.7965C41.4017 26.7965 41.7372 27.1218 41.7372 27.5247Z" fill="#5FB832"/>
<path d="M18.1448 35.3607C16.4981 37.4951 12.9805 36.7746 10.7253 36.8782C10.7253 36.8782 10.3261 36.8998 9.92393 36.9642C9.92393 36.9642 10.076 36.9011 10.2699 36.8361C11.8539 36.3032 12.6024 36.1962 13.5649 35.7152C15.3732 34.8141 17.173 32.8512 17.5392 30.8121C16.8509 32.7733 14.7574 34.4612 12.8512 35.1466C11.5465 35.6149 9.1871 36.0707 9.18676 36.0709C9.18786 36.0726 9.09273 36.0229 9.0914 36.0218C7.48681 35.2624 7.44051 31.8816 10.3548 30.7918C11.6325 30.3137 12.8547 30.5763 14.236 30.2565C15.7092 29.9157 17.4154 28.8415 18.1089 27.437C18.8864 29.6804 19.8204 33.1902 18.1448 35.3607ZM18.1735 26.7419C17.9774 27.195 17.7382 27.6032 17.4624 27.9684C16.2484 26.7564 14.554 26.0012 12.6811 26.0012C8.99692 26.0012 6 28.917 6 32.5002C6 34.3787 6.82423 36.0729 8.13833 37.2604L8.28463 37.3865C8.04031 37.1927 8.00274 36.8436 8.20076 36.6057C8.39999 36.3677 8.75913 36.3309 9.00356 36.5236C9.24866 36.7168 9.286 37.0667 9.08755 37.305C8.88984 37.5434 8.53006 37.5794 8.2853 37.387L8.38486 37.4728C9.54724 38.4249 11.0456 39 12.6811 39C16.2025 39 19.0942 36.3341 19.3417 32.9693C19.525 31.3217 19.0248 29.2298 18.1735 26.7419Z" fill="#5FB832"/>
<path d="M57.3027 29.7043H57.0693V30.0048H57.3027C57.3782 30.0048 57.4608 29.9455 57.4608 29.8581C57.4608 29.7636 57.3782 29.7043 57.3027 29.7043ZM57.4467 30.4484L57.2201 30.113H57.0693V30.4484H56.9474V29.5994H57.3027C57.4501 29.5994 57.5867 29.7009 57.5867 29.8581C57.5867 30.0466 57.4139 30.1096 57.3638 30.1096L57.5975 30.4484H57.4467ZM57.2382 29.3933C56.8789 29.3933 56.5915 29.6728 56.5915 30.0224C56.5915 30.3681 56.8789 30.6512 57.2382 30.6512C57.5935 30.6512 57.8846 30.3681 57.8846 30.0224C57.8846 29.6728 57.5935 29.3933 57.2382 29.3933ZM57.2382 30.7631C56.8178 30.7631 56.4767 30.4311 56.4767 30.0224C56.4767 29.6098 56.8178 29.2814 57.2382 29.2814C57.662 29.2814 57.9997 29.6098 57.9997 30.0224C57.9997 30.4311 57.662 30.7631 57.2382 30.7631Z" fill="#5FB832"/>
</g>
<defs>
<clipPath id="clip0_230_29">
<rect width="52" height="13" fill="white" transform="translate(6 26)"/>
</clipPath>
</defs>
</svg>
