<svg width="64" height="64" viewBox="0 0 64 64" fill="none" xmlns="http://www.w3.org/2000/svg">
<path d="M25.751 32C25.0584 32 24.4952 32.2051 24.0635 32.6148C23.6318 33.025 23.4128 33.5627 23.4128 34.2215C23.4128 34.5629 23.4671 34.8742 23.5743 35.1594C23.6815 35.4452 23.8483 35.7101 24.0725 35.9494C24.2967 36.1888 24.7455 36.514 25.4143 36.9277C26.2351 37.4287 26.7722 37.8353 27.03 38.1528C27.2879 38.47 27.4159 38.8025 27.4159 39.1491C27.4159 39.6131 27.2632 39.9836 26.9492 40.2621C26.6347 40.5407 26.214 40.6794 25.6926 40.6794C25.1426 40.6794 24.6635 40.4855 24.252 40.1006C23.8406 39.715 23.6329 39.205 23.6282 38.5657H23.3723V40.8859H23.6282C23.7064 40.6662 23.8144 40.5539 23.9558 40.5539C24.0239 40.5539 24.1833 40.6007 24.4315 40.6884C25.0356 40.9034 25.5316 41.007 25.9215 41.007C26.5934 41.007 27.1669 40.7718 27.6448 40.2935C28.122 39.8155 28.3628 39.2389 28.3628 38.5657C28.3628 38.0438 28.2038 37.5792 27.8917 37.1745C27.5795 36.7692 26.9724 36.2978 26.0651 35.7564C25.2844 35.2873 24.7776 34.9053 24.5437 34.6075C24.3095 34.3101 24.1892 33.9811 24.1892 33.6201C24.1892 33.2297 24.3327 32.9161 24.6155 32.6821C24.8984 32.4481 25.2691 32.3321 25.733 32.3321C26.2549 32.3321 26.6901 32.4871 27.0344 32.7989C27.3785 33.1112 27.5774 33.5441 27.6358 34.1003H27.8917V32.0899H27.6538C27.6247 32.1923 27.5978 32.2578 27.573 32.2872C27.5489 32.3165 27.5026 32.3321 27.4339 32.3321C27.3511 32.3321 27.2036 32.2973 26.994 32.2289C26.5452 32.0778 26.1315 32 25.7509 32H25.751ZM34.1118 32C33.2679 32 32.5017 32.199 31.8095 32.5969C31.1162 32.9941 30.5674 33.5458 30.1625 34.2484C29.7577 34.9511 29.5566 35.6972 29.5566 36.4924C29.5566 37.5606 29.9063 38.5124 30.6113 39.3466C31.3166 40.1802 32.1617 40.6997 33.1424 40.8994C33.3666 41.0162 33.6873 41.3177 34.1073 41.8059C34.5805 42.3568 34.9808 42.7541 35.31 42.9907C35.6318 43.2226 35.9896 43.4001 36.369 43.5158C36.7447 43.6301 37.1508 43.6864 37.5898 43.6864C38.1216 43.6864 38.5976 43.5939 39.0169 43.4036L38.9227 43.1702C38.6793 43.258 38.4197 43.3003 38.1463 43.3003C37.7752 43.3003 37.4002 43.178 37.0243 42.9324C36.649 42.686 36.1796 42.2162 35.6197 41.5231C35.3565 41.1911 35.1749 40.9815 35.0721 40.8994C36.1451 40.6898 37.0274 40.1699 37.7155 39.3376C38.4033 38.5058 38.7476 37.5564 38.7476 36.4923C38.7476 35.229 38.2981 34.1671 37.4058 33.3015C36.5127 32.4357 35.4145 32 34.1118 32ZM39.3311 32L39.3446 32.2737C39.9064 32.2737 40.2211 32.4392 40.2915 32.7719C40.3177 32.891 40.3297 33.1107 40.3318 33.4271L40.3273 39.4812C40.3227 39.9334 40.2583 40.222 40.1344 40.3473C40.0103 40.4717 39.8007 40.5497 39.4972 40.5807L39.4837 40.8545H45.0844L45.2281 39.4812H44.9722C44.8991 39.8553 44.7317 40.1234 44.4652 40.2756C44.1978 40.4289 43.7252 40.5044 43.0425 40.5044H42.5129C41.8986 40.5044 41.5432 40.2824 41.4493 39.8357C41.43 39.7474 41.4233 39.6526 41.4224 39.5486L41.4448 33.4271C41.4448 32.9757 41.5017 32.6732 41.6199 32.525C41.7392 32.3775 41.9545 32.295 42.2661 32.2737L42.2527 32H39.3311ZM34.2014 32.332C35.1533 32.332 35.9304 32.707 36.5307 33.463C37.1308 34.2194 37.4283 35.256 37.4283 36.5687C37.4283 37.8125 37.1265 38.8084 36.5217 39.5575C35.9169 40.3064 35.112 40.6795 34.1118 40.6795C33.1508 40.6795 32.3715 40.2947 31.7736 39.5216C31.1761 38.7484 30.8806 37.7447 30.8806 36.5103C30.8806 35.2419 31.1798 34.2265 31.7826 33.4675C32.385 32.7094 33.1917 32.3321 34.2015 32.3321L34.2014 32.332ZM47.0816 33.6336C46.9449 33.6336 46.8408 33.6797 46.763 33.7727C46.6832 33.8653 46.6588 33.9775 46.6866 34.1138C46.7135 34.246 46.7881 34.3617 46.9065 34.4593C47.0243 34.5568 47.1513 34.6075 47.288 34.6075C47.4201 34.6075 47.5208 34.5568 47.5931 34.4593C47.6655 34.3618 47.6875 34.246 47.6604 34.1138C47.6326 33.9775 47.5606 33.8653 47.4495 33.7726C47.3371 33.6797 47.2137 33.6336 47.0816 33.6336ZM50.775 34.5626C50.5429 35.4555 50.0397 35.9387 49.2672 36.0166L49.2761 36.2725H50.1781L50.1602 39.2973C50.1616 39.8144 50.1774 40.1587 50.214 40.3339C50.3029 40.7534 50.5769 40.9667 51.0353 40.9667C51.6987 40.9667 52.3944 40.5626 53.1221 39.755L52.9023 39.5665C52.3768 40.0984 51.9123 40.3653 51.5065 40.3653C51.2572 40.3653 51.1026 40.2219 51.0443 39.939C51.0283 39.8702 51.0219 39.7899 51.0219 39.6966L51.0308 36.2725H52.4086L52.3951 35.864H51.0353V34.5626H50.775ZM56.102 35.7024C55.3313 35.7024 54.7046 36.0766 54.2172 36.82C53.7323 37.5645 53.5823 38.3895 53.7729 39.2973C53.885 39.8289 54.1085 40.2409 54.4505 40.5313C54.792 40.8217 55.2251 40.9667 55.7431 40.9667C56.2252 40.9667 56.8965 40.8446 57.1791 40.5986C57.4624 40.3529 57.7233 39.9547 57.9645 39.4094L57.7716 39.2074C57.387 39.9149 56.611 40.2711 56.0257 40.2711C55.2212 40.2711 54.7284 39.8296 54.5447 38.9516C54.52 38.8331 54.5021 38.7132 54.4909 38.5926C55.4481 38.4411 56.1735 38.1727 56.663 37.7849C57.1522 37.3967 57.6433 36.9853 57.5516 36.5507C57.497 36.2924 57.363 36.0893 57.1567 35.9359C56.9477 35.7825 56.4053 35.7024 56.102 35.7024ZM47.6785 35.7339L46.018 36.1154V36.4116L46.5924 36.3398C46.8706 36.3398 47.0344 36.4657 47.086 36.7167C47.1034 36.8007 47.1145 36.9188 47.1175 37.0668L47.0994 39.7819C47.0949 40.1576 47.0531 40.376 46.9694 40.4416C46.8848 40.5073 46.6618 40.5404 46.3007 40.5404L46.2917 40.7961H48.926L48.9215 40.5403C48.5555 40.5403 48.3182 40.5114 48.2125 40.455C48.1085 40.3991 48.0368 40.2971 48.0061 40.1409C47.9822 40.0284 47.9717 39.8345 47.9701 39.5665L47.9792 35.7339H47.6784H47.6785ZM55.6802 36.2365C55.8406 36.2365 55.9954 36.2985 56.1513 36.4205C56.3053 36.5422 56.399 36.6774 56.4297 36.8244C56.5799 37.5463 55.94 38.0453 54.4999 38.3233C54.4588 37.797 54.55 37.3191 54.7826 36.8873C55.0135 36.4557 55.3142 36.2365 55.6802 36.2365Z" fill="#003B57"/>
<path d="M22.0314 22.0105H7.74136C6.78356 22.0105 6 22.7942 6 23.7519V39.5112C6 40.4689 6.78356 41.2525 7.74136 41.2525H17.1531C17.0463 36.5695 18.6455 27.4811 22.0314 22.0105Z" fill="#0F80CC"/>
<path d="M21.5122 22.5185H7.74128C7.06119 22.5185 6.50781 23.0718 6.50781 23.752V38.3614C9.62662 37.1645 14.3076 36.1316 17.5442 36.1786C18.1946 32.7777 20.1061 26.1128 21.5122 22.5185Z" fill="url(#paint0_linear_228_11)"/>
<path d="M25.3646 21.4947C24.3858 20.622 23.2008 20.9725 22.0314 22.0105C21.8578 22.1646 21.6846 22.3357 21.5123 22.5185C19.5116 24.6409 17.6545 28.5721 17.0775 31.5746C17.3023 32.0304 17.4779 32.612 17.5934 33.0563C17.6231 33.1702 17.6498 33.2772 17.6712 33.3682C17.722 33.5837 17.7493 33.7233 17.7493 33.7233C17.7493 33.7233 17.7313 33.6555 17.6577 33.442C17.6437 33.4011 17.6281 33.3564 17.6096 33.3038C17.6 33.2781 17.5897 33.2527 17.5787 33.2275C17.4482 32.9241 17.0873 32.2838 16.9284 32.005C16.8024 32.3744 16.6836 32.7462 16.5719 33.1202C17.0305 33.9594 17.3101 35.3975 17.3101 35.3975C17.3101 35.3975 17.2858 35.3043 17.1705 34.979C17.0682 34.6913 16.5586 33.7983 16.4378 33.5896C16.2313 34.352 16.1493 34.8667 16.2233 34.992C16.367 35.2348 16.5037 35.6538 16.624 36.1171C16.8954 37.1609 17.0839 38.4318 17.0839 38.4318C17.0839 38.4318 17.09 38.516 17.1004 38.6456C17.0626 39.5222 17.0852 40.431 17.1532 41.2524C17.243 42.3399 17.4123 43.274 17.6281 43.774L17.7746 43.6942C17.4578 42.7092 17.329 41.4184 17.3854 39.9296C17.4707 37.6542 17.9943 34.9099 18.9619 32.0498C20.5966 27.7321 22.8645 24.2679 24.9402 22.6134C23.0483 24.3221 20.4877 29.8527 19.7212 31.9007C18.863 34.1942 18.2547 36.3464 17.8882 38.4084C18.5207 36.4752 20.5655 35.6444 20.5655 35.6444C20.5655 35.6444 21.5684 34.4074 22.7404 32.6403C22.0384 32.8004 20.8856 33.0746 20.4994 33.2368C19.9298 33.4757 19.7764 33.5573 19.7764 33.5573C19.7764 33.5573 21.6213 32.4337 23.2043 31.925C25.3812 28.4963 27.753 23.6253 25.3646 21.4947Z" fill="#003B57"/>
<defs>
<linearGradient id="paint0_linear_228_11" x1="871.692" y1="54.9331" x2="871.692" y2="1518.71" gradientUnits="userSpaceOnUse">
<stop stop-color="#97D9F6"/>
<stop offset="0.92024" stop-color="#0F80CC"/>
<stop offset="1" stop-color="#0F80CC"/>
</linearGradient>
</defs>
</svg>
