<svg width="64" height="64" viewBox="0 0 64 64" fill="none" xmlns="http://www.w3.org/2000/svg">
<path d="M56.1367 13.0417H6V26.7415C13.0287 23.81 22.4385 20.8482 34.2338 17.869C41.4822 16.0299 48.7868 14.42 56.1367 13.0417ZM39.6028 19.6197C33.4278 21.1797 28.4228 22.77 24.6528 24.3625C20.8828 25.9225 19.1278 27.2203 19.3553 28.1975C19.5828 29.0728 21.158 29.4628 24.1112 29.3978C25.6213 29.3675 28.0848 29.2028 31.4995 28.8778C35.9045 28.4798 40.3053 28.0356 44.701 27.5453C50.0267 26.9885 54.4575 26.605 58 26.3883V15.9645L57.9978 16.0468C51.1728 17.0543 45.0303 18.2547 39.6028 19.6197ZM6 50.8608V50.9583H58V37.2997C50.8825 40.1077 42.049 42.8355 31.5017 45.5005C21.678 47.9792 13.176 49.7667 6 50.8608ZM42.7835 38.6365C46.2545 37.1133 47.8535 35.8263 47.5935 34.782C47.3617 33.872 45.7605 33.4062 42.79 33.3845C41.2668 33.4062 39.1717 33.5145 36.498 33.7095C33.82 33.9045 30.4877 34.2165 26.5097 34.6325C20.3347 35.2912 15.2083 35.796 11.1263 36.1362C9.185 36.2965 7.4755 36.42 6 36.5023V47.6173C14.099 46.4257 21.418 45.0065 27.9483 43.3577C34.366 41.737 39.3125 40.164 42.7835 38.6365ZM8.58917 43.765C8.49424 43.8577 8.36651 43.9091 8.23383 43.908C8.09848 43.9087 7.96836 43.8557 7.872 43.7607C7.82217 43.7303 7.78533 43.6653 7.76367 43.6003C7.76367 43.5678 7.729 43.5028 7.729 43.4053C7.729 43.2753 7.794 43.1453 7.8915 43.0478C7.989 42.9503 8.119 42.9178 8.2815 42.9178L8.2425 42.8897C8.3725 42.8897 8.4895 42.9438 8.58917 43.0413C8.63752 43.0884 8.67595 43.1446 8.70219 43.2068C8.72844 43.2689 8.74196 43.3357 8.74196 43.4032C8.74196 43.4706 8.72844 43.5374 8.70219 43.5996C8.67595 43.6617 8.63752 43.718 8.58917 43.765ZM8.58917 40.4847C8.54317 40.5325 8.48799 40.5706 8.42694 40.5967C8.36589 40.6227 8.30021 40.6362 8.23383 40.6363C8.16634 40.6372 8.09939 40.6242 8.03714 40.5981C7.97489 40.572 7.91868 40.5334 7.872 40.4847C7.82408 40.4383 7.78596 40.3827 7.75991 40.3213C7.73386 40.2599 7.7204 40.1939 7.72033 40.1272C7.72033 39.982 7.755 39.8607 7.85033 39.7632C7.89765 39.7162 7.95377 39.6789 8.01549 39.6537C8.07721 39.6284 8.14331 39.6155 8.21 39.6158L8.2425 39.618C8.3725 39.618 8.4895 39.6657 8.58917 39.7697C8.68883 39.8672 8.74083 39.9863 8.74083 40.1272C8.74083 40.2702 8.68883 40.3872 8.58917 40.4847ZM10.3528 43.765C10.2735 43.833 10.1774 43.8785 10.0745 43.8968C9.97164 43.9151 9.86575 43.9055 9.76783 43.869C9.70513 43.8465 9.64869 43.8093 9.60317 43.7607C9.53817 43.7303 9.50567 43.6653 9.47317 43.6003C9.44067 43.5678 9.44067 43.5028 9.44067 43.4053C9.44067 43.2753 9.471 43.1453 9.57067 43.0478C9.61824 43.0036 9.67419 42.9693 9.73521 42.947C9.79623 42.9246 9.8611 42.9147 9.926 42.9178L9.9975 42.8897C10.134 42.8897 10.251 42.9438 10.355 43.0413C10.4016 43.0887 10.4383 43.1449 10.4628 43.2067C10.4874 43.2685 10.4994 43.3345 10.498 43.401C10.498 43.544 10.4503 43.661 10.3528 43.765ZM10.3528 40.4847C10.2228 40.5822 10.1232 40.6363 9.96283 40.6363C9.89544 40.6389 9.82832 40.6266 9.76618 40.6004C9.70404 40.5742 9.64839 40.5347 9.60317 40.4847C9.55376 40.4388 9.51396 40.3836 9.48606 40.3222C9.45817 40.2608 9.44274 40.1945 9.44067 40.1272C9.44067 39.982 9.471 39.8607 9.57067 39.7632C9.66503 39.6691 9.79275 39.6161 9.926 39.6158L9.9975 39.618C10.134 39.618 10.251 39.6657 10.355 39.7697C10.4525 39.8672 10.498 39.9863 10.498 40.1272C10.498 40.2702 10.4503 40.3872 10.3528 40.4847Z" fill="#7D98C4"/>
</svg>
