<svg width="64" height="64" viewBox="0 0 64 64" fill="none" xmlns="http://www.w3.org/2000/svg">
<rect x="17" y="29" width="37" height="25" fill="white"/>
<path d="M6 32V58H58V6H6V32ZM47.9037 29.92C49.1491 30.209 50.2811 30.8604 51.1568 31.792C51.6389 32.2939 52.058 32.8527 52.4048 33.456C52.4048 33.5226 50.1584 35.041 48.7898 35.8896C48.7398 35.9229 48.5402 35.7066 48.3197 35.3779C48.0698 34.9468 47.7148 34.586 47.2878 34.3292C46.8608 34.0724 46.3757 33.928 45.8778 33.9094C44.3011 33.8013 43.2861 34.6291 43.2944 35.9894C43.2814 36.3281 43.3589 36.6642 43.519 36.9629C43.8643 37.6826 44.5091 38.111 46.5309 38.9846C50.2541 40.5862 51.8474 41.6429 52.8374 43.1446C53.944 44.8086 54.1894 47.496 53.4406 49.4845C52.6086 51.6477 50.5702 53.1162 47.6874 53.6029C46.3707 53.7537 45.0403 53.7397 43.727 53.5613C41.7228 53.2361 39.874 52.2819 38.448 50.8365C37.9696 50.3082 37.0378 48.9312 37.096 48.8314C37.2479 48.7186 37.4078 48.6171 37.5744 48.5277L39.488 47.4294L40.9814 46.5642L41.2934 47.0259C41.82 47.7791 42.4901 48.421 43.2653 48.9146C44.9293 49.7882 47.2006 49.6675 48.3238 48.6566C48.701 48.2862 48.9362 47.7953 48.9887 47.2693C49.0411 46.7433 48.9074 46.2155 48.6109 45.7779C48.1949 45.1997 47.3629 44.713 45.0374 43.6979C42.3542 42.5414 41.1978 41.8259 40.1411 40.6861C39.4815 39.9339 38.9945 39.0465 38.7142 38.0861C38.5052 36.9889 38.4743 35.8651 38.6227 34.7581C39.176 32.1664 41.1187 30.3568 43.9558 29.8202C45.2697 29.6576 46.6007 29.6941 47.9037 29.9283V29.92ZM35.6982 32.0998V34.2298H28.9466V53.4614H24.1584V34.2256H17.3901V32.1456C17.3719 31.4296 17.3914 30.713 17.4483 29.999C17.4733 29.9658 21.6083 29.9491 26.6003 29.9574H35.6733L35.6982 32.0998Z" fill="#007ACC"/>
</svg>
