<svg width="64" height="64" viewBox="0 0 64 64" fill="none" xmlns="http://www.w3.org/2000/svg">
<g clip-path="url(#clip0_193_8)">
<rect x="6.5" y="6.5" width="51" height="51" fill="#F2E000" stroke="black"/>
<ellipse cx="22.5" cy="38" rx="4.5" ry="4" fill="black"/>
<rect x="21.5" y="41" width="2" height="12" fill="black"/>
<rect x="30" y="45.5" width="2" height="15" rx="0.5" transform="rotate(90 30 45.5)" fill="black"/>
<rect x="30" y="51" width="2" height="15" rx="0.5" transform="rotate(90 30 51)" fill="black"/>
<path d="M18.4054 30.44C17.7894 30.44 17.2321 30.2493 16.7334 29.868C16.2347 29.4573 15.9267 28.9293 15.8094 28.284L13.1254 13.984C13.0667 13.3973 13.2281 12.9133 13.6094 12.532C14.0201 12.1507 14.5187 11.96 15.1054 11.96C15.6041 11.96 16.0294 12.1067 16.3814 12.4C16.7334 12.6933 16.9534 13.0893 17.0414 13.588L18.6254 23.224C18.6841 23.576 18.8161 23.752 19.0214 23.752C19.1974 23.752 19.3294 23.5907 19.4174 23.268L21.5294 15.48C21.6761 14.9227 21.9547 14.512 22.3654 14.248C22.7761 13.9547 23.2161 13.808 23.6854 13.808C24.1547 13.808 24.5947 13.9547 25.0054 14.248C25.4161 14.512 25.6947 14.9227 25.8414 15.48L27.9534 23.268C28.0414 23.5907 28.1734 23.752 28.3494 23.752C28.5841 23.752 28.7161 23.576 28.7454 23.224L30.3294 13.588C30.4174 13.0893 30.6374 12.6933 30.9894 12.4C31.3707 12.1067 31.7961 11.96 32.2654 11.96C32.8521 11.96 33.3361 12.1507 33.7174 12.532C34.1281 12.9133 34.3041 13.3973 34.2454 13.984L31.5174 28.284C31.4001 28.9293 31.0921 29.4573 30.5934 29.868C30.0947 30.2493 29.5374 30.44 28.9214 30.44C28.3641 30.44 27.8361 30.264 27.3374 29.912C26.8681 29.5307 26.5161 29.032 26.2814 28.416L24.0814 20.672C23.9934 20.3493 23.8614 20.188 23.6854 20.188C23.4801 20.188 23.3334 20.3493 23.2454 20.672L21.0454 28.416C20.8694 29.032 20.5321 29.5307 20.0334 29.912C19.5347 30.264 18.9921 30.44 18.4054 30.44ZM37.5677 30.44C37.0984 30.44 36.6437 30.264 36.2037 29.912C35.7931 29.56 35.5877 29.1053 35.5877 28.548C35.5877 28.3133 35.6317 28.064 35.7197 27.8L41.2637 13.324C41.4691 12.796 41.8064 12.4 42.2757 12.136C42.7451 11.872 43.2291 11.74 43.7277 11.74C44.2557 11.74 44.7544 11.872 45.2237 12.136C45.7224 12.4 46.0744 12.796 46.2797 13.324L52.2197 27.712C52.2784 27.8293 52.3077 27.9467 52.3077 28.064C52.3077 28.1813 52.3077 28.2987 52.3077 28.416C52.3077 29.032 52.1024 29.516 51.6917 29.868C51.2811 30.22 50.8264 30.396 50.3277 30.396C49.9757 30.396 49.6237 30.2933 49.2717 30.088C48.9491 29.912 48.7144 29.6187 48.5677 29.208L47.2917 25.776C47.2624 25.6 47.1451 25.512 46.9397 25.512H40.9997C40.7944 25.512 40.6624 25.6 40.6037 25.776L39.3717 29.252C39.1664 29.6333 38.9024 29.9267 38.5797 30.132C38.2571 30.3373 37.9197 30.44 37.5677 30.44ZM42.5837 22.08H45.1797C45.3557 22.08 45.4877 22.0213 45.5757 21.904C45.6931 21.7573 45.7224 21.5813 45.6637 21.376L44.5197 18.252C44.3437 17.7827 44.1237 17.548 43.8597 17.548C43.5957 17.548 43.3757 17.7973 43.1997 18.296L42.0997 21.42C42.0411 21.596 42.0557 21.7573 42.1437 21.904C42.2317 22.0213 42.3784 22.08 42.5837 22.08Z" fill="black"/>
<path d="M40.3057 51.44C39.7777 51.44 39.3084 51.264 38.8977 50.912C38.5164 50.5307 38.3257 50.0907 38.3257 49.592V35.908C38.3257 35.0573 38.575 34.3973 39.0737 33.928C39.5724 33.4293 40.2324 33.18 41.0537 33.18H47.9177C48.5044 33.18 48.959 33.3413 49.2817 33.664C49.6044 33.9867 49.7657 34.4267 49.7657 34.984C49.7657 35.4827 49.5897 35.908 49.2377 36.26C48.8857 36.612 48.4457 36.788 47.9177 36.788H43.1657C42.579 36.788 42.2857 37.0813 42.2857 37.668V39.648C42.2857 40.2347 42.579 40.528 43.1657 40.528H47.3017C47.859 40.528 48.299 40.6893 48.6217 41.012C48.9737 41.3347 49.1497 41.76 49.1497 42.288C49.1497 42.7867 48.959 43.212 48.5777 43.564C48.2257 43.8867 47.8004 44.048 47.3017 44.048H43.1657C42.579 44.048 42.2857 44.3413 42.2857 44.928V49.592C42.2857 50.0907 42.0804 50.5307 41.6697 50.912C41.2884 51.264 40.8337 51.44 40.3057 51.44Z" fill="black"/>
</g>
<defs>
<clipPath id="clip0_193_8">
<rect width="64" height="64" fill="white"/>
</clipPath>
</defs>
</svg>
