<svg width="64" height="64" viewBox="0 0 64 64" fill="none" xmlns="http://www.w3.org/2000/svg">
<path d="M13.6163 37.6586L6 34.3469V32.5129L13.6163 29.2163V31.3762L8.30383 33.4072L13.6163 35.514V37.6586Z" fill="#0000FF"/>
<path d="M15.3506 37.4115L18.2532 33.2661L15.4719 29.3632H18.0713L19.496 31.5761L20.9965 29.3632H23.4974L20.7692 33.1752L23.7475 37.4115H21.133L19.496 34.9182L17.8439 37.4115H15.3506ZM24.8539 29.3632H26.8167V30.4621C27.519 29.6083 28.3552 29.1814 29.3252 29.1814C29.8405 29.1814 30.2876 29.2875 30.6666 29.4997C31.0455 29.7119 31.3562 30.0327 31.5987 30.4621C31.9524 30.0327 32.3338 29.7119 32.743 29.4997C33.1523 29.2875 33.5893 29.1814 34.0541 29.1814C34.6452 29.1814 35.1454 29.3014 35.5546 29.5413C35.9638 29.7813 36.2695 30.1337 36.4716 30.5985C36.6181 30.9421 36.6914 31.4978 36.6914 32.2658V37.4115H34.5619V32.8114C34.5618 32.0132 34.4886 31.4978 34.3421 31.2654C34.145 30.9623 33.8419 30.8107 33.4327 30.8107C33.1346 30.8107 32.8542 30.9017 32.5915 31.0835C32.3287 31.2654 32.1393 31.5319 32.0231 31.8831C31.9069 32.2342 31.8488 32.7887 31.8488 33.5465V37.4115H29.7193V33.0009C29.7193 32.2178 29.6814 31.7125 29.6056 31.4852C29.5298 31.2578 29.4123 31.0886 29.2532 30.9774C29.094 30.8663 28.8781 30.8107 28.6052 30.8107C28.2768 30.8107 27.9813 30.8991 27.7186 31.076C27.4559 31.2528 27.2677 31.5079 27.154 31.8414C27.0403 32.1748 26.9835 32.7281 26.9835 33.501V37.4115H24.8539V29.3632ZM38.8058 37.4115V26.3016H40.9353V37.4115H38.8058Z" fill="#D40000"/>
<path d="M45.3311 37.4888L48.0821 26H49.6811L46.8998 37.4888H45.3311Z" fill="#0000FF"/>
<path d="M50.3761 37.6587V35.514L55.6962 33.4223L50.3761 31.3534V29.2239L58 32.5205V34.3393L50.3761 37.6587Z" fill="#0000FF"/>
</svg>
