<svg width="64" height="64" viewBox="0 0 64 64" fill="none" xmlns="http://www.w3.org/2000/svg">
<rect width="64" height="64" fill="white"/>
<path d="M9.37388 39.3491L0 35.2731V33.0159L9.37388 28.9586V31.6168L2.83548 34.1165L9.37388 36.7095V39.3491Z" fill="#0000FF"/>
<path d="M11.5085 39.0449L15.0808 33.9429L11.6577 29.1394H14.857L16.6105 31.8629L18.4573 29.1394H21.5353L18.1775 33.831L21.8431 39.0449H18.6252L16.6105 35.9762L14.5771 39.0449H11.5085ZM23.2048 29.1394H25.6206V30.4918C26.4849 29.441 27.514 28.9155 28.7079 28.9155C29.3422 28.9155 29.8925 29.0461 30.3588 29.3073C30.8252 29.5684 31.2076 29.9633 31.5061 30.4918C31.9414 29.9633 32.4108 29.5684 32.9145 29.3073C33.4182 29.0461 33.956 28.9155 34.5281 28.9155C35.2556 28.9155 35.8712 29.0632 36.3749 29.3586C36.8786 29.6539 37.2548 30.0877 37.5035 30.6597C37.6838 31.0826 37.774 31.7666 37.774 32.7117V39.0449H35.153V33.3833C35.153 32.4008 35.0629 31.7666 34.8826 31.4805C34.64 31.1074 34.2669 30.9209 33.7633 30.9209C33.3964 30.9209 33.0513 31.0328 32.728 31.2567C32.4046 31.4805 32.1714 31.8085 32.0284 32.2407C31.8854 32.6729 31.8139 33.3553 31.8139 34.288V39.0449H29.1929V33.6165C29.1929 32.6526 29.1463 32.0308 29.053 31.751C28.9598 31.4712 28.8152 31.2629 28.6193 31.1261C28.4234 30.9893 28.1576 30.9209 27.8218 30.9209C27.4176 30.9209 27.0539 31.0297 26.7305 31.2473C26.4072 31.465 26.1756 31.779 26.0357 32.1894C25.8958 32.5998 25.8258 33.2807 25.8258 34.2321V39.0449H23.2048V29.1394ZM40.3763 39.0449V25.3712H42.9973V39.0449H40.3763Z" fill="#D40000"/>
<path d="M48.4075 39.1401L51.7933 25H53.7613L50.3382 39.1401H48.4075Z" fill="#0000FF"/>
<path d="M54.6168 39.3491V36.7095L61.1645 34.1352L54.6168 31.5888V28.9679L64 33.0252V35.2638L54.6168 39.3491Z" fill="#0000FF"/>
</svg>
