<svg width="64" height="64" viewBox="0 0 64 64" fill="none" xmlns="http://www.w3.org/2000/svg">
<rect width="64" height="64" fill="white"/>
<path d="M0 3.00267L10.9627 20.2598V31.1976H17.9973V20.2598L29.4747 3H21.904L14.88 14.1143L7.90667 3L0 3.00267ZM32.248 3.06686L20.328 31.2645H25.9653L28.552 24.9933H41.2853L43.4293 31.2645H49.456L38.0133 3.06686H32.248ZM35.2693 9.01713L39.1707 19.3666H30.9147L35.2693 9.01713ZM43.4293 34.356V61.8743H64V55.9936H49.456V34.356H43.4293ZM10.9627 34.3613V62H16.8747V42.935L23.0613 55.7502H27.7173L34.1173 42.4858V61.9947H39.7893V34.3613H32.0453L25.1733 46.8609L18.6267 34.3613H10.9627Z" fill="black"/>
</svg>
