<svg width="64" height="64" viewBox="0 0 64 64" fill="none" xmlns="http://www.w3.org/2000/svg">
<path d="M6 8.00217L14.9072 22.0236V30.9106H20.6228V22.0236L29.9482 8H23.797L18.09 17.0304L12.4242 8L6 8.00217ZM32.2015 8.05432L22.5165 30.9649H27.0968L29.1985 25.8695H39.5443L41.2863 30.9649H46.183L36.8858 8.05432H32.2015ZM34.6563 12.8889L37.8262 21.2979H31.1182L34.6563 12.8889ZM41.2863 33.4767V55.8354H58V51.0573H46.183V33.4767H41.2863ZM14.9072 33.4811V55.9375H19.7107V40.4472L24.7373 50.8595H28.5203L33.7203 40.0822V55.9332H38.3288V33.4811H32.0368L26.4533 43.637L21.1342 33.4811H14.9072Z" fill="white"/>
</svg>
