<svg width="52" height="52" viewBox="0 0 52 52" fill="none" xmlns="http://www.w3.org/2000/svg">
    <path d="M26 0C40.3594 0 52 11.6406 52 26C52 40.3594 40.3594 52 26 52C11.6406 52 0 40.3594 0 26C0 11.6406 11.6406 0 26 0ZM14.0898 38.8672C13.6385 38.8672 13.2058 39.0372 12.8867 39.3398C12.5676 39.6426 12.3877 40.0533 12.3877 40.4814C12.3878 40.9094 12.5677 41.3195 12.8867 41.6221C13.2058 41.9247 13.6385 42.0957 14.0898 42.0957H37.917C38.3684 42.0957 38.8009 41.9248 39.1201 41.6221C39.4392 41.3194 39.619 40.9094 39.6191 40.4814C39.6191 40.0533 39.4393 39.6426 39.1201 39.3398C38.801 39.0372 38.3683 38.8672 37.917 38.8672H14.0898ZM31.6934 9.90625C30.8587 9.8855 30.045 10.156 29.4072 10.667L14.0898 25.1943C13.5398 25.7204 13.1977 26.4103 13.1201 27.1475L12.3877 33.8789C12.3648 34.1153 12.3971 34.3539 12.4824 34.5771C12.5677 34.8003 12.7046 35.0024 12.8818 35.1699C13.0408 35.3195 13.2292 35.4382 13.4365 35.5186C13.6438 35.5989 13.8659 35.6399 14.0898 35.6387H14.2432L21.3398 35.0254C22.1171 34.952 22.8447 34.627 23.3994 34.1055L38.7168 19.5771C39.3112 18.9816 39.6326 18.187 39.6104 17.3672C39.588 16.5472 39.2238 15.7689 38.5977 15.2031L33.9346 10.7803C33.3259 10.2381 32.5281 9.92708 31.6934 9.90625ZM36.2148 17.4463L32.8115 20.5947L28.25 16.2686L31.5693 13.04L36.2148 17.4463Z" fill="#E94560"/>
</svg>
