<svg width="21" height="21" viewBox="0 0 21 21" fill="none" xmlns="http://www.w3.org/2000/svg">
    <path d="M10.5 0C16.299 0 21 4.70101 21 10.5C21 16.299 16.299 21 10.5 21C4.70101 21 0 16.299 0 10.5C0 4.70101 4.70101 0 10.5 0ZM5.69043 15.6963C5.50822 15.6963 5.33298 15.7646 5.2041 15.8867C5.07532 16.0089 5.00306 16.1749 5.00293 16.3477C5.00293 16.5204 5.07539 16.6864 5.2041 16.8086C5.333 16.9308 5.50814 17 5.69043 17H15.3125C15.4948 17 15.6699 16.9308 15.7988 16.8086C15.9275 16.6864 16 16.5204 16 16.3477C15.9999 16.1749 15.9276 16.0089 15.7988 15.8867C15.6699 15.7646 15.4947 15.6963 15.3125 15.6963H5.69043ZM12.7998 4C12.4627 3.99159 12.1336 4.10124 11.876 4.30762L5.69043 10.1748C5.46826 10.3873 5.3301 10.6661 5.29883 10.9639L5.00293 13.6816C4.99367 13.7771 5.00656 13.8737 5.04102 13.9639C5.07544 14.0539 5.13063 14.1355 5.20215 14.2031C5.26637 14.2635 5.34302 14.3113 5.42676 14.3438C5.51043 14.3761 5.60006 14.3931 5.69043 14.3926H5.75195L8.61816 14.1445C8.93213 14.1149 9.22615 13.9841 9.4502 13.7734L15.6357 7.90625C15.8758 7.66572 16.0051 7.34475 15.9961 7.01367C15.9871 6.6826 15.8407 6.36813 15.5879 6.13965L13.7041 4.35352C13.4584 4.1347 13.1367 4.0085 12.7998 4ZM14.625 7.0459L13.251 8.31738L11.4092 6.57031L12.749 5.26562L14.625 7.0459Z" fill="white"/>
</svg>
