<svg width="21" height="21" viewBox="0 0 21 21" fill="none" xmlns="http://www.w3.org/2000/svg">
    <path d="M10.5 0C16.299 0 21 4.70101 21 10.5C21 16.299 16.299 21 10.5 21C4.70101 21 0 16.299 0 10.5C0 4.70101 4.70101 0 10.5 0ZM14.6777 7.41797C14.5246 7.41304 14.3755 7.46821 14.2637 7.57031C14.1518 7.67254 14.0861 7.81436 14.0811 7.96387L13.8496 14.7881C13.8387 15.0798 13.7124 15.356 13.4971 15.5586C13.2816 15.7612 12.9935 15.8742 12.6943 15.874H8.30469C8.00609 15.8742 7.71922 15.7615 7.50391 15.5596C7.28851 15.3574 7.16092 15.0815 7.14941 14.79L6.91895 7.96387C6.91389 7.8144 6.84816 7.67253 6.73633 7.57031C6.62449 7.46813 6.47538 7.41309 6.32227 7.41797C6.16908 7.4229 6.02369 7.48747 5.91895 7.59668C5.81429 7.70587 5.75862 7.85153 5.76367 8.00098L5.99414 14.8281C6.01444 15.4121 6.26711 15.9657 6.69824 16.3711C7.12947 16.7765 7.70595 17.002 8.30469 17H12.6943C13.2935 17.0021 13.8704 16.7761 14.3018 16.3701C14.7329 15.9643 14.9851 15.4104 15.0049 14.8262L15.2363 8.00098C15.2414 7.85147 15.1848 7.70589 15.0801 7.59668C14.9754 7.4876 14.8308 7.42299 14.6777 7.41797ZM9.11035 8.34277C8.95717 8.34277 8.80949 8.40209 8.70117 8.50781C8.59303 8.61342 8.53234 8.75695 8.53223 8.90625V13.709C8.53223 13.8583 8.59306 14.0017 8.70117 14.1074C8.80949 14.2131 8.95717 14.2725 9.11035 14.2725C9.26343 14.2724 9.41031 14.2131 9.51855 14.1074C9.62679 14.0017 9.6875 13.8584 9.6875 13.709V8.90625C9.68739 8.75689 9.62677 8.61343 9.51855 8.50781C9.41031 8.40221 9.26339 8.34285 9.11035 8.34277ZM11.8906 8.34277C11.7376 8.34277 11.5907 8.40226 11.4824 8.50781C11.3742 8.61343 11.3126 8.75689 11.3125 8.90625V13.709C11.3125 13.8585 11.3741 14.0017 11.4824 14.1074C11.5907 14.2131 11.7375 14.2725 11.8906 14.2725C12.0438 14.2724 12.1905 14.2131 12.2988 14.1074C12.4071 14.0017 12.4678 13.8585 12.4678 13.709V8.90625C12.4677 8.75689 12.407 8.61343 12.2988 8.50781C12.1906 8.40222 12.0437 8.3428 11.8906 8.34277ZM9.82715 3C9.39799 2.99891 8.98362 3.15394 8.66504 3.43457C8.34646 3.71529 8.14617 4.10173 8.10352 4.51855C8.08516 4.69627 7.99919 4.86085 7.86328 4.98047C7.72741 5.10002 7.5511 5.16647 7.36816 5.16602H5.57715C5.42412 5.16613 5.27716 5.22544 5.16895 5.33105C5.06075 5.43675 5.00001 5.58008 5 5.72949C5 5.8789 5.06077 6.02223 5.16895 6.12793C5.27716 6.23355 5.42412 6.29286 5.57715 6.29297H15.4229C15.5759 6.29286 15.7228 6.23355 15.8311 6.12793C15.9392 6.02223 16 5.8789 16 5.72949H15.999C15.999 5.58 15.9384 5.43676 15.8301 5.33105C15.7218 5.22536 15.575 5.16602 15.4219 5.16602H13.6309C13.448 5.16638 13.2715 5.09998 13.1357 4.98047C12.9999 4.86086 12.9148 4.69621 12.8965 4.51855C12.8539 4.10175 12.6535 3.71529 12.335 3.43457C12.0164 3.15388 11.602 2.99897 11.1729 3H9.82715ZM11.1729 4.12598C11.3159 4.12611 11.4545 4.17873 11.5605 4.27246C11.6664 4.36617 11.7328 4.49497 11.7471 4.63379C11.7688 4.81729 11.8186 4.99678 11.8945 5.16602H9.10645C9.18252 4.99684 9.23099 4.8173 9.25293 4.63379C9.26723 4.49487 9.33441 4.36619 9.44043 4.27246C9.54643 4.17878 9.68416 4.12618 9.82715 4.12598H11.1729Z" fill="white"/>
</svg>
