<svg width="52" height="52" viewBox="0 0 52 52" fill="none" xmlns="http://www.w3.org/2000/svg">
    <path d="M26 0C40.3594 0 52 11.6406 52 26C52 40.3594 40.3594 52 26 52C11.6406 52 0 40.3594 0 26C0 11.6406 11.6406 0 26 0ZM36.3438 18.3691C35.9645 18.357 35.5954 18.493 35.3184 18.7461C35.0415 18.9992 34.8787 19.3497 34.8662 19.7197L34.2939 36.6182C34.2668 37.3406 33.9543 38.0248 33.4209 38.5264C32.8874 39.0281 32.1745 39.3081 31.4336 39.3076H20.5645C19.8246 39.3081 19.1134 39.0288 18.5801 38.5283C18.0467 38.0278 17.7326 37.3447 17.7041 36.623L17.1318 19.7197C17.1193 19.3496 16.9567 18.9992 16.6797 18.7461C16.4026 18.493 16.0336 18.3569 15.6543 18.3691C15.2752 18.3814 14.9165 18.5403 14.6572 18.8105C14.3979 19.081 14.259 19.4413 14.2715 19.8115L14.8438 36.7168C14.8939 38.1632 15.519 39.5341 16.5869 40.5381C17.6548 41.5421 19.0817 42.0999 20.5645 42.0947H31.4336C32.9172 42.0999 34.345 41.5412 35.4131 40.5361C36.4812 39.5309 37.1065 38.1583 37.1553 36.7109L37.7266 19.8115C37.7391 19.4413 37.6011 19.081 37.3418 18.8105C37.0824 18.5401 36.7231 18.3814 36.3438 18.3691ZM22.5586 20.6592C22.1793 20.6592 21.8151 20.8056 21.5469 21.0674C21.2787 21.3292 21.1279 21.6845 21.1279 22.0547V33.9463C21.128 34.3163 21.2789 34.6709 21.5469 34.9326C21.8151 35.1944 22.1793 35.3418 22.5586 35.3418C22.9378 35.3417 23.3012 35.1943 23.5693 34.9326C23.8374 34.6709 23.9882 34.3164 23.9883 33.9463V22.0547C23.9883 21.6845 23.8375 21.3292 23.5693 21.0674C23.3012 20.8058 22.9377 20.6593 22.5586 20.6592ZM29.4434 20.6592C29.064 20.6592 28.6999 20.8056 28.4316 21.0674C28.1635 21.3292 28.0127 21.6845 28.0127 22.0547V33.9463C28.0128 34.3162 28.1637 34.6709 28.4316 34.9326C28.6999 35.1944 29.064 35.3418 29.4434 35.3418C29.8226 35.3418 30.1859 35.1944 30.4541 34.9326C30.7222 34.6709 30.873 34.3164 30.873 33.9463V22.0547C30.873 21.6845 30.7223 21.3292 30.4541 21.0674C30.186 20.8058 29.8225 20.6592 29.4434 20.6592ZM24.333 7.42871C23.2701 7.42604 22.244 7.80972 21.4551 8.50488C20.6663 9.20004 20.171 10.1573 20.0654 11.1895C20.0199 11.6294 19.8081 12.0369 19.4717 12.333C19.1352 12.6291 18.6981 12.7931 18.2451 12.792H13.8115C13.4322 12.792 13.068 12.9385 12.7998 13.2002C12.5316 13.462 12.3809 13.8173 12.3809 14.1875C12.3809 14.5577 12.5316 14.913 12.7998 15.1748C13.068 15.4365 13.4323 15.583 13.8115 15.583H38.1885C38.5677 15.583 38.932 15.4365 39.2002 15.1748C39.4684 14.913 39.6191 14.5577 39.6191 14.1875H39.6172C39.6172 13.8173 39.4665 13.462 39.1982 13.2002C38.9301 12.9386 38.5666 12.792 38.1875 12.792H33.7539C33.3008 12.7932 32.8629 12.6292 32.5264 12.333C32.1901 12.0369 31.9791 11.6292 31.9336 11.1895C31.8281 10.1572 31.3319 9.20006 30.543 8.50488C29.754 7.80971 28.7279 7.42601 27.665 7.42871H24.333ZM27.667 10.2178C28.0213 10.2181 28.3624 10.347 28.625 10.5791C28.8876 10.8112 29.0534 11.1296 29.0889 11.4736C29.1427 11.9281 29.2652 12.3729 29.4531 12.792H22.5479C22.7363 12.3729 22.8588 11.9282 22.9131 11.4736C22.9486 11.1297 23.1135 10.8111 23.376 10.5791C23.6386 10.347 23.9807 10.2181 24.335 10.2178H27.667Z" fill="#E94560"/>
</svg>
