<svg width="700" height="621" viewBox="0 0 700 621" fill="none" xmlns="http://www.w3.org/2000/svg">
    <rect x="2" y="2" width="696" height="617" rx="2" stroke="url(#paint0_linear_418_67)" stroke-width="4"/>
    <rect x="32.5" y="225.5" width="55" height="55" stroke="url(#paint1_linear_418_67)"/>
    <rect x="32.5" y="322.5" width="55" height="55" stroke="url(#paint2_linear_418_67)"/>
    <rect x="32.5" y="419.5" width="55" height="55" stroke="url(#paint3_linear_418_67)"/>
    <g filter="url(#filter0_d_418_67)">
        <rect x="32.5" y="516.5" width="55" height="55" stroke="url(#paint4_linear_418_67)" shape-rendering="crispEdges"/>
    </g>
    <rect x="129.5" y="225.5" width="55" height="55" stroke="url(#paint5_linear_418_67)"/>
    <rect x="129.5" y="322.5" width="55" height="55" stroke="url(#paint6_linear_418_67)"/>
    <rect x="129.5" y="419.5" width="55" height="55" stroke="url(#paint7_linear_418_67)"/>
    <rect x="129.5" y="516.5" width="55" height="55" stroke="url(#paint8_linear_418_67)" stroke-dasharray="2 2"/>
    <rect x="226.5" y="128.5" width="55" height="55" stroke="url(#paint9_linear_418_67)"/>
    <rect x="226.5" y="225.5" width="55" height="55" stroke="url(#paint10_linear_418_67)"/>
    <rect x="226.5" y="322.5" width="55" height="55" stroke="url(#paint11_linear_418_67)"/>
    <rect x="226.5" y="419.5" width="55" height="55" stroke="url(#paint12_linear_418_67)"/>
    <rect x="226.5" y="516.5" width="55" height="55" stroke="url(#paint13_linear_418_67)" stroke-dasharray="2 2"/>
    <rect x="323.5" y="128.5" width="55" height="55" stroke="url(#paint14_linear_418_67)"/>
    <rect x="323.5" y="225.5" width="55" height="55" stroke="url(#paint15_linear_418_67)"/>
    <rect x="323.5" y="322.5" width="55" height="55" stroke="url(#paint16_linear_418_67)"/>
    <rect x="323.5" y="419.5" width="55" height="55" stroke="url(#paint17_linear_418_67)"/>
    <rect x="323.5" y="516.5" width="55" height="55" stroke="url(#paint18_linear_418_67)" stroke-dasharray="2 2"/>
    <rect x="420.5" y="128.5" width="55" height="55" stroke="url(#paint19_linear_418_67)"/>
    <rect x="420.5" y="225.5" width="55" height="55" stroke="url(#paint20_linear_418_67)"/>
    <rect x="420.5" y="322.5" width="55" height="55" stroke="url(#paint21_linear_418_67)"/>
    <rect x="420.5" y="419.5" width="55" height="55" stroke="url(#paint22_linear_418_67)"/>
    <rect x="420.5" y="516.5" width="55" height="55" stroke="url(#paint23_linear_418_67)" stroke-dasharray="2 2"/>
    <rect x="517.5" y="128.5" width="55" height="55" stroke="url(#paint24_linear_418_67)"/>
    <rect x="517.5" y="225.5" width="55" height="55" stroke="url(#paint25_linear_418_67)"/>
    <rect x="517.5" y="322.5" width="55" height="55" stroke="url(#paint26_linear_418_67)"/>
    <rect x="517.5" y="419.5" width="55" height="55" stroke="url(#paint27_linear_418_67)"/>
    <rect x="614.5" y="128.5" width="55" height="55" stroke="url(#paint28_linear_418_67)"/>
    <rect x="614.5" y="225.5" width="55" height="55" stroke="url(#paint29_linear_418_67)"/>
    <rect x="614.5" y="322.5" width="55" height="55" stroke="url(#paint30_linear_418_67)"/>
    <rect x="614.5" y="419.5" width="55" height="55" stroke="url(#paint31_linear_418_67)"/>
    <path d="M256.019 63.8C256.019 65.4853 256.382 66.9893 257.107 68.312C257.854 69.6347 258.867 70.68 260.147 71.448C261.427 72.216 262.878 72.6 264.499 72.6C266.142 72.6 267.593 72.216 268.851 71.448C270.131 70.68 271.134 69.6347 271.859 68.312C272.606 66.9893 272.979 65.4853 272.979 63.8C272.979 62.1147 272.606 60.6107 271.859 59.288C271.134 57.9653 270.131 56.92 268.851 56.152C267.593 55.384 266.142 55 264.499 55C262.878 55 261.427 55.384 260.147 56.152C258.867 56.92 257.854 57.9653 257.107 59.288C256.382 60.6107 256.019 62.1147 256.019 63.8ZM253.139 63.8C253.139 62.1573 253.417 60.6427 253.971 59.256C254.547 57.848 255.347 56.632 256.371 55.608C257.395 54.5627 258.601 53.752 259.987 53.176C261.374 52.5787 262.878 52.28 264.499 52.28C266.142 52.28 267.646 52.5787 269.011 53.176C270.398 53.752 271.603 54.5627 272.627 55.608C273.651 56.632 274.441 57.848 274.995 59.256C275.571 60.6427 275.859 62.1573 275.859 63.8C275.859 65.4213 275.571 66.936 274.995 68.344C274.441 69.752 273.651 70.9787 272.627 72.024C271.603 73.048 270.398 73.8587 269.011 74.456C267.646 75.032 266.142 75.32 264.499 75.32C262.878 75.32 261.374 75.032 259.987 74.456C258.601 73.8587 257.395 73.048 256.371 72.024C255.347 70.9787 254.547 69.752 253.971 68.344C253.417 66.936 253.139 65.4213 253.139 63.8ZM279.381 60.28H281.941V75H279.381V60.28ZM287.381 60.28H290.581L284.181 66.36L291.221 75H288.021L280.981 66.36L287.381 60.28ZM291.394 60.28H300.034V62.68H291.394V60.28ZM294.434 60.92H296.994V75H294.434V60.92ZM304.715 75H301.899L307.339 67.32H310.155L304.715 75ZM314.059 75H311.499V60.28H314.059V75ZM312.555 66.872V69.112H307.979C306.976 69.112 306.059 68.9627 305.227 68.664C304.416 68.3653 303.776 67.896 303.307 67.256C302.838 66.5947 302.603 65.7413 302.603 64.696C302.603 63.6293 302.838 62.776 303.307 62.136C303.776 61.496 304.416 61.0267 305.227 60.728C306.059 60.4293 306.976 60.28 307.979 60.28H312.555V62.52H307.979C307.36 62.52 306.838 62.6053 306.411 62.776C306.006 62.9253 305.696 63.16 305.483 63.48C305.27 63.8 305.163 64.2053 305.163 64.696C305.163 65.1867 305.27 65.592 305.483 65.912C305.696 66.232 306.006 66.4773 306.411 66.648C306.838 66.7973 307.36 66.872 307.979 66.872H312.555ZM324.408 62.36V59.96C325.859 59.96 327.149 60.2907 328.28 60.952C329.432 61.6133 330.339 62.52 331 63.672C331.683 64.824 332.024 66.1467 332.024 67.64C332.024 69.112 331.683 70.4347 331 71.608C330.339 72.76 329.432 73.6667 328.28 74.328C327.149 74.9893 325.859 75.32 324.408 75.32C322.979 75.32 321.688 74.968 320.536 74.264C319.384 73.5387 318.467 72.4613 317.784 71.032C317.123 69.6027 316.792 67.832 316.792 65.72L319.352 67.64C319.352 68.664 319.576 69.5707 320.024 70.36C320.472 71.1493 321.069 71.7787 321.816 72.248C322.584 72.696 323.448 72.92 324.408 72.92C325.368 72.92 326.221 72.696 326.968 72.248C327.736 71.7787 328.333 71.1493 328.76 70.36C329.208 69.5707 329.432 68.664 329.432 67.64C329.432 66.616 329.208 65.7093 328.76 64.92C328.333 64.1093 327.736 63.48 326.968 63.032C326.221 62.584 325.368 62.36 324.408 62.36ZM318.2 67.64C318.2 66.4453 318.349 65.3787 318.648 64.44C318.947 63.48 319.373 62.6693 319.928 62.008C320.483 61.3467 321.133 60.8453 321.88 60.504C322.648 60.1413 323.491 59.96 324.408 59.96V62.36C323.853 62.36 323.277 62.4773 322.68 62.712C322.083 62.9467 321.528 63.288 321.016 63.736C320.525 64.184 320.12 64.7387 319.8 65.4C319.501 66.04 319.352 66.7867 319.352 67.64H318.2ZM316.792 65.72C316.792 63.7147 316.984 61.944 317.368 60.408C317.752 58.872 318.424 57.5707 319.384 56.504C320.365 55.416 321.709 54.584 323.416 54.008C324.867 53.5173 325.944 52.9307 326.648 52.248C327.373 51.544 327.811 50.808 327.96 50.04H330.488C330.381 50.9787 330.04 51.8427 329.464 52.632C328.888 53.4 328.131 54.072 327.192 54.648C326.275 55.224 325.229 55.704 324.056 56.088C322.733 56.5147 321.699 57.1547 320.952 58.008C320.227 58.8613 319.725 59.832 319.448 60.92C319.171 61.9867 319.032 63.0533 319.032 64.12V67.416L316.792 65.72ZM337.941 82.04H335.381V60.28H337.941V82.04ZM350.261 67.64C350.261 69.2187 349.93 70.584 349.269 71.736C348.607 72.888 347.722 73.7733 346.613 74.392C345.525 75.0107 344.309 75.32 342.965 75.32C341.749 75.32 340.671 75.0107 339.733 74.392C338.815 73.7733 338.09 72.888 337.557 71.736C337.045 70.584 336.789 69.2187 336.789 67.64C336.789 66.04 337.045 64.6747 337.557 63.544C338.09 62.392 338.815 61.5067 339.733 60.888C340.671 60.2693 341.749 59.96 342.965 59.96C344.309 59.96 345.525 60.2693 346.613 60.888C347.722 61.5067 348.607 62.392 349.269 63.544C349.93 64.6747 350.261 66.04 350.261 67.64ZM347.669 67.64C347.669 66.5093 347.434 65.5493 346.965 64.76C346.517 63.9707 345.909 63.3733 345.141 62.968C344.394 62.5627 343.562 62.36 342.645 62.36C341.898 62.36 341.162 62.5627 340.437 62.968C339.711 63.3733 339.114 63.9707 338.645 64.76C338.175 65.5493 337.941 66.5093 337.941 67.64C337.941 68.7707 338.175 69.7307 338.645 70.52C339.114 71.3093 339.711 71.9067 340.437 72.312C341.162 72.7173 341.898 72.92 342.645 72.92C343.562 72.92 344.394 72.7173 345.141 72.312C345.909 71.9067 346.517 71.3093 346.965 70.52C347.434 69.7307 347.669 68.7707 347.669 67.64ZM353.791 60.28H356.351V75H353.791V60.28ZM355.295 68.088V65.848H359.871C361.385 65.848 362.655 66.2213 363.679 66.968C364.724 67.6933 365.247 68.8453 365.247 70.424C365.247 71.4693 365.012 72.3333 364.543 73.016C364.073 73.6987 363.433 74.2 362.623 74.52C361.812 74.84 360.895 75 359.871 75H355.295V72.76H359.871C360.489 72.76 361.001 72.6747 361.407 72.504C361.833 72.312 362.153 72.0453 362.367 71.704C362.58 71.3413 362.687 70.9147 362.687 70.424C362.687 69.6773 362.452 69.1013 361.983 68.696C361.513 68.2907 360.809 68.088 359.871 68.088H355.295ZM377.093 75L387.685 63.704C388.176 63.1707 388.592 62.648 388.933 62.136C389.296 61.6027 389.562 61.0693 389.733 60.536C389.925 59.9813 390.021 59.4053 390.021 58.808C390.021 58.3173 389.925 57.8373 389.733 57.368C389.541 56.8987 389.253 56.472 388.869 56.088C388.506 55.704 388.058 55.3947 387.525 55.16C386.992 54.9253 386.384 54.808 385.701 54.808C384.741 54.808 383.909 55.032 383.205 55.48C382.522 55.9067 382 56.536 381.637 57.368C381.274 58.1787 381.093 59.1493 381.093 60.28H378.373C378.373 58.68 378.661 57.2827 379.237 56.088C379.813 54.872 380.645 53.9333 381.733 53.272C382.842 52.5893 384.165 52.248 385.701 52.248C386.938 52.248 388.005 52.4613 388.901 52.888C389.797 53.2933 390.533 53.8267 391.109 54.488C391.685 55.128 392.112 55.8213 392.389 56.568C392.666 57.3147 392.805 58.0293 392.805 58.712C392.805 59.864 392.528 61.0053 391.973 62.136C391.418 63.2667 390.704 64.28 389.829 65.176L382.693 72.44H392.901V75H377.093ZM398.672 63.8C398.672 65.1013 398.8 66.3067 399.056 67.416C399.312 68.504 399.685 69.4533 400.176 70.264C400.667 71.0533 401.253 71.672 401.936 72.12C402.64 72.5467 403.419 72.76 404.272 72.76C405.147 72.76 405.925 72.5467 406.608 72.12C407.291 71.672 407.877 71.0533 408.368 70.264C408.859 69.4533 409.232 68.504 409.488 67.416C409.744 66.3067 409.872 65.1013 409.872 63.8C409.872 62.4987 409.744 61.304 409.488 60.216C409.232 59.1067 408.859 58.1573 408.368 57.368C407.877 56.5573 407.291 55.9387 406.608 55.512C405.925 55.064 405.147 54.84 404.272 54.84C403.419 54.84 402.64 55.064 401.936 55.512C401.253 55.9387 400.667 56.5573 400.176 57.368C399.685 58.1573 399.312 59.1067 399.056 60.216C398.8 61.304 398.672 62.4987 398.672 63.8ZM395.952 63.8C395.952 61.56 396.304 59.576 397.008 57.848C397.712 56.12 398.683 54.7653 399.92 53.784C401.179 52.7813 402.629 52.28 404.272 52.28C405.915 52.28 407.355 52.7813 408.592 53.784C409.851 54.7653 410.832 56.12 411.536 57.848C412.24 59.576 412.592 61.56 412.592 63.8C412.592 66.04 412.24 68.024 411.536 69.752C410.832 71.48 409.851 72.8453 408.592 73.848C407.355 74.8293 405.915 75.32 404.272 75.32C402.629 75.32 401.179 74.8293 399.92 73.848C398.683 72.8453 397.712 71.48 397.008 69.752C396.304 68.024 395.952 66.04 395.952 63.8ZM414.499 75L425.091 63.704C425.582 63.1707 425.998 62.648 426.339 62.136C426.702 61.6027 426.969 61.0693 427.139 60.536C427.331 59.9813 427.427 59.4053 427.427 58.808C427.427 58.3173 427.331 57.8373 427.139 57.368C426.947 56.8987 426.659 56.472 426.275 56.088C425.913 55.704 425.465 55.3947 424.931 55.16C424.398 54.9253 423.79 54.808 423.107 54.808C422.147 54.808 421.315 55.032 420.611 55.48C419.929 55.9067 419.406 56.536 419.043 57.368C418.681 58.1787 418.499 59.1493 418.499 60.28H415.779C415.779 58.68 416.067 57.2827 416.643 56.088C417.219 54.872 418.051 53.9333 419.139 53.272C420.249 52.5893 421.571 52.248 423.107 52.248C424.345 52.248 425.411 52.4613 426.307 52.888C427.203 53.2933 427.939 53.8267 428.515 54.488C429.091 55.128 429.518 55.8213 429.795 56.568C430.073 57.3147 430.211 58.0293 430.211 58.712C430.211 59.864 429.934 61.0053 429.379 62.136C428.825 63.2667 428.11 64.28 427.235 65.176L420.099 72.44H430.307V75H414.499ZM448.846 67.64C448.846 68.92 448.643 70.04 448.238 71C447.833 71.96 447.267 72.76 446.542 73.4C445.817 74.04 444.985 74.52 444.046 74.84C443.107 75.16 442.094 75.32 441.006 75.32C439.641 75.32 438.446 75.1067 437.422 74.68C436.419 74.2533 435.555 73.688 434.83 72.984C434.126 72.2587 433.529 71.4693 433.038 70.616L435.342 69.048C435.683 69.688 436.131 70.296 436.686 70.872C437.262 71.4267 437.923 71.8853 438.67 72.248C439.417 72.5893 440.195 72.76 441.006 72.76C442.073 72.76 442.979 72.5467 443.726 72.12C444.473 71.6933 445.038 71.096 445.422 70.328C445.827 69.56 446.03 68.664 446.03 67.64C446.03 66.616 445.806 65.72 445.358 64.952C444.931 64.184 444.334 63.5867 443.566 63.16C442.819 62.7333 441.966 62.52 441.006 62.52C440.302 62.52 439.651 62.584 439.054 62.712C438.478 62.8187 437.891 63.0213 437.294 63.32C436.718 63.5973 436.046 64.0027 435.278 64.536L438.222 52.6H448.782V55H440.334L438.83 60.92C439.363 60.6427 439.907 60.44 440.462 60.312C441.038 60.1627 441.603 60.088 442.158 60.088C443.438 60.088 444.579 60.408 445.582 61.048C446.606 61.688 447.406 62.5733 447.982 63.704C448.558 64.8347 448.846 66.1467 448.846 67.64Z" fill="url(#paint32_linear_418_67)"/>
    <defs>
        <filter id="filter0_d_418_67" x="22" y="506" width="76" height="76" filterUnits="userSpaceOnUse" color-interpolation-filters="sRGB">
            <feFlood flood-opacity="0" result="BackgroundImageFix"/>
            <feColorMatrix in="SourceAlpha" type="matrix" values="0 0 0 0 0 0 0 0 0 0 0 0 0 0 0 0 0 0 127 0" result="hardAlpha"/>
            <feOffset/>
            <feGaussianBlur stdDeviation="5"/>
            <feComposite in2="hardAlpha" operator="out"/>
            <feColorMatrix type="matrix" values="0 0 0 0 0.913725 0 0 0 0 0.270588 0 0 0 0 0.376471 0 0 0 1 0"/>
            <feBlend mode="normal" in2="BackgroundImageFix" result="effect1_dropShadow_418_67"/>
            <feBlend mode="normal" in="SourceGraphic" in2="effect1_dropShadow_418_67" result="shape"/>
        </filter>
        <linearGradient id="paint0_linear_418_67" x1="0" y1="310.5" x2="700" y2="310.5" gradientUnits="userSpaceOnUse">
            <stop stop-color="#E94560"/>
            <stop offset="1" stop-color="#C72C41"/>
        </linearGradient>
        <linearGradient id="paint1_linear_418_67" x1="32" y1="253" x2="88" y2="253" gradientUnits="userSpaceOnUse">
            <stop stop-color="#E94560"/>
            <stop offset="1" stop-color="#C72C41"/>
        </linearGradient>
        <linearGradient id="paint2_linear_418_67" x1="32" y1="350" x2="88" y2="350" gradientUnits="userSpaceOnUse">
            <stop stop-color="#E94560"/>
            <stop offset="1" stop-color="#C72C41"/>
        </linearGradient>
        <linearGradient id="paint3_linear_418_67" x1="32" y1="447" x2="88" y2="447" gradientUnits="userSpaceOnUse">
            <stop stop-color="#E94560"/>
            <stop offset="1" stop-color="#C72C41"/>
        </linearGradient>
        <linearGradient id="paint4_linear_418_67" x1="32" y1="544" x2="88" y2="544" gradientUnits="userSpaceOnUse">
            <stop stop-color="#E94560"/>
            <stop offset="1" stop-color="#C72C41"/>
        </linearGradient>
        <linearGradient id="paint5_linear_418_67" x1="129" y1="253" x2="185" y2="253" gradientUnits="userSpaceOnUse">
            <stop stop-color="#E94560"/>
            <stop offset="1" stop-color="#C72C41"/>
        </linearGradient>
        <linearGradient id="paint6_linear_418_67" x1="129" y1="350" x2="185" y2="350" gradientUnits="userSpaceOnUse">
            <stop stop-color="#E94560"/>
            <stop offset="1" stop-color="#C72C41"/>
        </linearGradient>
        <linearGradient id="paint7_linear_418_67" x1="129" y1="447" x2="185" y2="447" gradientUnits="userSpaceOnUse">
            <stop stop-color="#E94560"/>
            <stop offset="1" stop-color="#C72C41"/>
        </linearGradient>
        <linearGradient id="paint8_linear_418_67" x1="129" y1="544" x2="185" y2="544" gradientUnits="userSpaceOnUse">
            <stop stop-color="#E94560"/>
            <stop offset="1" stop-color="#C72C41"/>
        </linearGradient>
        <linearGradient id="paint9_linear_418_67" x1="226" y1="156" x2="282" y2="156" gradientUnits="userSpaceOnUse">
            <stop stop-color="#E94560"/>
            <stop offset="1" stop-color="#C72C41"/>
        </linearGradient>
        <linearGradient id="paint10_linear_418_67" x1="226" y1="253" x2="282" y2="253" gradientUnits="userSpaceOnUse">
            <stop stop-color="#E94560"/>
            <stop offset="1" stop-color="#C72C41"/>
        </linearGradient>
        <linearGradient id="paint11_linear_418_67" x1="226" y1="350" x2="282" y2="350" gradientUnits="userSpaceOnUse">
            <stop stop-color="#E94560"/>
            <stop offset="1" stop-color="#C72C41"/>
        </linearGradient>
        <linearGradient id="paint12_linear_418_67" x1="226" y1="447" x2="282" y2="447" gradientUnits="userSpaceOnUse">
            <stop stop-color="#E94560"/>
            <stop offset="1" stop-color="#C72C41"/>
        </linearGradient>
        <linearGradient id="paint13_linear_418_67" x1="226" y1="544" x2="282" y2="544" gradientUnits="userSpaceOnUse">
            <stop stop-color="#E94560"/>
            <stop offset="1" stop-color="#C72C41"/>
        </linearGradient>
        <linearGradient id="paint14_linear_418_67" x1="323" y1="156" x2="379" y2="156" gradientUnits="userSpaceOnUse">
            <stop stop-color="#E94560"/>
            <stop offset="1" stop-color="#C72C41"/>
        </linearGradient>
        <linearGradient id="paint15_linear_418_67" x1="323" y1="253" x2="379" y2="253" gradientUnits="userSpaceOnUse">
            <stop stop-color="#E94560"/>
            <stop offset="1" stop-color="#C72C41"/>
        </linearGradient>
        <linearGradient id="paint16_linear_418_67" x1="323" y1="350" x2="379" y2="350" gradientUnits="userSpaceOnUse">
            <stop stop-color="#E94560"/>
            <stop offset="1" stop-color="#C72C41"/>
        </linearGradient>
        <linearGradient id="paint17_linear_418_67" x1="323" y1="447" x2="379" y2="447" gradientUnits="userSpaceOnUse">
            <stop stop-color="#E94560"/>
            <stop offset="1" stop-color="#C72C41"/>
        </linearGradient>
        <linearGradient id="paint18_linear_418_67" x1="323" y1="544" x2="379" y2="544" gradientUnits="userSpaceOnUse">
            <stop stop-color="#E94560"/>
            <stop offset="1" stop-color="#C72C41"/>
        </linearGradient>
        <linearGradient id="paint19_linear_418_67" x1="420" y1="156" x2="476" y2="156" gradientUnits="userSpaceOnUse">
            <stop stop-color="#E94560"/>
            <stop offset="1" stop-color="#C72C41"/>
        </linearGradient>
        <linearGradient id="paint20_linear_418_67" x1="420" y1="253" x2="476" y2="253" gradientUnits="userSpaceOnUse">
            <stop stop-color="#E94560"/>
            <stop offset="1" stop-color="#C72C41"/>
        </linearGradient>
        <linearGradient id="paint21_linear_418_67" x1="420" y1="350" x2="476" y2="350" gradientUnits="userSpaceOnUse">
            <stop stop-color="#E94560"/>
            <stop offset="1" stop-color="#C72C41"/>
        </linearGradient>
        <linearGradient id="paint22_linear_418_67" x1="420" y1="447" x2="476" y2="447" gradientUnits="userSpaceOnUse">
            <stop stop-color="#E94560"/>
            <stop offset="1" stop-color="#C72C41"/>
        </linearGradient>
        <linearGradient id="paint23_linear_418_67" x1="420" y1="544" x2="476" y2="544" gradientUnits="userSpaceOnUse">
            <stop stop-color="#E94560"/>
            <stop offset="1" stop-color="#C72C41"/>
        </linearGradient>
        <linearGradient id="paint24_linear_418_67" x1="517" y1="156" x2="573" y2="156" gradientUnits="userSpaceOnUse">
            <stop stop-color="#E94560"/>
            <stop offset="1" stop-color="#C72C41"/>
        </linearGradient>
        <linearGradient id="paint25_linear_418_67" x1="517" y1="253" x2="573" y2="253" gradientUnits="userSpaceOnUse">
            <stop stop-color="#E94560"/>
            <stop offset="1" stop-color="#C72C41"/>
        </linearGradient>
        <linearGradient id="paint26_linear_418_67" x1="517" y1="350" x2="573" y2="350" gradientUnits="userSpaceOnUse">
            <stop stop-color="#E94560"/>
            <stop offset="1" stop-color="#C72C41"/>
        </linearGradient>
        <linearGradient id="paint27_linear_418_67" x1="517" y1="447" x2="573" y2="447" gradientUnits="userSpaceOnUse">
            <stop stop-color="#E94560"/>
            <stop offset="1" stop-color="#C72C41"/>
        </linearGradient>
        <linearGradient id="paint28_linear_418_67" x1="614" y1="156" x2="670" y2="156" gradientUnits="userSpaceOnUse">
            <stop stop-color="#E94560"/>
            <stop offset="1" stop-color="#C72C41"/>
        </linearGradient>
        <linearGradient id="paint29_linear_418_67" x1="614" y1="253" x2="670" y2="253" gradientUnits="userSpaceOnUse">
            <stop stop-color="#E94560"/>
            <stop offset="1" stop-color="#C72C41"/>
        </linearGradient>
        <linearGradient id="paint30_linear_418_67" x1="614" y1="350" x2="670" y2="350" gradientUnits="userSpaceOnUse">
            <stop stop-color="#E94560"/>
            <stop offset="1" stop-color="#C72C41"/>
        </linearGradient>
        <linearGradient id="paint31_linear_418_67" x1="614" y1="447" x2="670" y2="447" gradientUnits="userSpaceOnUse">
            <stop stop-color="#E94560"/>
            <stop offset="1" stop-color="#C72C41"/>
        </linearGradient>
        <linearGradient id="paint32_linear_418_67" x1="32" y1="64" x2="670" y2="64" gradientUnits="userSpaceOnUse">
            <stop stop-color="#E94560"/>
            <stop offset="1" stop-color="#C72C41"/>
        </linearGradient>
    </defs>
</svg>
