<svg width="40" height="40" viewBox="0 0 40 40" fill="none" xmlns="http://www.w3.org/2000/svg">
    <path fill-rule="evenodd" clip-rule="evenodd" d="M13.3448 11.084H26.6552C33.4048 11.084 36.7796 11.084 38.6754 13.0576C40.571 15.0313 40.125 18.0806 39.233 24.179L38.387 29.9622C37.6874 34.7446 37.3378 37.1358 35.5434 38.5678C33.749 39.9998 31.1024 39.9998 25.8092 39.9998H14.1907C8.89762 39.9998 6.25106 39.9998 4.45668 38.5678C2.6623 37.1358 2.31252 34.7446 1.61296 29.9622L0.767021 24.179C-0.125039 18.0806 -0.571059 15.0313 1.32464 13.0576C3.22034 11.084 6.59516 11.084 13.3448 11.084ZM12 32.0002C12 31.1718 12.7462 30.5002 13.6667 30.5002H26.3334C27.2538 30.5002 28 31.1718 28 32.0002C28 32.8286 27.2538 33.5002 26.3334 33.5002H13.6667C12.7462 33.5002 12 32.8286 12 32.0002Z" fill="#E94560"/>
    <path d="M13.0201 1.45857e-05H26.9802C27.4452 -0.000105414 27.8018 -0.0001853 28.1134 0.0302947C30.329 0.247035 32.1424 1.57915 32.9116 3.37355H7.08887C7.85791 1.57915 9.67141 0.247035 11.887 0.0302947C12.1987 -0.0001853 12.5551 -0.000105414 13.0201 1.45857e-05Z" fill="#B80202"/>
    <path d="M8.62139 5.44531C5.84015 5.44531 3.55961 7.12481 2.79855 9.35289C2.78269 9.39933 2.76749 9.44603 2.75293 9.49293C3.54923 9.25179 4.37797 9.09425 5.21691 8.98671C7.37765 8.70969 10.1083 8.70983 13.2804 8.71001H13.5173H27.0646C30.2366 8.70983 32.9674 8.70969 35.128 8.98671C35.967 9.09425 36.7958 9.25179 37.592 9.49293C37.5774 9.44603 37.5622 9.39933 37.5464 9.35289C36.7854 7.12481 34.5048 5.44531 31.7236 5.44531H8.62139Z" fill="#C72C41"/>
</svg>
