<svg width="47" height="47" viewBox="0 0 71 47" fill="none" xmlns="http://www.w3.org/2000/svg">
    <path d="M17.76 6.808H11.808C11.1253 6.808 10.784 6.97867 10.784 7.32V47H4.064C2.61333 47 1.65333 46.7867 1.184 46.36C0.757333 45.8907 0.544 44.9307 0.544 43.48V4.376C0.544 2.88266 0.757333 1.90133 1.184 1.432C1.65333 0.962664 2.61333 0.727997 4.064 0.727997H17.76V6.808ZM21.344 26.904H27.424C29.1733 26.904 30.304 27.3093 30.816 28.12C31.328 28.888 31.584 30.1253 31.584 31.832V41.304C31.584 44.12 30.8373 45.848 29.344 46.488C28.6187 46.8293 27.7013 47 26.592 47H13.344V40.984H18.72C20.4693 40.984 21.344 40.3653 21.344 39.128V26.904ZM20.512 0.727997H26.592C28.2987 0.727997 29.3867 1.112 29.856 1.88C30.368 2.648 30.624 3.90666 30.624 5.656V17.944C30.624 20.4187 30.176 22.2107 29.28 23.32C28.4267 24.4293 26.6133 24.984 23.84 24.984H13.344V18.904H18.08C19.1467 18.904 19.808 18.648 20.064 18.136C20.3627 17.624 20.512 16.8347 20.512 15.768V0.727997ZM57.01 6.808H51.058C50.3753 6.808 50.034 6.97867 50.034 7.32V47H43.314C41.8633 47 40.9033 46.7867 40.434 46.36C40.0073 45.8907 39.794 44.9307 39.794 43.48V4.376C39.794 2.88266 40.0073 1.90133 40.434 1.432C40.9033 0.962664 41.8633 0.727997 43.314 0.727997H57.01V6.808ZM60.594 26.904H66.674C68.4233 26.904 69.554 27.3093 70.066 28.12C70.578 28.888 70.834 30.1253 70.834 31.832V41.304C70.834 44.12 70.0873 45.848 68.594 46.488C67.8687 46.8293 66.9513 47 65.842 47H52.594V40.984H57.97C59.7193 40.984 60.594 40.3653 60.594 39.128V26.904ZM59.762 0.727997H65.842C67.5487 0.727997 68.6367 1.112 69.106 1.88C69.618 2.648 69.874 3.90666 69.874 5.656V17.944C69.874 20.4187 69.426 22.2107 68.53 23.32C67.6767 24.4293 65.8633 24.984 63.09 24.984H52.594V18.904H57.33C58.3967 18.904 59.058 18.648 59.314 18.136C59.6127 17.624 59.762 16.8347 59.762 15.768V0.727997Z" fill="white"/>
</svg>
