<svg width="20" height="20" viewBox="0 0 20 20" fill="none" xmlns="http://www.w3.org/2000/svg">
    <path d="M10 0C10.1655 0.00114205 10.334 0.0479092 10.4922 0.147461C10.692 0.252254 10.7917 0.357798 10.8916 0.567383L13.4893 6.01758L19.1855 6.85547C19.685 6.85576 20.0843 7.48485 19.9844 8.00879C19.9843 8.21834 19.8844 8.42745 19.6846 8.53223L15.5879 12.7246L16.5869 18.6992C16.6868 19.328 16.2876 19.8521 15.7881 19.957H15.5879C15.3881 19.957 15.1878 19.9573 15.0879 19.8525L10 17.0264V14.8213C10.1997 14.8213 10.2188 14.8212 10.3916 14.9258L14.1895 17.0225L13.4893 12.6201C13.4893 12.3057 13.5893 11.8864 13.7891 11.6768L16.7871 8.53223L12.5898 7.90332C12.1905 7.90316 11.891 7.6941 11.791 7.37988L10 3.39648V0Z" fill="url(#paint0_linear_219_20)"/>
    <path d="M9.99976 0C9.83423 0.00114205 9.66575 0.0479092 9.50757 0.147461C9.30779 0.252254 9.20806 0.357798 9.10815 0.567383L6.5105 6.01758L0.814209 6.85547C0.314755 6.85576 -0.0845191 7.48485 0.0153809 8.00879C0.0154454 8.21834 0.115404 8.42745 0.315186 8.53223L4.41187 12.7246L3.41284 18.6992C3.31294 19.328 3.71218 19.8521 4.21167 19.957H4.41187C4.61168 19.957 4.81196 19.9573 4.91187 19.8525L9.99976 17.0264V14.8213C9.80008 14.8213 9.78098 14.8212 9.60815 14.9258L5.8103 17.0225L6.5105 12.6201C6.51046 12.3057 6.41048 11.8864 6.21069 11.6768L3.21265 8.53223L7.40991 7.90332C7.8093 7.90316 8.1088 7.6941 8.20874 7.37988L9.99976 3.39648V0Z" fill="url(#paint1_linear_219_20)"/>
    <defs>
        <linearGradient id="paint0_linear_219_20" x1="10" y1="9.97852" x2="19.9998" y2="9.97852" gradientUnits="userSpaceOnUse">
            <stop stop-color="#E94560"/>
            <stop offset="1" stop-color="#C72C41"/>
        </linearGradient>
        <linearGradient id="paint1_linear_219_20" x1="9.99976" y1="9.97852" x2="-4.00543e-05" y2="9.97852" gradientUnits="userSpaceOnUse">
            <stop stop-color="#E94560"/>
            <stop offset="1" stop-color="#C72C41"/>
        </linearGradient>
    </defs>
</svg>
