<svg width="20" height="20" viewBox="0 0 20 20" fill="none" xmlns="http://www.w3.org/2000/svg">
    <g clip-path="url(#clip0_602_2)">
        <circle cx="10" cy="10" r="10" fill="white"/>
        <path d="M10.2602 7.30534L10.5043 8.05561C10.7354 7.85921 11.0035 7.71127 11.2929 7.62055C11.6158 7.51548 11.9009 7.45638 12.1586 7.42245L11.9233 6.69845C11.6299 6.74071 11.3406 6.80809 11.0587 6.89984C10.773 6.99244 10.5036 7.12927 10.2602 7.30534ZM10.7675 8.86771L11.0116 9.61797C11.2427 9.42158 11.5108 9.27363 11.8002 9.18292C12.123 9.07785 12.4082 9.01875 12.6659 8.98482L12.4306 8.26082C12.1371 8.30308 11.8479 8.37045 11.566 8.4622C11.2801 8.55447 11.0107 8.69133 10.7675 8.86771ZM11.2754 10.4295L11.5194 11.1798C11.7505 10.9834 12.0187 10.8355 12.308 10.7447C12.6309 10.6397 12.916 10.5806 13.1737 10.5466L12.9384 9.82264C12.645 9.8649 12.3557 9.93227 12.0738 10.024C11.788 10.1163 11.5185 10.2531 11.2754 10.4295ZM7.41077 11.6181L7.64608 12.3421C7.90687 12.2011 8.18021 12.0846 8.46256 11.9941C8.75001 11.8976 9.05389 11.8599 9.3562 11.883L9.11213 11.1327C8.812 11.1332 8.51378 11.1806 8.22834 11.2734C7.9464 11.3645 7.67286 11.4799 7.41077 11.6181ZM6.39564 8.49394L6.63095 9.21794C6.89185 9.07711 7.16516 8.9606 7.44743 8.8699C7.73488 8.77346 8.03876 8.73568 8.34107 8.75881L8.09755 8.008C7.79721 8.00866 7.49883 8.0563 7.21321 8.14918C6.93127 8.24036 6.65773 8.35571 6.39564 8.49394ZM6.90293 10.0563L7.13824 10.7803C7.39903 10.6393 7.67237 10.5227 7.95472 10.4323C8.24217 10.3358 8.54605 10.298 8.84836 10.3212L8.60484 9.57036C8.30471 9.57079 8.00649 9.61825 7.72105 9.711C7.43892 9.80235 7.16519 9.91788 6.90293 10.0563ZM10.5169 5.23349C9.79793 5.46319 9.19794 5.96609 8.84617 6.63388C8.16923 6.30052 7.38841 6.24647 6.67199 6.48339C5.29131 6.93212 4.5 7.92098 4.5 7.92098L6.74094 14.8091C6.8099 15.0209 7.09446 15.0701 7.22142 14.8873C7.49449 14.4939 8.02039 13.98 9.00378 13.6604C9.94394 13.3551 10.6285 13.69 11.0039 13.9767C11.1528 14.0906 11.3662 14.0096 11.4209 13.8301C11.5588 13.3775 11.9173 12.7137 12.8492 12.4111C13.8337 12.0909 14.5615 12.1982 15.0141 12.3564C15.2248 12.4297 15.4245 12.2239 15.3561 12.0121L13.119 5.12021C13.119 5.12021 11.8976 4.7853 10.5169 5.23349ZM10.4551 12.8106C9.89328 12.6415 9.293 12.6499 8.73618 12.8346C8.05158 13.0568 7.5722 13.354 7.25918 13.603L5.48339 8.14043C5.6793 7.94452 6.13296 7.5702 6.94014 7.30808C7.70026 7.06127 8.32356 7.27251 8.73454 7.51493L10.4551 12.8106ZM14.2277 11.339C13.8277 11.3215 13.2651 11.3631 12.5805 11.5858C12.0215 11.7635 11.5309 12.1094 11.1758 12.5763L9.45525 7.28071C9.6446 6.84292 10.0244 6.30553 10.785 6.05873C11.5917 5.7966 12.1789 5.83272 12.4525 5.87595L14.2277 11.339Z" fill="#E94560"/>
    </g>
    <defs>
        <clipPath id="clip0_602_2">
            <rect width="20" height="20" fill="white"/>
        </clipPath>
    </defs>
</svg>
