<svg width="36" height="36" viewBox="0 0 36 36" fill="none" xmlns="http://www.w3.org/2000/svg">
    <path d="M35.0095 35.0095C34.6957 35.3235 34.3231 35.5726 33.9129 35.7426C33.5028 35.9125 33.0632 36 32.6193 36C32.1753 36 31.7357 35.9125 31.3256 35.7426C30.9155 35.5726 30.5429 35.3235 30.229 35.0095L24.263 29.0435C21.8085 30.6145 18.9078 31.5543 15.7772 31.5543C7.06366 31.5543 0 24.4907 0 15.7772C0 7.06366 7.06366 0 15.7772 0C24.4907 0 31.5543 7.06366 31.5543 15.7772C31.5543 18.9078 30.6145 21.8085 29.0435 24.263L35.0095 30.229C35.3235 30.5429 35.5726 30.9155 35.7426 31.3256C35.9125 31.7357 36 32.1753 36 32.6193C36 33.0632 35.9125 33.5028 35.7426 33.9129C35.5726 34.3231 35.3235 34.6957 35.0095 35.0095ZM15.7772 4.50776C9.5542 4.50776 4.50776 9.55194 4.50776 15.7772C4.50776 22.0024 9.5542 27.0466 15.7772 27.0466C22.0024 27.0466 27.0466 22.0024 27.0466 15.7772C27.0466 9.55194 22.0024 4.50776 15.7772 4.50776Z" fill="#E94560"/>
</svg>
