<svg width="20" height="20" viewBox="0 0 20 20" fill="none" xmlns="http://www.w3.org/2000/svg">
    <path d="M19.9846 8.00859C20.0845 7.48453 19.6848 6.85566 19.1852 6.85566L13.4896 6.01717L10.8916 0.566981C10.7917 0.357358 10.6918 0.252547 10.4919 0.147736C9.99229 -0.166698 9.39276 0.0429245 9.09299 0.566981L6.59491 6.01717L0.899306 6.85566C0.599538 6.85566 0.399692 6.96047 0.299769 7.17009C-0.0999229 7.58934 -0.0999229 8.21821 0.299769 8.63745L4.39661 12.8299L3.39738 18.8042C3.39738 19.0138 3.39738 19.2234 3.4973 19.433C3.79707 19.9571 4.39661 20.1667 4.89622 19.8523L9.99229 17.0224L15.0884 19.8523C15.1883 19.9571 15.3881 19.9571 15.588 19.9571C15.6879 19.9571 15.6879 19.9571 15.7878 19.9571C16.2874 19.8523 16.6871 19.3282 16.5872 18.6993L15.588 12.7251L19.6848 8.53264C19.8847 8.42783 19.9846 8.21821 19.9846 8.00859ZM13.7894 11.677C13.5895 11.8866 13.4896 12.3058 13.4896 12.6203L14.1891 17.0224L10.392 14.9261C10.2921 14.8213 10.0922 14.8213 9.89237 14.8213V3.39689L11.7909 7.37972C11.8908 7.69415 12.1906 7.90377 12.5903 7.90377L16.7871 8.53264L13.7894 11.677Z" fill="url(#paint0_linear_219_11)"/>
    <defs>
        <linearGradient id="paint0_linear_219_11" x1="0" y1="10" x2="20" y2="10" gradientUnits="userSpaceOnUse">
            <stop stop-color="#E94560"/>
            <stop offset="1" stop-color="#C72C41"/>
        </linearGradient>
    </defs>
</svg>
