<svg width="39" height="40" viewBox="0 0 39 40" fill="none" xmlns="http://www.w3.org/2000/svg">
    <path d="M34.3994 21.96C34.4796 21.32 34.5397 20.68 34.5397 20C34.5397 19.32 34.4796 18.68 34.3994 18.04L38.6293 14.74C39.0102 14.44 39.1104 13.9 38.8699 13.46L34.8605 6.54C34.6199 6.1 34.0786 5.94 33.6376 6.1L28.6459 8.1C27.6034 7.3 26.4808 6.64 25.2579 6.14L24.4961 0.84C24.436 0.36 24.015 0 23.5138 0H15.495C14.9938 0 14.5729 0.36 14.5127 0.84L13.7509 6.14C12.5281 6.64 11.4054 7.32 10.363 8.1L5.37127 6.1C4.91018 5.92 4.38896 6.1 4.1484 6.54L0.138989 13.46C-0.121622 13.9 -0.00133975 14.44 0.379554 14.74L4.60948 18.04C4.52929 18.68 4.46915 19.34 4.46915 20C4.46915 20.66 4.52929 21.32 4.60948 21.96L0.379554 25.26C-0.00133975 25.56 -0.101575 26.1 0.138989 26.54L4.1484 33.46C4.38896 33.9 4.93023 34.06 5.37127 33.9L10.363 31.9C11.4054 32.7 12.5281 33.36 13.7509 33.86L14.5127 39.16C14.5729 39.64 14.9938 40 15.495 40H23.5138C24.015 40 24.436 39.64 24.4961 39.16L25.2579 33.86C26.4808 33.36 27.6034 32.68 28.6459 31.9L33.6376 33.9C34.0987 34.08 34.6199 33.9 34.8605 33.46L38.8699 26.54C39.1104 26.1 39.0102 25.56 38.6293 25.26L34.3994 21.96ZM19.5044 27C15.6354 27 12.488 23.86 12.488 20C12.488 16.14 15.6354 13 19.5044 13C23.3735 13 26.5209 16.14 26.5209 20C26.5209 23.86 23.3735 27 19.5044 27Z" fill="#E94560"/>
</svg>
