<svg width="13" height="21" viewBox="0 0 13 21" fill="none" xmlns="http://www.w3.org/2000/svg">
    <path d="M6.20464 9.78496C6.05763 10.0191 5.95788 10.2806 5.91273 10.5536C5.91693 10.8192 6.02088 11.0744 6.20464 11.2665L11.9976 17.2852C12.3828 17.6953 12.5981 18.2362 12.6001 18.7988C12.602 19.3615 12.3905 19.9039 12.0081 20.3166L11.9787 20.3481C11.7869 20.5531 11.5552 20.7167 11.2978 20.8289C11.0404 20.941 10.7628 20.9992 10.4821 21C10.2014 21.0008 9.92345 20.9441 9.66545 20.8334C9.40745 20.7228 9.17483 20.5605 8.98192 20.3565L0.301462 11.3127C0.110201 11.1059 0.00277663 10.8353 0.000108258 10.5536C0.04631 10.2652 0.148698 9.98871 0.301462 9.73981L8.98192 0.641434C9.17512 0.437744 9.40796 0.275757 9.66612 0.165447C9.92427 0.0551365 10.2023 -0.00116176 10.483 1.86423e-05C10.7637 0.00119904 11.0413 0.0598331 11.2985 0.17231C11.5557 0.284787 11.7872 0.448727 11.9787 0.654034L12.0081 0.691834C12.3905 1.10726 12.6019 1.65179 12.5999 2.21641C12.598 2.78104 12.3828 3.3241 11.9976 3.73688L6.20464 9.78496Z" fill="#E94560"/>
</svg>
