<svg width="13" height="21" viewBox="0 0 13 21" fill="none" xmlns="http://www.w3.org/2000/svg">
    <path d="M6.39546 11.2151C6.54246 10.9809 6.64221 10.7195 6.68737 10.4465C6.68317 10.1808 6.57921 9.92565 6.39546 9.73349L0.602538 3.71481C0.217293 3.30476 0.00196231 2.76382 1.34405e-05 2.20119C-0.00193543 1.63855 0.209642 1.09613 0.592038 0.683421L0.621438 0.651923C0.8132 0.446887 1.0449 0.283274 1.30228 0.171158C1.55965 0.0590425 1.83726 0.000797742 2.11799 1.19023e-05C2.39873 -0.000775845 2.67665 0.0559105 2.93465 0.166583C3.19265 0.277253 3.42527 0.439564 3.61818 0.643523L12.2986 9.68729C12.4899 9.89413 12.5973 10.1648 12.6 10.4465C12.5538 10.7348 12.4514 11.0113 12.2986 11.2602L3.61818 20.3586C3.42498 20.5623 3.19214 20.7243 2.93398 20.8346C2.67582 20.9449 2.39782 21.0012 2.11708 21C1.83635 20.9988 1.55883 20.9402 1.30161 20.8277C1.04439 20.7152 0.812913 20.5513 0.621439 20.346L0.592038 20.3082C0.209634 19.8928 -0.00175414 19.3482 0.00019283 18.7836C0.0021398 18.219 0.217278 17.6759 0.602538 17.2631L6.39546 11.2151Z" fill="#E94560"/>
</svg>
