<svg width="21" height="20" viewBox="0 0 21 20" fill="none" xmlns="http://www.w3.org/2000/svg">
    <path d="M20.8645 8.00859C20.9644 7.48453 20.5647 6.85566 20.0651 6.85566L14.3695 6.01717L11.7715 0.566981C11.6716 0.357358 11.5716 0.252547 11.3718 0.147736C10.8722 -0.166698 10.2726 0.0429245 9.97287 0.566981L7.4748 6.01717L1.77919 6.85566C1.47942 6.85566 1.27957 6.96047 1.17965 7.17009C0.77996 7.58934 0.77996 8.21821 1.17965 8.63745L5.27649 12.8299L4.27726 18.8042C4.27726 19.0138 4.27726 19.2234 4.37719 19.433C4.67695 19.9571 5.27649 20.1667 5.77611 19.8523L10.8722 17.0224L15.9682 19.8523C16.0682 19.9571 16.268 19.9571 16.4679 19.9571C16.5678 19.9571 16.5678 19.9571 16.6677 19.9571C17.1673 19.8523 17.567 19.3282 17.4671 18.6993L16.4679 12.7251L20.5647 8.53264C20.7645 8.42783 20.8645 8.21821 20.8645 8.00859Z" fill="url(#paint0_linear_219_12)"/>
    <defs>
        <linearGradient id="paint0_linear_219_12" x1="0.879883" y1="10" x2="20.8799" y2="10" gradientUnits="userSpaceOnUse">
            <stop stop-color="#E94560"/>
            <stop offset="1" stop-color="#C72C41"/>
        </linearGradient>
    </defs>
</svg>
