<svg width="40" height="40" viewBox="0 0 40 40" fill="none" xmlns="http://www.w3.org/2000/svg">
    <path d="M38.125 21.875H29.375C29.2092 21.875 29.0503 21.9408 28.9331 22.0581C28.8158 22.1753 28.75 22.3342 28.75 22.5V37.5H25V11.875C25 11.7092 24.9342 11.5503 24.8169 11.4331C24.6997 11.3158 24.5408 11.25 24.375 11.25H15.625C15.4592 11.25 15.3003 11.3158 15.1831 11.4331C15.0658 11.5503 15 11.7092 15 11.875V37.5H11.25V20C11.25 19.8342 11.1842 19.6753 11.0669 19.5581C10.9497 19.4408 10.7908 19.375 10.625 19.375H1.875C1.70924 19.375 1.55027 19.4408 1.43306 19.5581C1.31585 19.6753 1.25 19.8342 1.25 20V38.125C1.25 38.2908 1.31585 38.4497 1.43306 38.5669C1.55027 38.6842 1.70924 38.75 1.875 38.75H38.125C38.2908 38.75 38.4497 38.6842 38.5669 38.5669C38.6842 38.4497 38.75 38.2908 38.75 38.125V22.5C38.75 22.3342 38.6842 22.1753 38.5669 22.0581C38.4497 21.9408 38.2908 21.875 38.125 21.875Z" fill="#E94560"/>
    <path d="M6.25002 16.875C6.85062 16.8767 7.44279 16.7336 7.97642 16.458C8.51006 16.1824 8.96947 15.7824 9.31578 15.2917C9.66209 14.801 9.88511 14.2341 9.96599 13.6389C10.0469 13.0438 9.9832 12.4379 9.78039 11.8726L17.0786 7.34555C17.4037 7.75246 17.8104 8.08692 18.2724 8.32748C18.7344 8.56804 19.2415 8.70939 19.7614 8.74246C20.2812 8.77553 20.8022 8.69959 21.2909 8.51952C21.7797 8.33945 22.2254 8.05922 22.5995 7.6968L30.4073 13.9343C29.9814 14.775 29.8869 15.745 30.1425 16.652C30.3981 17.5591 30.9851 18.337 31.7873 18.8316C32.5895 19.3262 33.5482 19.5014 34.4734 19.3225C35.3986 19.1435 36.2229 18.6235 36.7828 17.8654C37.3426 17.1074 37.5973 16.1667 37.4962 15.2297C37.3951 14.2928 36.9458 13.428 36.2371 12.8067C35.5285 12.1855 34.6123 11.8532 33.6702 11.8757C32.728 11.8982 31.8287 12.2738 31.1505 12.9281L23.3427 6.69055C23.6249 6.13676 23.7651 5.52152 23.7506 4.90013C23.7362 4.27874 23.5675 3.67069 23.2598 3.13064C22.9521 2.5906 22.515 2.13548 21.9878 1.80621C21.4606 1.47694 20.8599 1.28384 20.2396 1.24427C19.6193 1.2047 18.9989 1.31991 18.4342 1.57952C17.8694 1.83913 17.3781 2.23502 17.0042 2.7316C16.6304 3.22817 16.3858 3.80986 16.2925 4.42437C16.1992 5.03888 16.2601 5.66695 16.4696 6.25212L9.17146 10.7794C8.77464 10.2852 8.259 9.89974 7.67274 9.65895C7.08648 9.41816 6.44874 9.32994 5.81913 9.40254C5.18952 9.47515 4.5886 9.70621 4.07253 10.0741C3.55647 10.442 3.14211 10.9348 2.86819 11.5063C2.59427 12.0778 2.46973 12.7095 2.50622 13.3422C2.5427 13.975 2.73902 14.5881 3.07682 15.1244C3.41462 15.6606 3.88287 16.1025 4.4378 16.4086C4.99274 16.7148 5.61624 16.8752 6.25002 16.875Z" fill="#E94560"/>
</svg>
