<svg width="400" height="400" viewBox="0 0 400 400" fill="none" xmlns="http://www.w3.org/2000/svg">
    <path d="M200.707 4.29289C200.317 3.90237 199.683 3.90237 199.293 4.29289L192.929 10.6569C192.538 11.0474 192.538 11.6805 192.929 12.0711C193.319 12.4616 193.953 12.4616 194.343 12.0711L200 6.41421L205.657 12.0711C206.047 12.4616 206.681 12.4616 207.071 12.0711C207.462 11.6805 207.462 11.0474 207.071 10.6569L200.707 4.29289ZM199 5V395H201V5H199Z" fill="black"/>
    <path d="M395.707 200.707C396.098 200.317 396.098 199.683 395.707 199.293L389.343 192.929C388.953 192.538 388.319 192.538 387.929 192.929C387.538 193.319 387.538 193.953 387.929 194.343L393.586 200L387.929 205.657C387.538 206.047 387.538 206.681 387.929 207.071C388.319 207.462 388.953 207.462 389.343 207.071L395.707 200.707ZM395 199H4.99999V201H395V199Z" fill="black"/>
    <path d="M196 364H204" stroke="black" stroke-width="2"/>
    <path d="M196 118H204" stroke="black" stroke-width="2"/>
    <path d="M196 282H204" stroke="black" stroke-width="2"/>
    <path d="M196 36H204" stroke="black" stroke-width="2"/>
    <path d="M36 196V204" stroke="black" stroke-width="2"/>
    <path d="M282 196V204" stroke="black" stroke-width="2"/>
    <path d="M118 196V204" stroke="black" stroke-width="2"/>
    <path d="M364 196V204" stroke="black" stroke-width="2"/>
    <path d="M216.599 12.384L217.127 14.4H217.367L217.823 12.384L219.959 5.4H223.391L219.215 16.8C218.863 17.744 218.527 18.592 218.207 19.344C217.903 20.096 217.567 20.736 217.199 21.264C216.831 21.792 216.415 22.192 215.951 22.464C215.503 22.752 214.967 22.896 214.343 22.896C213.927 22.896 213.527 22.856 213.143 22.776C212.775 22.712 212.455 22.608 212.183 22.464L212.879 19.872C213.119 19.952 213.367 19.992 213.623 19.992C213.847 19.992 214.063 19.968 214.271 19.92C214.479 19.872 214.671 19.776 214.847 19.632C215.023 19.504 215.183 19.312 215.327 19.056C215.487 18.816 215.623 18.488 215.735 18.072L209.975 5.4H214.031L216.599 12.384Z" fill="black"/>
    <path d="M211.747 39.3979C211.98 39.4819 212.228 39.5472 212.489 39.5939C212.76 39.6406 213.1 39.6639 213.511 39.6639C214.211 39.6639 214.785 39.4959 215.233 39.1599C215.681 38.8146 215.905 38.3106 215.905 37.6479C215.905 37.0039 215.676 36.5232 215.219 36.2059C214.771 35.8792 214.146 35.7159 213.343 35.7159L212.069 35.7719V30.8579H216.927V32.0899H213.301V34.6239L213.959 34.5959C214.463 34.5959 214.916 34.6659 215.317 34.8059C215.718 34.9459 216.059 35.1419 216.339 35.3939C216.628 35.6459 216.848 35.9586 216.997 36.3319C217.156 36.6959 217.235 37.1112 217.235 37.5779C217.235 38.1099 217.137 38.5812 216.941 38.9919C216.745 39.3932 216.474 39.7339 216.129 40.0139C215.793 40.2846 215.396 40.4899 214.939 40.6299C214.482 40.7699 213.992 40.8399 213.469 40.8399C213.021 40.8399 212.629 40.8119 212.293 40.7559C211.966 40.6999 211.663 40.6206 211.383 40.5179L211.747 39.3979Z" fill="black"/>
    <path d="M361.538 188.214C361.772 188.298 362.019 188.363 362.28 188.41C362.551 188.456 362.892 188.48 363.302 188.48C364.002 188.48 364.576 188.312 365.024 187.976C365.472 187.63 365.696 187.126 365.696 186.464C365.696 185.82 365.468 185.339 365.01 185.022C364.562 184.695 363.937 184.532 363.134 184.532L361.86 184.588V179.674H366.718V180.906H363.092V183.44L363.75 183.412C364.254 183.412 364.707 183.482 365.108 183.622C365.51 183.762 365.85 183.958 366.13 184.21C366.42 184.462 366.639 184.774 366.788 185.148C366.947 185.512 367.026 185.927 367.026 186.394C367.026 186.926 366.928 187.397 366.732 187.808C366.536 188.209 366.266 188.55 365.92 188.83C365.584 189.1 365.188 189.306 364.73 189.446C364.273 189.586 363.783 189.656 363.26 189.656C362.812 189.656 362.42 189.628 362.084 189.572C361.758 189.516 361.454 189.436 361.174 189.334L361.538 188.214Z" fill="black"/>
    <path d="M279.066 181.97C279.066 182.446 278.968 182.936 278.772 183.44C278.576 183.934 278.32 184.429 278.002 184.924C277.694 185.418 277.344 185.908 276.952 186.394C276.57 186.879 276.182 187.346 275.79 187.794L275.034 188.396V188.452L276.042 188.298H279.304V189.474H273.13V188.97C273.354 188.755 273.62 188.494 273.928 188.186C274.246 187.868 274.572 187.523 274.908 187.15C275.254 186.767 275.59 186.366 275.916 185.946C276.252 185.526 276.551 185.101 276.812 184.672C277.074 184.233 277.284 183.804 277.442 183.384C277.61 182.964 277.694 182.567 277.694 182.194C277.694 181.755 277.559 181.391 277.288 181.102C277.018 180.812 276.602 180.668 276.042 180.668C275.65 180.668 275.272 180.742 274.908 180.892C274.544 181.041 274.232 181.223 273.97 181.438L273.396 180.5C273.779 180.192 274.213 179.949 274.698 179.772C275.184 179.585 275.72 179.492 276.308 179.492C277.176 179.492 277.853 179.72 278.338 180.178C278.824 180.626 279.066 181.223 279.066 181.97ZM281.359 188.816C281.359 188.573 281.448 188.377 281.625 188.228C281.802 188.069 282.017 187.99 282.269 187.99C282.596 187.99 282.862 188.102 283.067 188.326C283.272 188.54 283.375 188.844 283.375 189.236C283.375 189.6 283.319 189.912 283.207 190.174C283.104 190.444 282.969 190.673 282.801 190.86C282.633 191.056 282.446 191.21 282.241 191.322C282.045 191.434 281.849 191.518 281.653 191.574L281.261 190.93C281.616 190.808 281.882 190.612 282.059 190.342C282.246 190.08 282.334 189.814 282.325 189.544C282.073 189.618 281.849 189.59 281.653 189.46C281.457 189.329 281.359 189.114 281.359 188.816ZM285.162 188.214C285.395 188.298 285.642 188.363 285.904 188.41C286.174 188.456 286.515 188.48 286.926 188.48C287.626 188.48 288.2 188.312 288.648 187.976C289.096 187.63 289.32 187.126 289.32 186.464C289.32 185.82 289.091 185.339 288.634 185.022C288.186 184.695 287.56 184.532 286.758 184.532L285.484 184.588V179.674H290.342V180.906H286.716V183.44L287.374 183.412C287.878 183.412 288.33 183.482 288.732 183.622C289.133 183.762 289.474 183.958 289.754 184.21C290.043 184.462 290.262 184.774 290.412 185.148C290.57 185.512 290.65 185.927 290.65 186.394C290.65 186.926 290.552 187.397 290.356 187.808C290.16 188.209 289.889 188.55 289.544 188.83C289.208 189.1 288.811 189.306 288.354 189.446C287.896 189.586 287.406 189.656 286.884 189.656C286.436 189.656 286.044 189.628 285.708 189.572C285.381 189.516 285.078 189.436 284.798 189.334L285.162 188.214Z" fill="black"/>
    <path d="M106.664 184.826H110.388V186.03H106.664V184.826ZM118.124 181.97C118.124 182.446 118.026 182.936 117.83 183.44C117.634 183.934 117.377 184.429 117.06 184.924C116.752 185.418 116.402 185.908 116.01 186.394C115.627 186.879 115.24 187.346 114.848 187.794L114.092 188.396V188.452L115.1 188.298H118.362V189.474H112.188V188.97C112.412 188.755 112.678 188.494 112.986 188.186C113.303 187.868 113.63 187.523 113.966 187.15C114.311 186.767 114.647 186.366 114.974 185.946C115.31 185.526 115.609 185.101 115.87 184.672C116.131 184.233 116.341 183.804 116.5 183.384C116.668 182.964 116.752 182.567 116.752 182.194C116.752 181.755 116.617 181.391 116.346 181.102C116.075 180.812 115.66 180.668 115.1 180.668C114.708 180.668 114.33 180.742 113.966 180.892C113.602 181.041 113.289 181.223 113.028 181.438L112.454 180.5C112.837 180.192 113.271 179.949 113.756 179.772C114.241 179.585 114.778 179.492 115.366 179.492C116.234 179.492 116.911 179.72 117.396 180.178C117.881 180.626 118.124 181.223 118.124 181.97ZM120.416 188.816C120.416 188.573 120.505 188.377 120.682 188.228C120.86 188.069 121.074 187.99 121.326 187.99C121.653 187.99 121.919 188.102 122.124 188.326C122.33 188.54 122.432 188.844 122.432 189.236C122.432 189.6 122.376 189.912 122.264 190.174C122.162 190.444 122.026 190.673 121.858 190.86C121.69 191.056 121.504 191.21 121.298 191.322C121.102 191.434 120.906 191.518 120.71 191.574L120.318 190.93C120.673 190.808 120.939 190.612 121.116 190.342C121.303 190.08 121.392 189.814 121.382 189.544C121.13 189.618 120.906 189.59 120.71 189.46C120.514 189.329 120.416 189.114 120.416 188.816ZM124.219 188.214C124.452 188.298 124.7 188.363 124.961 188.41C125.232 188.456 125.572 188.48 125.983 188.48C126.683 188.48 127.257 188.312 127.705 187.976C128.153 187.63 128.377 187.126 128.377 186.464C128.377 185.82 128.148 185.339 127.691 185.022C127.243 184.695 126.618 184.532 125.815 184.532L124.541 184.588V179.674H129.399V180.906H125.773V183.44L126.431 183.412C126.935 183.412 127.388 183.482 127.789 183.622C128.19 183.762 128.531 183.958 128.811 184.21C129.1 184.462 129.32 184.774 129.469 185.148C129.628 185.512 129.707 185.927 129.707 186.394C129.707 186.926 129.609 187.397 129.413 187.808C129.217 188.209 128.946 188.55 128.601 188.83C128.265 189.1 127.868 189.306 127.411 189.446C126.954 189.586 126.464 189.656 125.941 189.656C125.493 189.656 125.101 189.628 124.765 189.572C124.438 189.516 124.135 189.436 123.855 189.334L124.219 188.214Z" fill="black"/>
    <path d="M30.2875 184.826H34.0115V186.03H30.2875V184.826ZM36.3853 188.214C36.6186 188.298 36.8659 188.363 37.1273 188.41C37.3979 188.456 37.7386 188.48 38.1493 188.48C38.8493 188.48 39.4233 188.312 39.8713 187.976C40.3193 187.63 40.5433 187.126 40.5433 186.464C40.5433 185.82 40.3146 185.339 39.8573 185.022C39.4093 184.695 38.7839 184.532 37.9813 184.532L36.7073 184.588V179.674H41.5653V180.906H37.9393V183.44L38.5973 183.412C39.1013 183.412 39.5539 183.482 39.9553 183.622C40.3566 183.762 40.6973 183.958 40.9773 184.21C41.2666 184.462 41.4859 184.774 41.6353 185.148C41.7939 185.512 41.8733 185.927 41.8733 186.394C41.8733 186.926 41.7753 187.397 41.5793 187.808C41.3833 188.209 41.1126 188.55 40.7673 188.83C40.4313 189.1 40.0346 189.306 39.5773 189.446C39.1199 189.586 38.6299 189.656 38.1073 189.656C37.6593 189.656 37.2673 189.628 36.9313 189.572C36.6046 189.516 36.3013 189.436 36.0213 189.334L36.3853 188.214Z" fill="black"/>
    <path d="M217.109 115.259C217.109 115.735 217.011 116.225 216.815 116.729C216.619 117.224 216.362 117.718 216.045 118.213C215.737 118.708 215.387 119.198 214.995 119.683C214.612 120.168 214.225 120.635 213.833 121.083L213.077 121.685V121.741L214.085 121.587H217.347V122.763H211.173V122.259C211.397 122.044 211.663 121.783 211.971 121.475C212.288 121.158 212.615 120.812 212.951 120.439C213.296 120.056 213.632 119.655 213.959 119.235C214.295 118.815 214.594 118.39 214.855 117.961C215.116 117.522 215.326 117.093 215.485 116.673C215.653 116.253 215.737 115.856 215.737 115.483C215.737 115.044 215.602 114.68 215.331 114.391C215.06 114.102 214.645 113.957 214.085 113.957C213.693 113.957 213.315 114.032 212.951 114.181C212.587 114.33 212.274 114.512 212.013 114.727L211.439 113.789C211.822 113.481 212.256 113.238 212.741 113.061C213.226 112.874 213.763 112.781 214.351 112.781C215.219 112.781 215.896 113.01 216.381 113.467C216.866 113.915 217.109 114.512 217.109 115.259ZM219.402 122.105C219.402 121.862 219.49 121.666 219.668 121.517C219.845 121.358 220.06 121.279 220.312 121.279C220.638 121.279 220.904 121.391 221.11 121.615C221.315 121.83 221.418 122.133 221.418 122.525C221.418 122.889 221.362 123.202 221.25 123.463C221.147 123.734 221.012 123.962 220.844 124.149C220.676 124.345 220.489 124.499 220.284 124.611C220.088 124.723 219.892 124.807 219.696 124.863L219.304 124.219C219.658 124.098 219.924 123.902 220.102 123.631C220.288 123.37 220.377 123.104 220.368 122.833C220.116 122.908 219.892 122.88 219.696 122.749C219.5 122.618 219.402 122.404 219.402 122.105ZM223.204 121.503C223.438 121.587 223.685 121.652 223.946 121.699C224.217 121.746 224.558 121.769 224.968 121.769C225.668 121.769 226.242 121.601 226.69 121.265C227.138 120.92 227.362 120.416 227.362 119.753C227.362 119.109 227.134 118.628 226.676 118.311C226.228 117.984 225.603 117.821 224.8 117.821L223.526 117.877V112.963H228.384V114.195H224.758V116.729L225.416 116.701C225.92 116.701 226.373 116.771 226.774 116.911C227.176 117.051 227.516 117.247 227.796 117.499C228.086 117.751 228.305 118.064 228.454 118.437C228.613 118.801 228.692 119.216 228.692 119.683C228.692 120.215 228.594 120.686 228.398 121.097C228.202 121.498 227.932 121.839 227.586 122.119C227.25 122.39 226.854 122.595 226.396 122.735C225.939 122.875 225.449 122.945 224.926 122.945C224.478 122.945 224.086 122.917 223.75 122.861C223.424 122.805 223.12 122.726 222.84 122.623L223.204 121.503Z" fill="black"/>
    <path d="M211.159 280.273H214.883V281.477H211.159V280.273ZM222.619 277.417C222.619 277.893 222.521 278.383 222.325 278.887C222.129 279.382 221.872 279.876 221.555 280.371C221.247 280.866 220.897 281.356 220.505 281.841C220.122 282.326 219.735 282.793 219.343 283.241L218.587 283.843V283.899L219.595 283.745H222.857V284.921H216.683V284.417C216.907 284.202 217.173 283.941 217.481 283.633C217.798 283.316 218.125 282.97 218.461 282.597C218.806 282.214 219.142 281.813 219.469 281.393C219.805 280.973 220.104 280.548 220.365 280.119C220.626 279.68 220.836 279.251 220.995 278.831C221.163 278.411 221.247 278.014 221.247 277.641C221.247 277.202 221.112 276.838 220.841 276.549C220.57 276.26 220.155 276.115 219.595 276.115C219.203 276.115 218.825 276.19 218.461 276.339C218.097 276.488 217.784 276.67 217.523 276.885L216.949 275.947C217.332 275.639 217.766 275.396 218.251 275.219C218.736 275.032 219.273 274.939 219.861 274.939C220.729 274.939 221.406 275.168 221.891 275.625C222.376 276.073 222.619 276.67 222.619 277.417ZM224.911 284.263C224.911 284.02 225 283.824 225.177 283.675C225.355 283.516 225.569 283.437 225.821 283.437C226.148 283.437 226.414 283.549 226.619 283.773C226.825 283.988 226.927 284.291 226.927 284.683C226.927 285.047 226.871 285.36 226.759 285.621C226.657 285.892 226.521 286.12 226.353 286.307C226.185 286.503 225.999 286.657 225.793 286.769C225.597 286.881 225.401 286.965 225.205 287.021L224.813 286.377C225.168 286.256 225.434 286.06 225.611 285.789C225.798 285.528 225.887 285.262 225.877 284.991C225.625 285.066 225.401 285.038 225.205 284.907C225.009 284.776 224.911 284.562 224.911 284.263ZM228.714 283.661C228.947 283.745 229.195 283.81 229.456 283.857C229.727 283.904 230.067 283.927 230.478 283.927C231.178 283.927 231.752 283.759 232.2 283.423C232.648 283.078 232.872 282.574 232.872 281.911C232.872 281.267 232.643 280.786 232.186 280.469C231.738 280.142 231.113 279.979 230.31 279.979L229.036 280.035V275.121H233.894V276.353H230.268V278.887L230.926 278.859C231.43 278.859 231.883 278.929 232.284 279.069C232.685 279.209 233.026 279.405 233.306 279.657C233.595 279.909 233.815 280.222 233.964 280.595C234.123 280.959 234.202 281.374 234.202 281.841C234.202 282.373 234.104 282.844 233.908 283.255C233.712 283.656 233.441 283.997 233.096 284.277C232.76 284.548 232.363 284.753 231.906 284.893C231.449 285.033 230.959 285.103 230.436 285.103C229.988 285.103 229.596 285.075 229.26 285.019C228.933 284.963 228.63 284.884 228.35 284.781L228.714 283.661Z" fill="black"/>
    <path d="M211.159 362.378H214.883V363.582H211.159V362.378ZM217.257 365.766C217.49 365.85 217.738 365.916 217.999 365.962C218.27 366.009 218.61 366.032 219.021 366.032C219.721 366.032 220.295 365.864 220.743 365.528C221.191 365.183 221.415 364.679 221.415 364.016C221.415 363.372 221.186 362.892 220.729 362.574C220.281 362.248 219.656 362.084 218.853 362.084L217.579 362.14V357.226H222.437V358.458H218.811V360.992L219.469 360.964C219.973 360.964 220.426 361.034 220.827 361.174C221.228 361.314 221.569 361.51 221.849 361.762C222.138 362.014 222.358 362.327 222.507 362.7C222.666 363.064 222.745 363.48 222.745 363.946C222.745 364.478 222.647 364.95 222.451 365.36C222.255 365.762 221.984 366.102 221.639 366.382C221.303 366.653 220.906 366.858 220.449 366.998C219.992 367.138 219.502 367.208 218.979 367.208C218.531 367.208 218.139 367.18 217.803 367.124C217.476 367.068 217.173 366.989 216.893 366.886L217.257 365.766Z" fill="black"/>
    <path d="M386.266 219.86L382.138 213.716H386.218L387.922 216.164L387.898 216.14L388.882 218.372L389.842 216.14L389.818 216.164L391.642 213.716H395.338L391.186 219.764L395.602 226.316H391.618L389.578 223.484L389.602 223.508L388.594 221.3L387.538 223.508L387.562 223.484L385.498 226.316H381.802L386.266 219.86Z" fill="black"/>
</svg>
